<svg xmlns="http://www.w3.org/2000/svg" xmlns:xlink="http://www.w3.org/1999/xlink" width="196" zoomAndPan="magnify" viewBox="0 0 147 33.749998" height="45" preserveAspectRatio="xMidYMid meet" version="1.0"><defs><g/><clipPath id="9035c33e87"><path d="M 9 0 L 140 0 L 140 33.5 L 9 33.5 Z M 9 0 " clip-rule="nonzero"/></clipPath></defs><g clip-path="url(#9035c33e87)"><path fill="#cdaa50" d="M 11.457031 5.546875 C 12.671875 5.046875 31.789062 0.601562 32.320312 1.386719 C 34.5 4.597656 37.183594 0.851562 41.761719 1.21875 C 47.539062 1.703125 50.285156 -2.011719 52.203125 2.25 C 53.085938 4.214844 61.308594 -0.03125 62.144531 2.71875 C 63.941406 3.320312 62.84375 2.351562 66.070312 2.652344 C 70.652344 3.066406 83.039062 0.136719 84.421875 1.75 C 84.671875 2.03125 85.535156 2.25 86.804688 2.402344 C 86.335938 2.515625 85.851562 2.800781 85.671875 3.28125 C 85.570312 3.5 83.605469 3.351562 82.441406 4.066406 C 82.238281 4.199219 79.078125 4.730469 79.542969 4.730469 C 80.839844 4.730469 81.957031 4.464844 83.507812 4.464844 C 85.9375 4.464844 84.070312 4.25 86.003906 3.964844 C 87.652344 3.730469 85.351562 3.25 88.785156 2.667969 C 88.90625 2.640625 89.03125 2.605469 89.152344 2.566406 C 94.746094 2.832031 103.386719 2.367188 105.003906 1.566406 C 110.679688 -1.25 107.699219 2.628906 112.792969 2.628906 C 114.027344 2.628906 137.4375 1.730469 134.457031 4.027344 C 131.441406 6.34375 134.65625 5.59375 134.789062 8.441406 C 134.875 10.089844 139.984375 10.355469 135.15625 13.703125 C 134.523438 13.753906 132.492188 13.984375 133.492188 14.054688 C 135.238281 14.171875 128.847656 15.636719 129.59375 15.636719 C 130.0625 15.636719 133.523438 15.253906 133.625 15.820312 C 133.625 15.820312 133.523438 16.570312 133.441406 16.703125 C 132.992188 17.46875 132.558594 16.933594 133.707031 17.335938 C 134.390625 17.550781 131.941406 18.464844 132.324219 18.464844 C 132.527344 18.449219 134.441406 18.667969 133.441406 19.382812 C 133.359375 19.449219 134.125 19.734375 133.226562 20.265625 C 133.023438 20.382812 132.292969 21.878906 132.359375 21.914062 C 133.574219 22.480469 130.476562 23.144531 131.859375 23.09375 C 132.140625 23.078125 132.089844 23.863281 133.972656 23.996094 C 134.839844 24.496094 135.886719 24.613281 134.488281 26.894531 C 133.957031 26.945312 133.386719 26.976562 133.339844 26.925781 C 133.054688 26.59375 130.40625 27.3125 129.859375 27.394531 C 129.125 27.492188 133.738281 27.445312 134.585938 27.527344 C 134.644531 27.53125 134.699219 27.523438 134.753906 27.511719 C 136.136719 28.527344 141.414062 29.792969 138.148438 31.007812 C 138.050781 31.039062 129.308594 31.574219 126.929688 32.1875 C 123 33.222656 119.949219 32.105469 117.355469 33.503906 C 116.320312 34.054688 90.796875 32.539062 90.726562 32.453125 C 90.746094 32.4375 93.460938 33.65625 88.28125 33.65625 C 86.816406 33.65625 72.628906 34.253906 72.578125 33.539062 C 72.363281 30.492188 63.6875 33.304688 60.140625 33.304688 C 56.777344 33.304688 52.050781 34.488281 49.816406 31.707031 C 49.085938 30.804688 42.808594 31.957031 38.226562 30.941406 C 38.34375 30.722656 38.5625 30.539062 39.078125 30.539062 C 40.09375 30.539062 40.363281 30.222656 40.59375 30.238281 C 42.859375 30.339844 40.511719 29.65625 42.925781 29.65625 C 44.855469 29.65625 44.824219 29.640625 46.605469 29.375 C 50.300781 28.824219 44.472656 29.140625 44.40625 29.140625 C 42.976562 29.324219 41.925781 29.074219 40.761719 29.125 C 40.128906 29.15625 40.160156 29.839844 37.699219 29.839844 C 37.148438 29.839844 36.695312 30.039062 36.265625 30.304688 C 34 29.722656 20.429688 35.5 20.429688 32.953125 C 20.429688 28.027344 20.78125 32.253906 19.414062 29.957031 C 18.414062 28.308594 26.589844 24.027344 15.886719 26.058594 C 15.335938 26.160156 14.285156 25.195312 14.984375 23.960938 C 15.335938 23.8125 15.636719 23.679688 15.835938 23.628906 C 16.765625 23.363281 16.652344 23.0625 16.800781 23.046875 C 19.949219 22.582031 18.199219 21.964844 18.183594 21.949219 C 19.066406 21.53125 19.882812 22.03125 18.550781 21.445312 C 18.484375 21.414062 18.367188 21.378906 18.25 21.332031 C 18.480469 20.949219 18.316406 20.628906 18.117188 20.28125 C 18.847656 19.949219 18.332031 19.929688 18.582031 19.730469 C 19.730469 18.828125 19.082031 19.53125 18.863281 19.03125 C 18.449219 18.128906 22.328125 18.496094 20.296875 18.046875 C 18.050781 17.566406 19.179688 17.582031 18.78125 17.332031 C 17.914062 16.765625 19.746094 16.832031 18.632812 16.648438 C 16.566406 16.316406 19.714844 15.984375 19.730469 15.996094 L 16.054688 15.996094 C 15.386719 15.847656 14.855469 15.714844 14.96875 15.398438 C 15.804688 14.964844 16.800781 14.445312 16.300781 14.445312 L 16.21875 14.445312 C 16.34375 14.355469 16.4375 14.238281 16.503906 14.09375 C 17.417969 13.828125 19 13.511719 19.082031 13.511719 C 19.449219 13.511719 17.835938 13.496094 16.417969 13.511719 C 16.003906 12.695312 14.519531 11.746094 13.953125 10.78125 C 15.621094 9.832031 14.671875 10.414062 15.453125 10.414062 C 16.253906 10.414062 16.601562 10.097656 16.785156 10.113281 C 18.21875 10.183594 18.234375 10.265625 19.648438 9.980469 C 20.933594 9.730469 20.351562 10.582031 22.28125 9.679688 C 22.429688 9.597656 21.28125 9.648438 21.082031 9.648438 C 20.214844 9.648438 19.265625 9.316406 18.964844 9.382812 C 18.699219 9.433594 16.121094 9.582031 15.886719 9.515625 C 14.96875 9.25 14.820312 9.882812 14.371094 9.25 C 14.304688 9.148438 13.871094 9.300781 13.4375 9.480469 C 12.191406 8.648438 7.726562 9.230469 11.042969 5.550781 C 11.15625 5.417969 11.324219 5.585938 11.457031 5.535156 Z M 11.457031 5.546875 " fill-opacity="1" fill-rule="evenodd"/></g><g fill="#7ed957" fill-opacity="1"><g transform="translate(48.439395, 20.473343)"><g><path d="M 3.472656 0.660156 C 2.425781 0.660156 1.613281 0.296875 1.03125 -0.433594 C 0.476562 -1.125 0.203125 -2.121094 0.203125 -3.417969 C 0.203125 -4.695312 0.460938 -5.855469 0.984375 -6.902344 C 1.511719 -7.953125 2.210938 -8.78125 3.085938 -9.382812 C 3.976562 -9.996094 4.933594 -10.300781 5.960938 -10.300781 C 6.640625 -10.300781 7.199219 -10.167969 7.636719 -9.898438 C 7.886719 -9.742188 8.078125 -9.554688 8.207031 -9.332031 C 8.34375 -9.101562 8.410156 -8.84375 8.410156 -8.558594 C 8.410156 -8.230469 8.296875 -7.855469 8.070312 -7.433594 L 8.0625 -7.417969 L 8.050781 -7.402344 C 7.949219 -7.242188 7.851562 -7.113281 7.757812 -7.011719 C 7.578125 -6.824219 7.371094 -6.730469 7.125 -6.730469 C 6.984375 -6.730469 6.859375 -6.765625 6.746094 -6.835938 C 6.621094 -6.914062 6.53125 -7.023438 6.476562 -7.164062 C 6.433594 -7.265625 6.402344 -7.394531 6.375 -7.542969 C 6.359375 -7.632812 6.347656 -7.703125 6.332031 -7.746094 L 6.332031 -7.757812 L 6.328125 -7.765625 C 6.292969 -7.917969 6.222656 -8.023438 6.121094 -8.089844 C 5.992188 -8.175781 5.800781 -8.21875 5.542969 -8.21875 C 5.042969 -8.21875 4.601562 -8.050781 4.21875 -7.714844 C 3.804688 -7.351562 3.484375 -6.84375 3.257812 -6.183594 C 3.015625 -5.496094 2.898438 -4.707031 2.898438 -3.820312 C 2.898438 -3.007812 3.011719 -2.425781 3.238281 -2.074219 C 3.324219 -1.9375 3.4375 -1.835938 3.574219 -1.769531 C 3.726562 -1.695312 3.914062 -1.660156 4.140625 -1.660156 C 4.609375 -1.660156 4.972656 -1.777344 5.238281 -2.011719 C 5.554688 -2.300781 5.839844 -2.664062 6.089844 -3.105469 L 6.542969 -2.847656 L 6.082031 -3.089844 C 6.15625 -3.234375 6.246094 -3.347656 6.351562 -3.429688 C 6.496094 -3.546875 6.65625 -3.605469 6.835938 -3.605469 C 7.050781 -3.605469 7.226562 -3.523438 7.351562 -3.355469 C 7.449219 -3.234375 7.496094 -3.082031 7.496094 -2.902344 C 7.496094 -2.769531 7.460938 -2.585938 7.390625 -2.351562 C 7.117188 -1.429688 6.628906 -0.695312 5.921875 -0.15625 C 5.214844 0.386719 4.398438 0.660156 3.472656 0.660156 Z M 3.472656 -0.382812 C 4.160156 -0.382812 4.765625 -0.582031 5.289062 -0.984375 C 5.816406 -1.386719 6.183594 -1.941406 6.390625 -2.648438 C 6.433594 -2.785156 6.453125 -2.871094 6.453125 -2.902344 C 6.453125 -2.84375 6.476562 -2.785156 6.527344 -2.722656 C 6.570312 -2.664062 6.625 -2.621094 6.6875 -2.59375 C 6.738281 -2.574219 6.785156 -2.5625 6.835938 -2.5625 C 6.902344 -2.5625 6.960938 -2.582031 7.007812 -2.621094 C 7.015625 -2.625 7.019531 -2.632812 7.023438 -2.632812 C 7.015625 -2.628906 7.011719 -2.617188 7.003906 -2.605469 L 6.996094 -2.589844 C 6.691406 -2.050781 6.335938 -1.601562 5.933594 -1.238281 C 5.472656 -0.824219 4.875 -0.617188 4.140625 -0.617188 C 3.753906 -0.617188 3.414062 -0.691406 3.117188 -0.832031 C 2.808594 -0.984375 2.554688 -1.210938 2.363281 -1.507812 C 2.023438 -2.03125 1.855469 -2.800781 1.855469 -3.820312 C 1.855469 -4.824219 1.992188 -5.726562 2.273438 -6.527344 C 2.5625 -7.359375 2.980469 -8.015625 3.53125 -8.5 C 4.113281 -9.003906 4.78125 -9.257812 5.542969 -9.257812 C 6.007812 -9.257812 6.390625 -9.160156 6.695312 -8.960938 C 7.023438 -8.746094 7.238281 -8.429688 7.339844 -8.015625 L 6.835938 -7.890625 L 7.335938 -8.035156 C 7.359375 -7.949219 7.382812 -7.84375 7.40625 -7.710938 C 7.417969 -7.636719 7.429688 -7.585938 7.445312 -7.550781 C 7.414062 -7.621094 7.367188 -7.675781 7.296875 -7.71875 C 7.242188 -7.753906 7.183594 -7.773438 7.125 -7.773438 C 7.070312 -7.773438 7.027344 -7.757812 6.996094 -7.726562 C 7.050781 -7.78125 7.109375 -7.863281 7.175781 -7.964844 L 7.613281 -7.683594 L 7.15625 -7.929688 C 7.296875 -8.195312 7.371094 -8.40625 7.371094 -8.558594 C 7.371094 -8.652344 7.351562 -8.734375 7.308594 -8.800781 C 7.265625 -8.878906 7.191406 -8.945312 7.089844 -9.011719 C 6.820312 -9.175781 6.445312 -9.257812 5.960938 -9.257812 C 5.152344 -9.257812 4.390625 -9.015625 3.679688 -8.523438 C 2.949219 -8.023438 2.363281 -7.328125 1.917969 -6.433594 C 1.46875 -5.535156 1.242188 -4.53125 1.242188 -3.417969 C 1.242188 -2.363281 1.445312 -1.585938 1.84375 -1.082031 C 2.21875 -0.617188 2.761719 -0.382812 3.472656 -0.382812 Z M 3.472656 -0.382812 "/></g></g></g><g fill="#7ed957" fill-opacity="1"><g transform="translate(55.745077, 20.473343)"><g><path d="M 0.429688 0.660156 C 0.257812 0.660156 0.109375 0.621094 -0.0117188 0.546875 C -0.109375 0.484375 -0.183594 0.40625 -0.238281 0.304688 C -0.289062 0.210938 -0.3125 0.109375 -0.3125 0 C -0.3125 -0.0976562 -0.273438 -0.277344 -0.191406 -0.539062 L -0.191406 -0.550781 L -0.1875 -0.558594 C -0.101562 -0.804688 -0.046875 -0.988281 -0.0234375 -1.101562 C 0.0664062 -1.582031 0.230469 -2.613281 0.472656 -4.191406 L 0.832031 -6.445312 C 1.023438 -7.582031 1.265625 -8.546875 1.5625 -9.335938 C 1.867188 -10.160156 2.253906 -10.828125 2.726562 -11.351562 C 3.113281 -11.78125 3.496094 -12.074219 3.882812 -12.230469 C 4.230469 -12.367188 4.660156 -12.480469 5.171875 -12.558594 C 5.453125 -12.601562 5.628906 -12.636719 5.707031 -12.652344 C 5.84375 -12.6875 5.945312 -12.703125 6.015625 -12.703125 C 6.109375 -12.703125 6.199219 -12.683594 6.28125 -12.648438 C 6.378906 -12.601562 6.457031 -12.539062 6.519531 -12.453125 C 6.605469 -12.335938 6.648438 -12.195312 6.648438 -12.03125 C 6.648438 -11.851562 6.589844 -11.660156 6.46875 -11.464844 C 6.378906 -11.3125 6.265625 -11.167969 6.132812 -11.035156 L 6.121094 -11.023438 C 5.875 -10.792969 5.53125 -10.675781 5.097656 -10.675781 L 5.097656 -11.195312 L 5.148438 -10.679688 C 4.941406 -10.65625 4.765625 -10.605469 4.621094 -10.515625 C 4.472656 -10.425781 4.320312 -10.269531 4.167969 -10.042969 C 3.933594 -9.691406 3.746094 -9.21875 3.605469 -8.636719 C 3.453125 -8.011719 3.292969 -7.078125 3.128906 -5.835938 L 2.949219 -4.5 L 2.429688 -4.570312 L 2.429688 -5.089844 L 2.445312 -5.089844 L 2.445312 -4.570312 L 2.019531 -4.875 C 2.535156 -5.59375 3.019531 -6.136719 3.472656 -6.507812 C 3.988281 -6.925781 4.484375 -7.132812 4.960938 -7.132812 C 5.359375 -7.132812 5.671875 -6.992188 5.898438 -6.707031 C 6.089844 -6.457031 6.1875 -6.097656 6.1875 -5.625 C 6.1875 -5.324219 6.144531 -4.941406 6.054688 -4.472656 C 5.867188 -3.507812 5.734375 -2.824219 5.648438 -2.421875 L 5.140625 -2.527344 L 5.652344 -2.433594 C 5.539062 -1.808594 5.480469 -1.476562 5.480469 -1.445312 C 5.480469 -1.4375 5.480469 -1.433594 5.480469 -1.429688 C 5.480469 -1.429688 5.480469 -1.429688 5.480469 -1.433594 C 5.472656 -1.460938 5.460938 -1.488281 5.441406 -1.519531 C 5.40625 -1.574219 5.359375 -1.617188 5.300781 -1.648438 C 5.246094 -1.675781 5.195312 -1.6875 5.140625 -1.6875 C 5.101562 -1.6875 5.066406 -1.679688 5.042969 -1.664062 C 5.054688 -1.667969 5.070312 -1.691406 5.09375 -1.726562 C 5.195312 -1.878906 5.316406 -2.121094 5.449219 -2.449219 L 5.933594 -2.25 L 5.441406 -2.425781 C 5.484375 -2.550781 5.542969 -2.65625 5.613281 -2.734375 C 5.746094 -2.890625 5.90625 -2.964844 6.097656 -2.964844 C 6.230469 -2.964844 6.347656 -2.929688 6.453125 -2.855469 C 6.542969 -2.792969 6.613281 -2.707031 6.664062 -2.601562 C 6.71875 -2.488281 6.746094 -2.347656 6.746094 -2.179688 C 6.746094 -1.765625 6.621094 -1.335938 6.375 -0.890625 C 6.136719 -0.464844 5.835938 -0.109375 5.46875 0.179688 C 5.066406 0.5 4.648438 0.660156 4.222656 0.660156 C 3.820312 0.660156 3.507812 0.515625 3.285156 0.222656 C 3.101562 -0.0195312 3.007812 -0.355469 3.007812 -0.777344 C 3.007812 -1.046875 3.039062 -1.367188 3.097656 -1.738281 C 3.15625 -2.085938 3.238281 -2.535156 3.351562 -3.078125 C 3.425781 -3.433594 3.492188 -3.789062 3.550781 -4.140625 C 3.605469 -4.480469 3.636719 -4.753906 3.648438 -4.953125 L 4.167969 -4.933594 L 3.648438 -4.933594 L 3.648438 -5.015625 C 3.648438 -5.019531 3.644531 -5.023438 3.644531 -5.027344 C 3.644531 -5.027344 3.648438 -5.023438 3.648438 -5.019531 C 3.652344 -4.992188 3.664062 -4.960938 3.683594 -4.929688 C 3.71875 -4.871094 3.769531 -4.824219 3.832031 -4.792969 C 3.890625 -4.761719 3.953125 -4.742188 4.015625 -4.742188 C 4.046875 -4.742188 4.074219 -4.75 4.097656 -4.757812 C 4.085938 -4.753906 4.074219 -4.742188 4.050781 -4.726562 C 3.976562 -4.667969 3.882812 -4.574219 3.769531 -4.4375 C 3.519531 -4.140625 3.28125 -3.761719 3.046875 -3.304688 C 2.820312 -2.859375 2.671875 -2.433594 2.597656 -2.03125 L 2.371094 -0.890625 L 2.367188 -0.882812 C 2.277344 -0.488281 2.035156 -0.132812 1.636719 0.183594 C 1.242188 0.5 0.839844 0.660156 0.429688 0.660156 Z M 0.429688 -0.382812 C 0.597656 -0.382812 0.78125 -0.464844 0.988281 -0.628906 C 1.195312 -0.792969 1.316406 -0.957031 1.355469 -1.117188 L 1.863281 -1 L 1.351562 -1.101562 L 1.570312 -2.21875 C 1.664062 -2.722656 1.847656 -3.242188 2.121094 -3.777344 C 2.386719 -4.304688 2.671875 -4.746094 2.96875 -5.105469 C 3.128906 -5.300781 3.28125 -5.449219 3.417969 -5.554688 C 3.621094 -5.710938 3.820312 -5.785156 4.015625 -5.785156 C 4.128906 -5.785156 4.234375 -5.761719 4.332031 -5.707031 C 4.433594 -5.652344 4.511719 -5.574219 4.574219 -5.472656 C 4.652344 -5.347656 4.6875 -5.195312 4.6875 -5.015625 L 4.6875 -4.910156 C 4.679688 -4.667969 4.640625 -4.351562 4.578125 -3.972656 C 4.515625 -3.601562 4.449219 -3.234375 4.371094 -2.867188 C 4.261719 -2.335938 4.179688 -1.90625 4.125 -1.570312 C 4.074219 -1.253906 4.050781 -0.992188 4.050781 -0.777344 C 4.050781 -0.589844 4.074219 -0.464844 4.117188 -0.40625 C 4.128906 -0.390625 4.164062 -0.382812 4.222656 -0.382812 C 4.40625 -0.382812 4.609375 -0.46875 4.824219 -0.636719 C 5.078125 -0.839844 5.292969 -1.09375 5.460938 -1.398438 C 5.621094 -1.6875 5.703125 -1.945312 5.703125 -2.179688 C 5.703125 -2.199219 5.703125 -2.210938 5.699219 -2.214844 C 5.703125 -2.199219 5.710938 -2.179688 5.722656 -2.15625 C 5.75 -2.09375 5.792969 -2.042969 5.851562 -2.003906 C 5.929688 -1.949219 6.007812 -1.925781 6.097656 -1.925781 C 6.226562 -1.925781 6.328125 -1.96875 6.402344 -2.058594 C 6.414062 -2.070312 6.425781 -2.082031 6.429688 -2.09375 C 6.429688 -2.089844 6.425781 -2.085938 6.421875 -2.074219 L 6.414062 -2.050781 C 6.253906 -1.660156 6.101562 -1.359375 5.960938 -1.148438 C 5.738281 -0.8125 5.464844 -0.644531 5.140625 -0.644531 C 5.027344 -0.644531 4.921875 -0.671875 4.824219 -0.71875 C 4.71875 -0.773438 4.632812 -0.851562 4.566406 -0.953125 C 4.480469 -1.085938 4.4375 -1.25 4.4375 -1.445312 C 4.4375 -1.542969 4.5 -1.933594 4.628906 -2.621094 L 4.628906 -2.636719 C 4.710938 -3.03125 4.847656 -3.707031 5.03125 -4.667969 C 5.109375 -5.070312 5.148438 -5.390625 5.148438 -5.625 C 5.148438 -5.761719 5.136719 -5.871094 5.117188 -5.957031 C 5.105469 -6.011719 5.089844 -6.042969 5.078125 -6.0625 C 5.0625 -6.082031 5.023438 -6.089844 4.960938 -6.089844 C 4.730469 -6.089844 4.453125 -5.960938 4.132812 -5.699219 C 3.75 -5.386719 3.328125 -4.910156 2.867188 -4.269531 L 2.714844 -4.050781 L 1.835938 -4.050781 L 2.09375 -5.972656 C 2.265625 -7.25 2.429688 -8.222656 2.589844 -8.882812 C 2.761719 -9.585938 3 -10.167969 3.304688 -10.628906 C 3.542969 -10.976562 3.800781 -11.238281 4.078125 -11.40625 C 4.359375 -11.578125 4.683594 -11.679688 5.046875 -11.714844 L 5.074219 -11.71875 L 5.097656 -11.71875 C 5.257812 -11.71875 5.359375 -11.742188 5.410156 -11.785156 L 5.765625 -11.40625 L 5.398438 -11.773438 C 5.46875 -11.84375 5.527344 -11.921875 5.574219 -12 C 5.589844 -12.027344 5.601562 -12.050781 5.609375 -12.066406 C 5.605469 -12.058594 5.605469 -12.046875 5.605469 -12.03125 C 5.605469 -11.96875 5.628906 -11.90625 5.675781 -11.839844 C 5.722656 -11.777344 5.777344 -11.730469 5.847656 -11.699219 C 5.902344 -11.675781 5.957031 -11.664062 6.015625 -11.664062 C 6.03125 -11.664062 6.042969 -11.664062 6.054688 -11.664062 C 6.054688 -11.664062 6.050781 -11.664062 6.046875 -11.664062 C 6.027344 -11.660156 6 -11.652344 5.960938 -11.644531 C 5.851562 -11.617188 5.644531 -11.578125 5.332031 -11.53125 C 4.898438 -11.460938 4.546875 -11.371094 4.273438 -11.261719 C 4.035156 -11.167969 3.777344 -10.964844 3.5 -10.652344 C 3.117188 -10.230469 2.796875 -9.671875 2.539062 -8.972656 C 2.265625 -8.246094 2.042969 -7.347656 1.863281 -6.28125 L 1.5 -4.035156 C 1.261719 -2.445312 1.089844 -1.398438 0.996094 -0.898438 C 0.964844 -0.734375 0.898438 -0.511719 0.796875 -0.21875 L 0.304688 -0.390625 L 0.804688 -0.238281 C 0.773438 -0.140625 0.753906 -0.0625 0.738281 -0.00390625 C 0.734375 0.015625 0.730469 0.03125 0.726562 0.0429688 C 0.730469 0.0351562 0.730469 0.0195312 0.730469 0 C 0.730469 -0.0625 0.714844 -0.125 0.683594 -0.183594 C 0.648438 -0.25 0.601562 -0.300781 0.539062 -0.335938 C 0.507812 -0.359375 0.472656 -0.375 0.441406 -0.378906 C 0.433594 -0.382812 0.429688 -0.382812 0.425781 -0.382812 C 0.425781 -0.382812 0.425781 -0.382812 0.429688 -0.382812 Z M 0.429688 -0.382812 "/></g></g></g><g fill="#7ed957" fill-opacity="1"><g transform="translate(62.411943, 20.473343)"><g><path d="M 7.015625 -7.96875 C 7.210938 -7.96875 7.386719 -7.929688 7.546875 -7.855469 C 7.71875 -7.773438 7.859375 -7.65625 7.972656 -7.496094 C 8.152344 -7.242188 8.246094 -6.890625 8.246094 -6.445312 C 8.246094 -5.667969 7.980469 -5.066406 7.449219 -4.648438 C 6.957031 -4.257812 6.273438 -4.0625 5.402344 -4.0625 L 5.25 -4.0625 L 5.25 -4.585938 L 5.773438 -4.5625 C 5.742188 -3.785156 5.527344 -2.996094 5.136719 -2.195312 C 4.742188 -1.394531 4.246094 -0.730469 3.644531 -0.199219 C 2.996094 0.375 2.328125 0.660156 1.640625 0.660156 C 1.035156 0.660156 0.554688 0.433594 0.199219 -0.0195312 C -0.121094 -0.433594 -0.285156 -1 -0.285156 -1.722656 C -0.285156 -2.554688 -0.078125 -3.386719 0.332031 -4.21875 C 0.738281 -5.039062 1.25 -5.722656 1.875 -6.261719 C 2.542969 -6.84375 3.207031 -7.132812 3.875 -7.132812 C 4.410156 -7.132812 4.84375 -6.949219 5.183594 -6.574219 C 5.496094 -6.234375 5.6875 -5.777344 5.753906 -5.203125 L 5.238281 -5.140625 L 5.171875 -5.65625 C 5.550781 -5.703125 5.824219 -5.777344 5.996094 -5.871094 C 6.023438 -5.886719 6.042969 -5.90625 6.050781 -5.921875 C 6.070312 -5.957031 6.078125 -6.003906 6.078125 -6.070312 C 6.078125 -6.164062 6.039062 -6.316406 5.957031 -6.523438 L 6.445312 -6.710938 L 5.96875 -6.5 C 5.875 -6.714844 5.828125 -6.886719 5.828125 -7.015625 C 5.828125 -7.292969 5.960938 -7.527344 6.226562 -7.726562 C 6.441406 -7.886719 6.707031 -7.96875 7.015625 -7.96875 Z M 7.015625 -6.925781 C 6.9375 -6.925781 6.878906 -6.914062 6.847656 -6.886719 C 6.835938 -6.882812 6.828125 -6.875 6.824219 -6.871094 C 6.828125 -6.871094 6.828125 -6.875 6.832031 -6.882812 C 6.859375 -6.921875 6.871094 -6.964844 6.871094 -7.015625 C 6.871094 -7.035156 6.867188 -7.054688 6.863281 -7.070312 C 6.867188 -7.070312 6.867188 -7.0625 6.871094 -7.054688 C 6.878906 -7.023438 6.898438 -6.976562 6.921875 -6.917969 L 6.929688 -6.90625 L 6.933594 -6.894531 C 7.058594 -6.566406 7.121094 -6.292969 7.121094 -6.070312 C 7.121094 -5.832031 7.070312 -5.617188 6.972656 -5.433594 C 6.867188 -5.234375 6.710938 -5.078125 6.507812 -4.964844 C 6.214844 -4.800781 5.8125 -4.6875 5.300781 -4.621094 L 4.78125 -4.558594 L 4.71875 -5.078125 C 4.675781 -5.429688 4.574219 -5.695312 4.414062 -5.871094 C 4.28125 -6.019531 4.101562 -6.089844 3.875 -6.089844 C 3.46875 -6.089844 3.03125 -5.886719 2.558594 -5.476562 C 2.039062 -5.027344 1.609375 -4.453125 1.265625 -3.757812 C 0.925781 -3.070312 0.757812 -2.390625 0.757812 -1.722656 C 0.757812 -1.242188 0.84375 -0.886719 1.023438 -0.660156 C 1.167969 -0.476562 1.375 -0.382812 1.640625 -0.382812 C 2.0625 -0.382812 2.503906 -0.582031 2.953125 -0.980469 C 3.453125 -1.421875 3.867188 -1.980469 4.199219 -2.652344 C 4.527344 -3.324219 4.707031 -3.972656 4.730469 -4.605469 L 4.75 -5.105469 L 5.402344 -5.105469 C 6.035156 -5.105469 6.5 -5.226562 6.804688 -5.464844 C 7.070312 -5.675781 7.203125 -6.003906 7.203125 -6.445312 C 7.203125 -6.667969 7.175781 -6.820312 7.121094 -6.894531 C 7.105469 -6.914062 7.070312 -6.925781 7.015625 -6.925781 Z M 2.390625 -1.589844 C 2.480469 -1.589844 2.578125 -1.660156 2.6875 -1.800781 C 2.855469 -2.015625 2.992188 -2.320312 3.09375 -2.714844 C 3.203125 -3.136719 3.257812 -3.597656 3.257812 -4.097656 C 3.257812 -4.480469 3.226562 -4.734375 3.160156 -4.867188 C 3.152344 -4.878906 3.148438 -4.890625 3.140625 -4.894531 C 3.140625 -4.894531 3.144531 -4.890625 3.148438 -4.890625 C 3.152344 -4.886719 3.160156 -4.882812 3.164062 -4.882812 C 3.160156 -4.882812 3.15625 -4.882812 3.152344 -4.882812 C 3.0625 -4.882812 2.960938 -4.816406 2.847656 -4.683594 C 2.679688 -4.484375 2.535156 -4.195312 2.421875 -3.824219 C 2.304688 -3.425781 2.242188 -2.980469 2.242188 -2.488281 C 2.242188 -2.09375 2.28125 -1.8125 2.359375 -1.644531 C 2.378906 -1.609375 2.390625 -1.589844 2.398438 -1.582031 C 2.394531 -1.585938 2.390625 -1.589844 2.382812 -1.589844 C 2.382812 -1.589844 2.386719 -1.589844 2.390625 -1.589844 Z M 2.390625 -0.546875 C 2.167969 -0.546875 1.96875 -0.609375 1.796875 -0.734375 C 1.636719 -0.84375 1.511719 -1 1.417969 -1.203125 C 1.273438 -1.507812 1.203125 -1.9375 1.203125 -2.488281 C 1.203125 -3.085938 1.277344 -3.628906 1.425781 -4.125 C 1.582031 -4.636719 1.789062 -5.050781 2.054688 -5.359375 C 2.378906 -5.738281 2.742188 -5.925781 3.152344 -5.925781 C 3.363281 -5.925781 3.550781 -5.871094 3.714844 -5.765625 C 3.871094 -5.664062 4 -5.519531 4.09375 -5.332031 C 4.230469 -5.054688 4.300781 -4.644531 4.300781 -4.097656 C 4.300781 -3.507812 4.234375 -2.957031 4.101562 -2.453125 C 3.964844 -1.921875 3.765625 -1.488281 3.507812 -1.160156 C 3.191406 -0.753906 2.820312 -0.546875 2.390625 -0.546875 Z M 2.390625 -0.546875 "/></g></g></g><g fill="#7ed957" fill-opacity="1"><g transform="translate(70.176067, 20.473343)"><g><path d="M 2.152344 -6.5625 C 1.921875 -6.5625 1.746094 -6.640625 1.621094 -6.792969 C 1.507812 -6.933594 1.46875 -7.113281 1.5 -7.324219 L 1.5 -7.335938 L 1.695312 -8.441406 C 1.773438 -8.855469 1.960938 -9.195312 2.253906 -9.453125 C 2.554688 -9.722656 2.960938 -9.855469 3.472656 -9.855469 L 3.585938 -9.855469 C 3.789062 -9.855469 3.953125 -9.785156 4.082031 -9.648438 C 4.207031 -9.507812 4.261719 -9.339844 4.242188 -9.136719 L 4.238281 -9.113281 L 4.042969 -7.996094 C 3.964844 -7.53125 3.765625 -7.175781 3.445312 -6.925781 C 3.140625 -6.683594 2.742188 -6.5625 2.25 -6.5625 Z M 2.152344 -7.605469 L 2.25 -7.605469 C 2.5 -7.605469 2.6875 -7.652344 2.804688 -7.746094 C 2.910156 -7.828125 2.980469 -7.972656 3.015625 -8.175781 L 3.210938 -9.273438 L 3.722656 -9.183594 L 3.203125 -9.230469 C 3.203125 -9.199219 3.203125 -9.164062 3.214844 -9.125 C 3.230469 -9.058594 3.261719 -9 3.308594 -8.945312 C 3.359375 -8.894531 3.414062 -8.855469 3.480469 -8.832031 C 3.515625 -8.820312 3.550781 -8.8125 3.585938 -8.8125 L 3.472656 -8.8125 C 3.226562 -8.8125 3.046875 -8.769531 2.945312 -8.675781 C 2.828125 -8.574219 2.753906 -8.433594 2.722656 -8.257812 L 2.527344 -7.160156 L 2.015625 -7.25 L 2.53125 -7.179688 C 2.53125 -7.1875 2.53125 -7.203125 2.527344 -7.226562 C 2.519531 -7.304688 2.488281 -7.378906 2.433594 -7.445312 C 2.375 -7.519531 2.300781 -7.570312 2.210938 -7.597656 C 2.1875 -7.601562 2.167969 -7.605469 2.152344 -7.605469 Z M 1.570312 0.660156 C 1.167969 0.660156 0.859375 0.511719 0.640625 0.21875 C 0.457031 -0.0234375 0.367188 -0.359375 0.367188 -0.777344 C 0.367188 -0.972656 0.394531 -1.222656 0.445312 -1.53125 L 0.445312 -1.539062 L 1.113281 -4.90625 L 1.625 -4.808594 L 1.109375 -4.863281 C 1.125 -5.011719 1.132812 -5.09375 1.132812 -5.113281 C 1.132812 -5.109375 1.132812 -5.101562 1.136719 -5.089844 C 1.144531 -5.050781 1.160156 -5.011719 1.183594 -4.976562 C 1.222656 -4.914062 1.277344 -4.867188 1.34375 -4.832031 C 1.402344 -4.800781 1.464844 -4.785156 1.527344 -4.785156 C 1.59375 -4.785156 1.648438 -4.800781 1.6875 -4.828125 C 1.679688 -4.820312 1.664062 -4.804688 1.636719 -4.773438 C 1.546875 -4.660156 1.417969 -4.464844 1.257812 -4.183594 L 0.804688 -4.445312 L 1.273438 -4.210938 C 1.261719 -4.1875 1.238281 -4.144531 1.203125 -4.082031 C 1.144531 -3.976562 1.085938 -3.890625 1.019531 -3.828125 C 0.890625 -3.699219 0.742188 -3.632812 0.570312 -3.632812 C 0.453125 -3.632812 0.347656 -3.660156 0.25 -3.71875 C 0.152344 -3.777344 0.078125 -3.855469 0.0234375 -3.953125 C -0.0429688 -4.070312 -0.078125 -4.210938 -0.078125 -4.375 C -0.078125 -4.734375 0.0625 -5.132812 0.335938 -5.574219 C 0.589844 -5.984375 0.910156 -6.335938 1.292969 -6.636719 C 1.71875 -6.96875 2.148438 -7.132812 2.582031 -7.132812 C 2.953125 -7.132812 3.238281 -7 3.4375 -6.730469 C 3.605469 -6.507812 3.6875 -6.210938 3.6875 -5.835938 C 3.6875 -5.65625 3.652344 -5.371094 3.582031 -4.980469 L 2.882812 -1.375 L 2.882812 -1.359375 C 2.875 -1.335938 2.871094 -1.3125 2.867188 -1.300781 L 2.867188 -1.296875 C 2.867188 -1.308594 2.867188 -1.320312 2.867188 -1.332031 C 2.867188 -1.414062 2.835938 -1.488281 2.769531 -1.5625 C 2.691406 -1.644531 2.601562 -1.6875 2.5 -1.6875 C 2.46875 -1.6875 2.4375 -1.683594 2.410156 -1.671875 C 2.398438 -1.667969 2.394531 -1.667969 2.390625 -1.664062 C 2.417969 -1.683594 2.457031 -1.722656 2.5 -1.78125 C 2.625 -1.9375 2.746094 -2.160156 2.867188 -2.449219 L 3.347656 -2.25 L 2.855469 -2.425781 C 2.902344 -2.550781 2.960938 -2.65625 3.027344 -2.734375 C 3.160156 -2.890625 3.324219 -2.964844 3.515625 -2.964844 C 3.636719 -2.964844 3.746094 -2.933594 3.847656 -2.871094 C 3.941406 -2.8125 4.015625 -2.730469 4.070312 -2.628906 C 4.128906 -2.515625 4.160156 -2.375 4.160156 -2.207031 C 4.160156 -1.789062 4.03125 -1.359375 3.769531 -0.910156 C 3.523438 -0.488281 3.214844 -0.132812 2.847656 0.164062 C 2.433594 0.496094 2.007812 0.660156 1.570312 0.660156 Z M 1.570312 -0.382812 C 1.761719 -0.382812 1.972656 -0.472656 2.195312 -0.652344 C 2.464844 -0.863281 2.691406 -1.125 2.871094 -1.4375 C 3.035156 -1.722656 3.117188 -1.976562 3.117188 -2.207031 C 3.117188 -2.214844 3.117188 -2.222656 3.117188 -2.226562 L 3.117188 -2.222656 C 3.121094 -2.199219 3.132812 -2.171875 3.148438 -2.140625 C 3.179688 -2.078125 3.230469 -2.027344 3.292969 -1.988281 C 3.359375 -1.945312 3.433594 -1.925781 3.515625 -1.925781 C 3.640625 -1.925781 3.742188 -1.96875 3.820312 -2.058594 C 3.832031 -2.070312 3.839844 -2.082031 3.847656 -2.09375 C 3.84375 -2.089844 3.84375 -2.085938 3.839844 -2.074219 L 3.835938 -2.0625 L 3.828125 -2.050781 C 3.671875 -1.671875 3.503906 -1.367188 3.320312 -1.136719 C 3.0625 -0.808594 2.789062 -0.644531 2.5 -0.644531 C 2.296875 -0.644531 2.128906 -0.714844 2 -0.855469 C 1.886719 -0.984375 1.828125 -1.144531 1.828125 -1.332031 C 1.828125 -1.402344 1.839844 -1.496094 1.871094 -1.613281 L 2.375 -1.488281 L 1.863281 -1.585938 L 2.558594 -5.164062 C 2.617188 -5.492188 2.644531 -5.71875 2.644531 -5.835938 C 2.644531 -5.921875 2.640625 -5.992188 2.625 -6.046875 C 2.617188 -6.078125 2.609375 -6.097656 2.605469 -6.105469 C 2.609375 -6.097656 2.617188 -6.09375 2.628906 -6.085938 C 2.621094 -6.089844 2.609375 -6.089844 2.582031 -6.089844 C 2.386719 -6.089844 2.171875 -6 1.929688 -5.8125 C 1.648438 -5.589844 1.410156 -5.328125 1.21875 -5.023438 C 1.050781 -4.753906 0.964844 -4.535156 0.964844 -4.375 C 0.960938 -4.402344 0.949219 -4.433594 0.929688 -4.464844 C 0.894531 -4.527344 0.84375 -4.578125 0.78125 -4.617188 C 0.714844 -4.65625 0.644531 -4.675781 0.570312 -4.675781 C 0.453125 -4.675781 0.359375 -4.636719 0.285156 -4.5625 C 0.277344 -4.554688 0.269531 -4.546875 0.265625 -4.542969 C 0.269531 -4.550781 0.277344 -4.5625 0.285156 -4.574219 C 0.3125 -4.628906 0.332031 -4.664062 0.339844 -4.679688 L 0.347656 -4.691406 L 0.355469 -4.707031 C 0.542969 -5.035156 0.703125 -5.28125 0.835938 -5.4375 C 1.050781 -5.699219 1.28125 -5.828125 1.527344 -5.828125 C 1.632812 -5.828125 1.730469 -5.804688 1.824219 -5.757812 C 1.921875 -5.707031 2 -5.632812 2.058594 -5.539062 C 2.136719 -5.421875 2.175781 -5.277344 2.175781 -5.113281 C 2.175781 -5.054688 2.164062 -4.933594 2.144531 -4.75 L 2.140625 -4.726562 L 1.46875 -1.34375 L 0.957031 -1.445312 L 1.472656 -1.359375 C 1.429688 -1.109375 1.410156 -0.914062 1.410156 -0.777344 C 1.410156 -0.585938 1.433594 -0.460938 1.476562 -0.402344 C 1.488281 -0.386719 1.519531 -0.382812 1.570312 -0.382812 Z M 1.570312 -0.382812 "/></g></g></g><g fill="#7ed957" fill-opacity="1"><g transform="translate(74.34286, 20.473343)"><g/></g></g><g fill="#7ed957" fill-opacity="1"><g transform="translate(78.231868, 20.473343)"><g><path d="M 0.527344 0.519531 C 0.410156 0.519531 0.300781 0.488281 0.203125 0.421875 C 0.113281 0.363281 0.046875 0.289062 0 0.191406 C -0.0507812 0.0898438 -0.078125 -0.0273438 -0.078125 -0.167969 C -0.078125 -0.394531 -0.015625 -0.609375 0.105469 -0.804688 C 0.203125 -0.957031 0.34375 -1.117188 0.53125 -1.28125 L 0.875 -0.890625 L 0.507812 -1.257812 C 0.640625 -1.390625 0.730469 -1.488281 0.785156 -1.554688 C 0.8125 -1.589844 0.839844 -1.660156 0.871094 -1.757812 C 0.917969 -1.902344 0.976562 -2.125 1.046875 -2.4375 L 2.308594 -8.511719 L 2.820312 -8.40625 L 2.820312 -7.882812 L 2.738281 -7.882812 C 2.667969 -7.882812 2.550781 -7.894531 2.378906 -7.914062 L 2.363281 -7.917969 L 2.34375 -7.921875 C 2.191406 -7.953125 2.03125 -7.96875 1.863281 -7.96875 C 1.660156 -7.96875 1.503906 -7.941406 1.386719 -7.894531 C 1.292969 -7.855469 1.199219 -7.777344 1.109375 -7.660156 L 0.695312 -7.972656 L 1.117188 -7.671875 C 1.050781 -7.574219 0.980469 -7.492188 0.90625 -7.425781 C 0.757812 -7.296875 0.601562 -7.230469 0.429688 -7.230469 C 0.234375 -7.230469 0.0742188 -7.300781 -0.0507812 -7.4375 C -0.160156 -7.558594 -0.214844 -7.710938 -0.214844 -7.890625 C -0.214844 -8.039062 -0.199219 -8.167969 -0.160156 -8.277344 L 0.332031 -8.113281 L -0.179688 -8.214844 C -0.0585938 -8.816406 0.234375 -9.292969 0.699219 -9.648438 C 1.152344 -9.992188 1.710938 -10.164062 2.375 -10.164062 C 2.5 -10.164062 2.6875 -10.152344 2.945312 -10.132812 L 2.957031 -10.132812 L 2.972656 -10.128906 C 3.160156 -10.105469 3.359375 -10.09375 3.570312 -10.09375 C 3.640625 -10.09375 3.832031 -10.105469 4.152344 -10.132812 L 4.195312 -9.613281 L 4.136719 -10.132812 C 4.324219 -10.152344 4.457031 -10.164062 4.542969 -10.164062 L 5.105469 -10.164062 L 5.0625 -9.601562 C 5.042969 -9.375 5.035156 -9.179688 5.035156 -9.015625 C 5.035156 -8.707031 5.074219 -8.339844 5.152344 -7.921875 C 5.234375 -7.480469 5.367188 -6.859375 5.550781 -6.0625 L 5.980469 -4.214844 L 5.472656 -4.097656 L 5.964844 -4.269531 C 6.042969 -4.050781 6.09375 -3.855469 6.113281 -3.679688 L 5.597656 -3.613281 L 5.144531 -3.863281 C 6.09375 -5.582031 6.722656 -6.738281 7.03125 -7.332031 C 7.339844 -7.921875 7.597656 -8.445312 7.804688 -8.898438 L 7.8125 -8.914062 C 7.921875 -9.128906 8.003906 -9.308594 8.066406 -9.445312 L 8.070312 -9.457031 L 8.074219 -9.464844 C 8.460938 -10.257812 8.816406 -10.863281 9.136719 -11.28125 C 9.488281 -11.734375 9.910156 -12.078125 10.398438 -12.316406 C 10.722656 -12.480469 11.070312 -12.589844 11.441406 -12.644531 C 11.78125 -12.695312 12.171875 -12.71875 12.613281 -12.71875 C 12.765625 -12.71875 12.863281 -12.726562 12.910156 -12.742188 L 12.925781 -12.75 L 12.941406 -12.753906 C 12.992188 -12.765625 13.03125 -12.78125 13.058594 -12.792969 C 13.167969 -12.835938 13.269531 -12.855469 13.363281 -12.855469 C 13.457031 -12.855469 13.546875 -12.839844 13.628906 -12.800781 C 13.726562 -12.757812 13.804688 -12.691406 13.867188 -12.605469 C 13.953125 -12.488281 13.996094 -12.347656 13.996094 -12.183594 C 13.996094 -11.820312 13.816406 -11.496094 13.453125 -11.207031 C 13.125 -10.945312 12.773438 -10.816406 12.390625 -10.816406 L 12.390625 -11.335938 L 12.40625 -10.816406 C 12.121094 -10.804688 11.890625 -10.789062 11.714844 -10.765625 C 11.570312 -10.742188 11.425781 -10.703125 11.285156 -10.636719 C 11.058594 -10.53125 10.878906 -10.320312 10.746094 -10.007812 C 10.578125 -9.613281 10.4375 -9.007812 10.324219 -8.195312 L 10.324219 -8.1875 L 10.320312 -8.183594 C 10.257812 -7.792969 10.203125 -7.359375 10.152344 -6.878906 C 10.101562 -6.390625 10.054688 -5.882812 10.007812 -5.359375 C 9.886719 -4 9.769531 -2.867188 9.65625 -1.964844 L 9.140625 -2.027344 L 9.660156 -2 C 9.648438 -1.765625 9.601562 -1.546875 9.515625 -1.347656 C 9.425781 -1.132812 9.308594 -0.960938 9.167969 -0.832031 L 8.820312 -1.222656 L 9.34375 -1.222656 L 9.34375 -1.207031 L 8.820312 -1.207031 L 9.054688 -1.675781 C 9.167969 -1.617188 9.273438 -1.589844 9.378906 -1.589844 C 9.441406 -1.589844 9.511719 -1.605469 9.589844 -1.632812 C 9.78125 -1.707031 9.929688 -1.742188 10.03125 -1.742188 C 10.242188 -1.742188 10.40625 -1.664062 10.523438 -1.507812 C 10.605469 -1.394531 10.648438 -1.253906 10.648438 -1.082031 C 10.648438 -0.828125 10.546875 -0.589844 10.34375 -0.367188 L 9.960938 -0.722656 L 10.375 -0.40625 C 9.898438 0.210938 9.398438 0.519531 8.878906 0.519531 C 8.699219 0.519531 8.472656 0.480469 8.195312 0.40625 L 8.171875 0.398438 C 8.15625 0.390625 8.082031 0.371094 7.945312 0.339844 C 7.839844 0.3125 7.730469 0.300781 7.625 0.300781 C 7.503906 0.300781 7.390625 0.320312 7.285156 0.367188 C 7.046875 0.46875 6.875 0.519531 6.765625 0.519531 C 6.65625 0.519531 6.554688 0.496094 6.464844 0.441406 C 6.371094 0.390625 6.296875 0.316406 6.242188 0.222656 C 6.179688 0.113281 6.148438 -0.015625 6.148438 -0.167969 C 6.148438 -0.585938 6.363281 -0.964844 6.792969 -1.300781 L 7.042969 -1.496094 C 7.125 -1.558594 7.171875 -1.597656 7.1875 -1.613281 C 7.167969 -1.589844 7.152344 -1.5625 7.144531 -1.539062 C 7.144531 -1.542969 7.148438 -1.554688 7.148438 -1.570312 L 7.175781 -1.871094 C 7.324219 -3.488281 7.429688 -4.507812 7.484375 -4.9375 C 7.539062 -5.355469 7.601562 -5.855469 7.664062 -6.433594 L 8.183594 -6.375 L 8.183594 -5.855469 L 8.167969 -5.855469 L 8.167969 -6.375 L 8.609375 -6.101562 C 8.230469 -5.492188 7.832031 -4.789062 7.425781 -3.984375 C 7.015625 -3.1875 6.683594 -2.460938 6.429688 -1.8125 L 6.414062 -1.769531 L 6.394531 -1.734375 C 6.175781 -1.367188 5.921875 -1.011719 5.628906 -0.664062 C 5.472656 -0.480469 5.339844 -0.339844 5.226562 -0.242188 C 5.035156 -0.0742188 4.847656 0.0078125 4.667969 0.0078125 C 4.535156 0.0078125 4.414062 -0.0351562 4.3125 -0.113281 C 4.230469 -0.179688 4.167969 -0.257812 4.125 -0.355469 C 4.085938 -0.457031 4.0625 -0.566406 4.0625 -0.695312 L 4.585938 -0.695312 L 4.066406 -0.636719 C 3.992188 -1.300781 3.933594 -1.785156 3.894531 -2.089844 C 3.855469 -2.386719 3.765625 -2.84375 3.632812 -3.457031 L 3.347656 -4.675781 C 3.222656 -5.21875 3.128906 -5.644531 3.070312 -5.945312 L 3.585938 -6.042969 L 3.214844 -5.675781 L 3.203125 -5.6875 L 3.570312 -6.058594 L 4.082031 -5.953125 L 3.226562 -1.714844 L 3.21875 -1.683594 C 3.210938 -1.660156 3.179688 -1.566406 3.132812 -1.402344 C 3.050781 -1.132812 2.9375 -0.933594 2.789062 -0.800781 L 2.445312 -1.195312 L 2.964844 -1.195312 L 2.964844 -1.167969 L 2.445312 -1.167969 L 2.625 -1.65625 C 2.742188 -1.613281 2.851562 -1.589844 2.945312 -1.589844 C 3.003906 -1.589844 3.054688 -1.597656 3.089844 -1.617188 C 3.265625 -1.699219 3.414062 -1.742188 3.527344 -1.742188 C 3.734375 -1.742188 3.894531 -1.667969 4.019531 -1.511719 C 4.113281 -1.394531 4.160156 -1.25 4.160156 -1.082031 C 4.160156 -0.890625 4.074219 -0.667969 3.898438 -0.421875 C 3.65625 -0.0898438 3.4375 0.140625 3.242188 0.277344 C 3.003906 0.441406 2.738281 0.519531 2.445312 0.519531 C 2.25 0.519531 2.027344 0.472656 1.777344 0.371094 L 1.972656 -0.109375 L 1.808594 0.382812 C 1.640625 0.328125 1.507812 0.300781 1.417969 0.300781 C 1.273438 0.300781 1.148438 0.324219 1.035156 0.371094 C 0.941406 0.410156 0.863281 0.441406 0.804688 0.460938 C 0.695312 0.5 0.601562 0.519531 0.527344 0.519531 Z M 0.527344 -0.519531 C 0.484375 -0.519531 0.449219 -0.515625 0.417969 -0.507812 C 0.425781 -0.507812 0.433594 -0.511719 0.445312 -0.515625 C 0.488281 -0.53125 0.550781 -0.558594 0.632812 -0.589844 C 0.871094 -0.691406 1.132812 -0.742188 1.417969 -0.742188 C 1.621094 -0.742188 1.863281 -0.699219 2.136719 -0.605469 L 2.152344 -0.601562 L 2.167969 -0.59375 C 2.289062 -0.546875 2.382812 -0.519531 2.445312 -0.519531 C 2.523438 -0.519531 2.589844 -0.542969 2.648438 -0.582031 C 2.75 -0.652344 2.882812 -0.796875 3.046875 -1.023438 C 3.085938 -1.074219 3.109375 -1.117188 3.125 -1.148438 L 3.125 -1.152344 C 3.121094 -1.132812 3.117188 -1.109375 3.117188 -1.082031 C 3.117188 -1.007812 3.148438 -0.933594 3.203125 -0.863281 C 3.289062 -0.753906 3.398438 -0.703125 3.527344 -0.703125 C 3.570312 -0.703125 3.601562 -0.703125 3.621094 -0.710938 C 3.601562 -0.707031 3.574219 -0.695312 3.539062 -0.675781 C 3.359375 -0.589844 3.164062 -0.546875 2.945312 -0.546875 C 2.726562 -0.546875 2.5 -0.589844 2.265625 -0.679688 L 1.925781 -0.804688 L 1.925781 -1.429688 L 2.101562 -1.585938 C 2.09375 -1.578125 2.085938 -1.570312 2.082031 -1.566406 C 2.082031 -1.566406 2.082031 -1.570312 2.085938 -1.574219 C 2.101562 -1.605469 2.117188 -1.644531 2.132812 -1.699219 C 2.1875 -1.875 2.21875 -1.980469 2.226562 -2.011719 L 2.722656 -1.847656 L 2.210938 -1.949219 L 3.25 -7.113281 L 4.066406 -6.296875 L 4.097656 -6.140625 C 4.152344 -5.851562 4.238281 -5.441406 4.363281 -4.910156 L 4.648438 -3.683594 C 4.789062 -3.039062 4.882812 -2.554688 4.925781 -2.230469 C 4.96875 -1.914062 5.027344 -1.421875 5.101562 -0.753906 L 5.105469 -0.722656 L 5.105469 -0.695312 C 5.105469 -0.710938 5.097656 -0.734375 5.085938 -0.769531 C 5.054688 -0.835938 5.011719 -0.890625 4.953125 -0.9375 C 4.867188 -1.003906 4.773438 -1.035156 4.667969 -1.035156 C 4.601562 -1.035156 4.546875 -1.023438 4.503906 -1 C 4.511719 -1.003906 4.523438 -1.011719 4.542969 -1.03125 C 4.617188 -1.09375 4.714844 -1.195312 4.832031 -1.335938 C 5.085938 -1.636719 5.308594 -1.949219 5.496094 -2.265625 L 5.945312 -2 L 5.460938 -2.1875 C 5.726562 -2.871094 6.070312 -3.628906 6.496094 -4.460938 C 6.917969 -5.289062 7.328125 -6.019531 7.726562 -6.652344 L 7.878906 -6.898438 L 8.765625 -6.898438 L 8.699219 -6.320312 C 8.636719 -5.730469 8.574219 -5.226562 8.519531 -4.800781 C 8.464844 -4.386719 8.363281 -3.375 8.214844 -1.769531 L 8.1875 -1.484375 C 8.167969 -1.265625 8.105469 -1.089844 7.996094 -0.953125 C 7.925781 -0.871094 7.824219 -0.777344 7.683594 -0.671875 L 7.433594 -0.476562 C 7.269531 -0.351562 7.1875 -0.246094 7.1875 -0.167969 C 7.1875 -0.203125 7.171875 -0.25 7.144531 -0.304688 C 7.105469 -0.371094 7.050781 -0.421875 6.980469 -0.464844 C 6.914062 -0.5 6.839844 -0.519531 6.765625 -0.519531 C 6.730469 -0.519531 6.699219 -0.519531 6.671875 -0.511719 C 6.675781 -0.511719 6.683594 -0.515625 6.695312 -0.519531 C 6.738281 -0.535156 6.796875 -0.558594 6.871094 -0.589844 C 7.109375 -0.691406 7.359375 -0.742188 7.625 -0.742188 C 7.816406 -0.742188 8.007812 -0.71875 8.199219 -0.671875 C 8.359375 -0.632812 8.460938 -0.605469 8.5 -0.589844 L 8.335938 -0.0976562 L 8.476562 -0.597656 C 8.660156 -0.546875 8.796875 -0.519531 8.878906 -0.519531 C 8.949219 -0.519531 9.03125 -0.550781 9.121094 -0.613281 C 9.253906 -0.703125 9.398438 -0.84375 9.546875 -1.039062 L 9.5625 -1.058594 L 9.578125 -1.074219 C 9.597656 -1.097656 9.609375 -1.109375 9.613281 -1.121094 C 9.609375 -1.113281 9.605469 -1.101562 9.605469 -1.082031 C 9.605469 -1.078125 9.609375 -1.070312 9.609375 -1.058594 C 9.621094 -0.996094 9.648438 -0.9375 9.691406 -0.882812 C 9.746094 -0.808594 9.8125 -0.757812 9.898438 -0.726562 C 9.945312 -0.710938 9.988281 -0.703125 10.03125 -0.703125 C 10.054688 -0.703125 10.078125 -0.703125 10.097656 -0.707031 C 10.097656 -0.707031 10.09375 -0.707031 10.085938 -0.703125 C 10.054688 -0.695312 10.011719 -0.679688 9.957031 -0.660156 C 9.765625 -0.585938 9.570312 -0.546875 9.378906 -0.546875 C 9.109375 -0.546875 8.847656 -0.613281 8.589844 -0.742188 L 8.300781 -0.886719 L 8.300781 -1.457031 L 8.476562 -1.613281 C 8.5 -1.632812 8.527344 -1.679688 8.554688 -1.75 C 8.59375 -1.839844 8.613281 -1.941406 8.621094 -2.054688 L 8.621094 -2.074219 L 8.625 -2.09375 C 8.734375 -2.984375 8.847656 -4.105469 8.96875 -5.449219 C 9.015625 -5.980469 9.066406 -6.492188 9.117188 -6.984375 C 9.167969 -7.488281 9.226562 -7.941406 9.292969 -8.347656 L 9.808594 -8.265625 L 9.292969 -8.339844 C 9.417969 -9.246094 9.582031 -9.9375 9.785156 -10.414062 C 10.023438 -10.972656 10.378906 -11.363281 10.859375 -11.589844 C 11.089844 -11.691406 11.324219 -11.761719 11.566406 -11.796875 C 11.78125 -11.828125 12.050781 -11.847656 12.375 -11.855469 L 12.390625 -11.855469 C 12.527344 -11.855469 12.667969 -11.910156 12.800781 -12.019531 C 12.871094 -12.074219 12.917969 -12.125 12.945312 -12.167969 C 12.949219 -12.175781 12.953125 -12.183594 12.953125 -12.1875 C 12.953125 -12.1875 12.953125 -12.1875 12.953125 -12.183594 C 12.953125 -12.121094 12.976562 -12.058594 13.027344 -11.992188 C 13.070312 -11.929688 13.125 -11.882812 13.195312 -11.851562 C 13.25 -11.828125 13.308594 -11.816406 13.363281 -11.816406 C 13.394531 -11.816406 13.417969 -11.816406 13.441406 -11.824219 C 13.445312 -11.824219 13.449219 -11.824219 13.449219 -11.824219 C 13.449219 -11.824219 13.449219 -11.824219 13.445312 -11.824219 C 13.382812 -11.800781 13.3125 -11.773438 13.230469 -11.75 L 13.085938 -12.253906 L 13.265625 -11.761719 C 13.105469 -11.707031 12.886719 -11.675781 12.613281 -11.675781 C 12.222656 -11.675781 11.882812 -11.65625 11.59375 -11.613281 C 11.332031 -11.574219 11.085938 -11.496094 10.855469 -11.382812 C 10.511719 -11.214844 10.214844 -10.96875 9.964844 -10.640625 C 9.683594 -10.28125 9.367188 -9.738281 9.011719 -9.007812 L 8.542969 -9.238281 L 9.019531 -9.03125 C 8.953125 -8.871094 8.859375 -8.679688 8.746094 -8.449219 L 8.28125 -8.683594 L 8.753906 -8.464844 C 8.535156 -7.996094 8.269531 -7.457031 7.957031 -6.851562 C 7.644531 -6.25 7.011719 -5.085938 6.054688 -3.359375 L 5.289062 -1.980469 L 5.082031 -3.542969 C 5.066406 -3.648438 5.035156 -3.773438 4.980469 -3.925781 L 4.972656 -3.953125 L 4.535156 -5.828125 C 4.347656 -6.640625 4.210938 -7.277344 4.128906 -7.734375 C 4.039062 -8.214844 3.992188 -8.640625 3.992188 -9.015625 C 3.992188 -9.207031 4.003906 -9.425781 4.023438 -9.679688 L 4.542969 -9.640625 L 4.542969 -9.121094 C 4.496094 -9.121094 4.402344 -9.113281 4.253906 -9.09375 L 4.238281 -9.09375 C 3.890625 -9.066406 3.667969 -9.050781 3.570312 -9.050781 C 3.316406 -9.050781 3.070312 -9.066406 2.835938 -9.097656 L 2.902344 -9.613281 L 2.863281 -9.09375 C 2.636719 -9.109375 2.472656 -9.121094 2.375 -9.121094 C 1.945312 -9.121094 1.597656 -9.019531 1.328125 -8.816406 C 1.074219 -8.621094 0.910156 -8.355469 0.84375 -8.011719 L 0.839844 -7.980469 L 0.828125 -7.949219 C 0.828125 -7.933594 0.828125 -7.914062 0.828125 -7.890625 C 0.828125 -7.976562 0.792969 -8.058594 0.722656 -8.136719 C 0.640625 -8.226562 0.542969 -8.273438 0.429688 -8.273438 C 0.367188 -8.273438 0.308594 -8.261719 0.257812 -8.234375 C 0.234375 -8.222656 0.21875 -8.210938 0.207031 -8.203125 C 0.226562 -8.21875 0.246094 -8.242188 0.269531 -8.277344 L 0.273438 -8.285156 L 0.28125 -8.289062 C 0.484375 -8.558594 0.722656 -8.75 0.988281 -8.859375 C 1.234375 -8.960938 1.523438 -9.007812 1.863281 -9.007812 C 2.101562 -9.007812 2.328125 -8.988281 2.546875 -8.945312 L 2.445312 -8.433594 L 2.507812 -8.949219 C 2.636719 -8.933594 2.710938 -8.925781 2.738281 -8.925781 L 3.460938 -8.925781 L 2.0625 -2.203125 C 1.988281 -1.863281 1.917969 -1.609375 1.863281 -1.4375 C 1.792969 -1.222656 1.707031 -1.046875 1.605469 -0.917969 C 1.527344 -0.816406 1.40625 -0.683594 1.242188 -0.519531 L 1.21875 -0.496094 C 1.109375 -0.402344 1.03125 -0.320312 0.992188 -0.25 C 0.972656 -0.226562 0.964844 -0.195312 0.964844 -0.167969 L 0.964844 -0.164062 C 0.964844 -0.167969 0.964844 -0.171875 0.964844 -0.179688 C 0.957031 -0.210938 0.949219 -0.242188 0.929688 -0.273438 C 0.898438 -0.34375 0.847656 -0.398438 0.78125 -0.445312 C 0.703125 -0.496094 0.621094 -0.519531 0.527344 -0.519531 Z M 0.527344 -0.519531 "/></g></g></g><g fill="#7ed957" fill-opacity="1"><g transform="translate(88.759854, 20.473343)"><g><path d="M 7.015625 -7.96875 C 7.210938 -7.96875 7.386719 -7.929688 7.546875 -7.855469 C 7.71875 -7.773438 7.859375 -7.65625 7.972656 -7.496094 C 8.152344 -7.242188 8.246094 -6.890625 8.246094 -6.445312 C 8.246094 -5.667969 7.980469 -5.066406 7.449219 -4.648438 C 6.957031 -4.257812 6.273438 -4.0625 5.402344 -4.0625 L 5.25 -4.0625 L 5.25 -4.585938 L 5.773438 -4.5625 C 5.742188 -3.785156 5.527344 -2.996094 5.136719 -2.195312 C 4.742188 -1.394531 4.246094 -0.730469 3.644531 -0.199219 C 2.996094 0.375 2.328125 0.660156 1.640625 0.660156 C 1.035156 0.660156 0.554688 0.433594 0.199219 -0.0195312 C -0.121094 -0.433594 -0.285156 -1 -0.285156 -1.722656 C -0.285156 -2.554688 -0.078125 -3.386719 0.332031 -4.21875 C 0.738281 -5.039062 1.25 -5.722656 1.875 -6.261719 C 2.542969 -6.84375 3.207031 -7.132812 3.875 -7.132812 C 4.410156 -7.132812 4.84375 -6.949219 5.183594 -6.574219 C 5.496094 -6.234375 5.6875 -5.777344 5.753906 -5.203125 L 5.238281 -5.140625 L 5.171875 -5.65625 C 5.550781 -5.703125 5.824219 -5.777344 5.996094 -5.871094 C 6.023438 -5.886719 6.042969 -5.90625 6.050781 -5.921875 C 6.070312 -5.957031 6.078125 -6.003906 6.078125 -6.070312 C 6.078125 -6.164062 6.039062 -6.316406 5.957031 -6.523438 L 6.445312 -6.710938 L 5.96875 -6.5 C 5.875 -6.714844 5.828125 -6.886719 5.828125 -7.015625 C 5.828125 -7.292969 5.960938 -7.527344 6.226562 -7.726562 C 6.441406 -7.886719 6.707031 -7.96875 7.015625 -7.96875 Z M 7.015625 -6.925781 C 6.9375 -6.925781 6.878906 -6.914062 6.847656 -6.886719 C 6.835938 -6.882812 6.828125 -6.875 6.824219 -6.871094 C 6.828125 -6.871094 6.828125 -6.875 6.832031 -6.882812 C 6.859375 -6.921875 6.871094 -6.964844 6.871094 -7.015625 C 6.871094 -7.035156 6.867188 -7.054688 6.863281 -7.070312 C 6.867188 -7.070312 6.867188 -7.0625 6.871094 -7.054688 C 6.878906 -7.023438 6.898438 -6.976562 6.921875 -6.917969 L 6.929688 -6.90625 L 6.933594 -6.894531 C 7.058594 -6.566406 7.121094 -6.292969 7.121094 -6.070312 C 7.121094 -5.832031 7.070312 -5.617188 6.972656 -5.433594 C 6.867188 -5.234375 6.710938 -5.078125 6.507812 -4.964844 C 6.214844 -4.800781 5.8125 -4.6875 5.300781 -4.621094 L 4.78125 -4.558594 L 4.71875 -5.078125 C 4.675781 -5.429688 4.574219 -5.695312 4.414062 -5.871094 C 4.28125 -6.019531 4.101562 -6.089844 3.875 -6.089844 C 3.46875 -6.089844 3.03125 -5.886719 2.558594 -5.476562 C 2.039062 -5.027344 1.609375 -4.453125 1.265625 -3.757812 C 0.925781 -3.070312 0.757812 -2.390625 0.757812 -1.722656 C 0.757812 -1.242188 0.84375 -0.886719 1.023438 -0.660156 C 1.167969 -0.476562 1.375 -0.382812 1.640625 -0.382812 C 2.0625 -0.382812 2.503906 -0.582031 2.953125 -0.980469 C 3.453125 -1.421875 3.867188 -1.980469 4.199219 -2.652344 C 4.527344 -3.324219 4.707031 -3.972656 4.730469 -4.605469 L 4.75 -5.105469 L 5.402344 -5.105469 C 6.035156 -5.105469 6.5 -5.226562 6.804688 -5.464844 C 7.070312 -5.675781 7.203125 -6.003906 7.203125 -6.445312 C 7.203125 -6.667969 7.175781 -6.820312 7.121094 -6.894531 C 7.105469 -6.914062 7.070312 -6.925781 7.015625 -6.925781 Z M 2.390625 -1.589844 C 2.480469 -1.589844 2.578125 -1.660156 2.6875 -1.800781 C 2.855469 -2.015625 2.992188 -2.320312 3.09375 -2.714844 C 3.203125 -3.136719 3.257812 -3.597656 3.257812 -4.097656 C 3.257812 -4.480469 3.226562 -4.734375 3.160156 -4.867188 C 3.152344 -4.878906 3.148438 -4.890625 3.140625 -4.894531 C 3.140625 -4.894531 3.144531 -4.890625 3.148438 -4.890625 C 3.152344 -4.886719 3.160156 -4.882812 3.164062 -4.882812 C 3.160156 -4.882812 3.15625 -4.882812 3.152344 -4.882812 C 3.0625 -4.882812 2.960938 -4.816406 2.847656 -4.683594 C 2.679688 -4.484375 2.535156 -4.195312 2.421875 -3.824219 C 2.304688 -3.425781 2.242188 -2.980469 2.242188 -2.488281 C 2.242188 -2.09375 2.28125 -1.8125 2.359375 -1.644531 C 2.378906 -1.609375 2.390625 -1.589844 2.398438 -1.582031 C 2.394531 -1.585938 2.390625 -1.589844 2.382812 -1.589844 C 2.382812 -1.589844 2.386719 -1.589844 2.390625 -1.589844 Z M 2.390625 -0.546875 C 2.167969 -0.546875 1.96875 -0.609375 1.796875 -0.734375 C 1.636719 -0.84375 1.511719 -1 1.417969 -1.203125 C 1.273438 -1.507812 1.203125 -1.9375 1.203125 -2.488281 C 1.203125 -3.085938 1.277344 -3.628906 1.425781 -4.125 C 1.582031 -4.636719 1.789062 -5.050781 2.054688 -5.359375 C 2.378906 -5.738281 2.742188 -5.925781 3.152344 -5.925781 C 3.363281 -5.925781 3.550781 -5.871094 3.714844 -5.765625 C 3.871094 -5.664062 4 -5.519531 4.09375 -5.332031 C 4.230469 -5.054688 4.300781 -4.644531 4.300781 -4.097656 C 4.300781 -3.507812 4.234375 -2.957031 4.101562 -2.453125 C 3.964844 -1.921875 3.765625 -1.488281 3.507812 -1.160156 C 3.191406 -0.753906 2.820312 -0.546875 2.390625 -0.546875 Z M 2.972656 -6.730469 C 2.785156 -6.730469 2.628906 -6.785156 2.5 -6.890625 C 2.347656 -7.023438 2.269531 -7.191406 2.269531 -7.40625 C 2.269531 -7.59375 2.339844 -7.757812 2.472656 -7.890625 C 2.539062 -7.960938 2.628906 -8.023438 2.734375 -8.078125 C 2.769531 -8.097656 2.816406 -8.128906 2.867188 -8.167969 L 2.878906 -8.175781 L 2.886719 -8.183594 C 3.09375 -8.324219 3.253906 -8.472656 3.363281 -8.632812 C 3.484375 -8.804688 3.609375 -9.089844 3.742188 -9.488281 C 3.839844 -9.78125 4.035156 -9.984375 4.324219 -10.09375 C 4.515625 -10.167969 4.769531 -10.203125 5.085938 -10.203125 C 5.347656 -10.203125 5.550781 -10.144531 5.699219 -10.023438 C 5.878906 -9.878906 5.96875 -9.667969 5.96875 -9.390625 C 5.96875 -8.976562 5.808594 -8.5625 5.492188 -8.148438 C 5.207031 -7.777344 4.847656 -7.460938 4.410156 -7.195312 C 3.960938 -6.921875 3.507812 -6.765625 3.054688 -6.730469 Z M 2.972656 -7.773438 L 3.015625 -7.773438 L 3.015625 -7.25 L 2.976562 -7.769531 C 3.261719 -7.792969 3.558594 -7.898438 3.867188 -8.085938 C 4.191406 -8.285156 4.457031 -8.515625 4.664062 -8.785156 C 4.835938 -9.011719 4.925781 -9.210938 4.925781 -9.390625 C 4.925781 -9.394531 4.925781 -9.398438 4.925781 -9.398438 C 4.925781 -9.390625 4.929688 -9.378906 4.933594 -9.367188 C 4.953125 -9.308594 4.988281 -9.257812 5.039062 -9.21875 C 5.078125 -9.183594 5.113281 -9.164062 5.148438 -9.15625 C 5.136719 -9.160156 5.117188 -9.160156 5.085938 -9.160156 C 4.898438 -9.160156 4.765625 -9.148438 4.691406 -9.117188 C 4.710938 -9.125 4.726562 -9.140625 4.730469 -9.15625 C 4.566406 -8.664062 4.398438 -8.292969 4.21875 -8.039062 C 4.035156 -7.773438 3.785156 -7.53125 3.472656 -7.320312 L 3.179688 -7.75 L 3.492188 -7.335938 C 3.398438 -7.265625 3.308594 -7.207031 3.226562 -7.160156 C 3.214844 -7.15625 3.207031 -7.148438 3.199219 -7.144531 C 3.199219 -7.144531 3.203125 -7.148438 3.210938 -7.152344 C 3.277344 -7.222656 3.3125 -7.308594 3.3125 -7.40625 C 3.3125 -7.515625 3.265625 -7.609375 3.175781 -7.6875 C 3.105469 -7.746094 3.039062 -7.773438 2.972656 -7.773438 Z M 2.972656 -7.773438 "/></g></g></g><g fill="#7ed957" fill-opacity="1"><g transform="translate(96.523978, 20.473343)"><g><path d="M 2.152344 -6.5625 C 1.921875 -6.5625 1.746094 -6.640625 1.621094 -6.792969 C 1.507812 -6.933594 1.46875 -7.113281 1.5 -7.324219 L 1.5 -7.335938 L 1.695312 -8.441406 C 1.773438 -8.855469 1.960938 -9.195312 2.253906 -9.453125 C 2.554688 -9.722656 2.960938 -9.855469 3.472656 -9.855469 L 3.585938 -9.855469 C 3.789062 -9.855469 3.953125 -9.785156 4.082031 -9.648438 C 4.207031 -9.507812 4.261719 -9.339844 4.242188 -9.136719 L 4.238281 -9.113281 L 4.042969 -7.996094 C 3.964844 -7.53125 3.765625 -7.175781 3.445312 -6.925781 C 3.140625 -6.683594 2.742188 -6.5625 2.25 -6.5625 Z M 2.152344 -7.605469 L 2.25 -7.605469 C 2.5 -7.605469 2.6875 -7.652344 2.804688 -7.746094 C 2.910156 -7.828125 2.980469 -7.972656 3.015625 -8.175781 L 3.210938 -9.273438 L 3.722656 -9.183594 L 3.203125 -9.230469 C 3.203125 -9.199219 3.203125 -9.164062 3.214844 -9.125 C 3.230469 -9.058594 3.261719 -9 3.308594 -8.945312 C 3.359375 -8.894531 3.414062 -8.855469 3.480469 -8.832031 C 3.515625 -8.820312 3.550781 -8.8125 3.585938 -8.8125 L 3.472656 -8.8125 C 3.226562 -8.8125 3.046875 -8.769531 2.945312 -8.675781 C 2.828125 -8.574219 2.753906 -8.433594 2.722656 -8.257812 L 2.527344 -7.160156 L 2.015625 -7.25 L 2.53125 -7.179688 C 2.53125 -7.1875 2.53125 -7.203125 2.527344 -7.226562 C 2.519531 -7.304688 2.488281 -7.378906 2.433594 -7.445312 C 2.375 -7.519531 2.300781 -7.570312 2.210938 -7.597656 C 2.1875 -7.601562 2.167969 -7.605469 2.152344 -7.605469 Z M 1.570312 0.660156 C 1.167969 0.660156 0.859375 0.511719 0.640625 0.21875 C 0.457031 -0.0234375 0.367188 -0.359375 0.367188 -0.777344 C 0.367188 -0.972656 0.394531 -1.222656 0.445312 -1.53125 L 0.445312 -1.539062 L 1.113281 -4.90625 L 1.625 -4.808594 L 1.109375 -4.863281 C 1.125 -5.011719 1.132812 -5.09375 1.132812 -5.113281 C 1.132812 -5.109375 1.132812 -5.101562 1.136719 -5.089844 C 1.144531 -5.050781 1.160156 -5.011719 1.183594 -4.976562 C 1.222656 -4.914062 1.277344 -4.867188 1.34375 -4.832031 C 1.402344 -4.800781 1.464844 -4.785156 1.527344 -4.785156 C 1.59375 -4.785156 1.648438 -4.800781 1.6875 -4.828125 C 1.679688 -4.820312 1.664062 -4.804688 1.636719 -4.773438 C 1.546875 -4.660156 1.417969 -4.464844 1.257812 -4.183594 L 0.804688 -4.445312 L 1.273438 -4.210938 C 1.261719 -4.1875 1.238281 -4.144531 1.203125 -4.082031 C 1.144531 -3.976562 1.085938 -3.890625 1.019531 -3.828125 C 0.890625 -3.699219 0.742188 -3.632812 0.570312 -3.632812 C 0.453125 -3.632812 0.347656 -3.660156 0.25 -3.71875 C 0.152344 -3.777344 0.078125 -3.855469 0.0234375 -3.953125 C -0.0429688 -4.070312 -0.078125 -4.210938 -0.078125 -4.375 C -0.078125 -4.734375 0.0625 -5.132812 0.335938 -5.574219 C 0.589844 -5.984375 0.910156 -6.335938 1.292969 -6.636719 C 1.71875 -6.96875 2.148438 -7.132812 2.582031 -7.132812 C 2.953125 -7.132812 3.238281 -7 3.4375 -6.730469 C 3.605469 -6.507812 3.6875 -6.210938 3.6875 -5.835938 C 3.6875 -5.65625 3.652344 -5.371094 3.582031 -4.980469 L 2.882812 -1.375 L 2.882812 -1.359375 C 2.875 -1.335938 2.871094 -1.3125 2.867188 -1.300781 L 2.867188 -1.296875 C 2.867188 -1.308594 2.867188 -1.320312 2.867188 -1.332031 C 2.867188 -1.414062 2.835938 -1.488281 2.769531 -1.5625 C 2.691406 -1.644531 2.601562 -1.6875 2.5 -1.6875 C 2.46875 -1.6875 2.4375 -1.683594 2.410156 -1.671875 C 2.398438 -1.667969 2.394531 -1.667969 2.390625 -1.664062 C 2.417969 -1.683594 2.457031 -1.722656 2.5 -1.78125 C 2.625 -1.9375 2.746094 -2.160156 2.867188 -2.449219 L 3.347656 -2.25 L 2.855469 -2.425781 C 2.902344 -2.550781 2.960938 -2.65625 3.027344 -2.734375 C 3.160156 -2.890625 3.324219 -2.964844 3.515625 -2.964844 C 3.636719 -2.964844 3.746094 -2.933594 3.847656 -2.871094 C 3.941406 -2.8125 4.015625 -2.730469 4.070312 -2.628906 C 4.128906 -2.515625 4.160156 -2.375 4.160156 -2.207031 C 4.160156 -1.789062 4.03125 -1.359375 3.769531 -0.910156 C 3.523438 -0.488281 3.214844 -0.132812 2.847656 0.164062 C 2.433594 0.496094 2.007812 0.660156 1.570312 0.660156 Z M 1.570312 -0.382812 C 1.761719 -0.382812 1.972656 -0.472656 2.195312 -0.652344 C 2.464844 -0.863281 2.691406 -1.125 2.871094 -1.4375 C 3.035156 -1.722656 3.117188 -1.976562 3.117188 -2.207031 C 3.117188 -2.214844 3.117188 -2.222656 3.117188 -2.226562 L 3.117188 -2.222656 C 3.121094 -2.199219 3.132812 -2.171875 3.148438 -2.140625 C 3.179688 -2.078125 3.230469 -2.027344 3.292969 -1.988281 C 3.359375 -1.945312 3.433594 -1.925781 3.515625 -1.925781 C 3.640625 -1.925781 3.742188 -1.96875 3.820312 -2.058594 C 3.832031 -2.070312 3.839844 -2.082031 3.847656 -2.09375 C 3.84375 -2.089844 3.84375 -2.085938 3.839844 -2.074219 L 3.835938 -2.0625 L 3.828125 -2.050781 C 3.671875 -1.671875 3.503906 -1.367188 3.320312 -1.136719 C 3.0625 -0.808594 2.789062 -0.644531 2.5 -0.644531 C 2.296875 -0.644531 2.128906 -0.714844 2 -0.855469 C 1.886719 -0.984375 1.828125 -1.144531 1.828125 -1.332031 C 1.828125 -1.402344 1.839844 -1.496094 1.871094 -1.613281 L 2.375 -1.488281 L 1.863281 -1.585938 L 2.558594 -5.164062 C 2.617188 -5.492188 2.644531 -5.71875 2.644531 -5.835938 C 2.644531 -5.921875 2.640625 -5.992188 2.625 -6.046875 C 2.617188 -6.078125 2.609375 -6.097656 2.605469 -6.105469 C 2.609375 -6.097656 2.617188 -6.09375 2.628906 -6.085938 C 2.621094 -6.089844 2.609375 -6.089844 2.582031 -6.089844 C 2.386719 -6.089844 2.171875 -6 1.929688 -5.8125 C 1.648438 -5.589844 1.410156 -5.328125 1.21875 -5.023438 C 1.050781 -4.753906 0.964844 -4.535156 0.964844 -4.375 C 0.960938 -4.402344 0.949219 -4.433594 0.929688 -4.464844 C 0.894531 -4.527344 0.84375 -4.578125 0.78125 -4.617188 C 0.714844 -4.65625 0.644531 -4.675781 0.570312 -4.675781 C 0.453125 -4.675781 0.359375 -4.636719 0.285156 -4.5625 C 0.277344 -4.554688 0.269531 -4.546875 0.265625 -4.542969 C 0.269531 -4.550781 0.277344 -4.5625 0.285156 -4.574219 C 0.3125 -4.628906 0.332031 -4.664062 0.339844 -4.679688 L 0.347656 -4.691406 L 0.355469 -4.707031 C 0.542969 -5.035156 0.703125 -5.28125 0.835938 -5.4375 C 1.050781 -5.699219 1.28125 -5.828125 1.527344 -5.828125 C 1.632812 -5.828125 1.730469 -5.804688 1.824219 -5.757812 C 1.921875 -5.707031 2 -5.632812 2.058594 -5.539062 C 2.136719 -5.421875 2.175781 -5.277344 2.175781 -5.113281 C 2.175781 -5.054688 2.164062 -4.933594 2.144531 -4.75 L 2.140625 -4.726562 L 1.46875 -1.34375 L 0.957031 -1.445312 L 1.472656 -1.359375 C 1.429688 -1.109375 1.410156 -0.914062 1.410156 -0.777344 C 1.410156 -0.585938 1.433594 -0.460938 1.476562 -0.402344 C 1.488281 -0.386719 1.519531 -0.382812 1.570312 -0.382812 Z M 1.570312 -0.382812 "/></g></g></g><g fill="#000000" fill-opacity="1"><g transform="translate(48.439395, 20.473343)"><g><path d="M 3.46875 0.140625 C 2.59375 0.140625 1.914062 -0.15625 1.4375 -0.75 C 0.957031 -1.351562 0.71875 -2.242188 0.71875 -3.421875 C 0.71875 -4.609375 0.960938 -5.6875 1.453125 -6.65625 C 1.941406 -7.632812 2.582031 -8.398438 3.375 -8.953125 C 4.175781 -9.503906 5.035156 -9.78125 5.953125 -9.78125 C 6.535156 -9.78125 7.003906 -9.671875 7.359375 -9.453125 C 7.710938 -9.234375 7.890625 -8.9375 7.890625 -8.5625 C 7.890625 -8.320312 7.796875 -8.03125 7.609375 -7.6875 C 7.523438 -7.550781 7.445312 -7.441406 7.375 -7.359375 C 7.300781 -7.285156 7.21875 -7.25 7.125 -7.25 C 7.039062 -7.25 6.984375 -7.28125 6.953125 -7.34375 C 6.929688 -7.414062 6.910156 -7.507812 6.890625 -7.625 C 6.867188 -7.738281 6.847656 -7.828125 6.828125 -7.890625 C 6.691406 -8.453125 6.265625 -8.734375 5.546875 -8.734375 C 4.910156 -8.734375 4.351562 -8.519531 3.875 -8.09375 C 3.394531 -7.675781 3.023438 -7.09375 2.765625 -6.34375 C 2.503906 -5.601562 2.375 -4.757812 2.375 -3.8125 C 2.375 -2.894531 2.515625 -2.21875 2.796875 -1.78125 C 3.078125 -1.351562 3.523438 -1.140625 4.140625 -1.140625 C 4.742188 -1.140625 5.222656 -1.300781 5.578125 -1.625 C 5.941406 -1.945312 6.265625 -2.351562 6.546875 -2.84375 C 6.628906 -3 6.722656 -3.078125 6.828125 -3.078125 C 6.921875 -3.078125 6.96875 -3.019531 6.96875 -2.90625 C 6.96875 -2.820312 6.941406 -2.6875 6.890625 -2.5 C 6.648438 -1.6875 6.222656 -1.039062 5.609375 -0.5625 C 4.992188 -0.09375 4.28125 0.140625 3.46875 0.140625 Z M 3.46875 0.140625 "/></g></g></g><g fill="#000000" fill-opacity="1"><g transform="translate(55.745077, 20.473343)"><g><path d="M 0.4375 0.140625 C 0.28125 0.140625 0.203125 0.09375 0.203125 0 C 0.203125 -0.0390625 0.238281 -0.171875 0.3125 -0.390625 C 0.394531 -0.660156 0.453125 -0.863281 0.484375 -1 C 0.578125 -1.488281 0.742188 -2.523438 0.984375 -4.109375 L 1.34375 -6.359375 C 1.53125 -7.460938 1.765625 -8.394531 2.046875 -9.15625 C 2.328125 -9.914062 2.679688 -10.53125 3.109375 -11 C 3.441406 -11.375 3.765625 -11.625 4.078125 -11.75 C 4.390625 -11.875 4.78125 -11.972656 5.25 -12.046875 C 5.539062 -12.085938 5.734375 -12.117188 5.828125 -12.140625 C 5.921875 -12.171875 5.984375 -12.1875 6.015625 -12.1875 C 6.085938 -12.1875 6.125 -12.132812 6.125 -12.03125 C 6.125 -11.945312 6.085938 -11.847656 6.015625 -11.734375 C 5.953125 -11.617188 5.867188 -11.507812 5.765625 -11.40625 C 5.617188 -11.269531 5.394531 -11.203125 5.09375 -11.203125 C 4.8125 -11.171875 4.5625 -11.085938 4.34375 -10.953125 C 4.132812 -10.828125 3.929688 -10.617188 3.734375 -10.328125 C 3.460938 -9.921875 3.25 -9.394531 3.09375 -8.75 C 2.9375 -8.113281 2.773438 -7.164062 2.609375 -5.90625 L 2.4375 -4.5625 C 3.414062 -5.925781 4.253906 -6.609375 4.953125 -6.609375 C 5.191406 -6.609375 5.367188 -6.53125 5.484375 -6.375 C 5.609375 -6.226562 5.671875 -5.976562 5.671875 -5.625 C 5.671875 -5.351562 5.628906 -5 5.546875 -4.5625 C 5.359375 -3.601562 5.222656 -2.925781 5.140625 -2.53125 C 5.015625 -1.875 4.953125 -1.507812 4.953125 -1.4375 C 4.953125 -1.257812 5.015625 -1.171875 5.140625 -1.171875 C 5.273438 -1.171875 5.398438 -1.257812 5.515625 -1.4375 C 5.640625 -1.613281 5.78125 -1.882812 5.9375 -2.25 C 5.976562 -2.375 6.03125 -2.4375 6.09375 -2.4375 C 6.175781 -2.4375 6.21875 -2.351562 6.21875 -2.1875 C 6.21875 -1.851562 6.113281 -1.503906 5.90625 -1.140625 C 5.707031 -0.773438 5.453125 -0.46875 5.140625 -0.21875 C 4.835938 0.0195312 4.53125 0.140625 4.21875 0.140625 C 3.757812 0.140625 3.53125 -0.164062 3.53125 -0.78125 C 3.53125 -1.019531 3.554688 -1.3125 3.609375 -1.65625 C 3.660156 -2 3.742188 -2.4375 3.859375 -2.96875 C 3.929688 -3.332031 4 -3.691406 4.0625 -4.046875 C 4.125 -4.410156 4.160156 -4.707031 4.171875 -4.9375 L 4.171875 -5.015625 C 4.171875 -5.179688 4.117188 -5.265625 4.015625 -5.265625 C 3.859375 -5.265625 3.640625 -5.097656 3.359375 -4.765625 C 3.085938 -4.441406 2.828125 -4.035156 2.578125 -3.546875 C 2.328125 -3.054688 2.160156 -2.582031 2.078125 -2.125 L 1.859375 -1 C 1.796875 -0.71875 1.613281 -0.457031 1.3125 -0.21875 C 1.007812 0.0195312 0.71875 0.140625 0.4375 0.140625 Z M 0.4375 0.140625 "/></g></g></g><g fill="#000000" fill-opacity="1"><g transform="translate(62.411943, 20.473343)"><g><path d="M 7.015625 -7.453125 C 7.484375 -7.453125 7.71875 -7.113281 7.71875 -6.4375 C 7.71875 -5.832031 7.519531 -5.367188 7.125 -5.046875 C 6.726562 -4.734375 6.15625 -4.578125 5.40625 -4.578125 L 5.25 -4.578125 C 5.21875 -3.878906 5.019531 -3.160156 4.65625 -2.421875 C 4.300781 -1.679688 3.847656 -1.066406 3.296875 -0.578125 C 2.742188 -0.0976562 2.191406 0.140625 1.640625 0.140625 C 1.203125 0.140625 0.859375 -0.015625 0.609375 -0.328125 C 0.359375 -0.648438 0.234375 -1.113281 0.234375 -1.71875 C 0.234375 -2.46875 0.421875 -3.222656 0.796875 -3.984375 C 1.171875 -4.742188 1.640625 -5.367188 2.203125 -5.859375 C 2.773438 -6.359375 3.332031 -6.609375 3.875 -6.609375 C 4.25 -6.609375 4.554688 -6.476562 4.796875 -6.21875 C 5.035156 -5.957031 5.179688 -5.597656 5.234375 -5.140625 C 5.679688 -5.191406 6.019531 -5.28125 6.25 -5.40625 C 6.476562 -5.539062 6.59375 -5.757812 6.59375 -6.0625 C 6.59375 -6.226562 6.539062 -6.441406 6.4375 -6.703125 C 6.375 -6.859375 6.34375 -6.960938 6.34375 -7.015625 C 6.34375 -7.117188 6.40625 -7.21875 6.53125 -7.3125 C 6.65625 -7.40625 6.816406 -7.453125 7.015625 -7.453125 Z M 2.390625 -1.0625 C 2.648438 -1.0625 2.882812 -1.195312 3.09375 -1.46875 C 3.3125 -1.75 3.476562 -2.117188 3.59375 -2.578125 C 3.71875 -3.046875 3.78125 -3.550781 3.78125 -4.09375 C 3.78125 -4.5625 3.726562 -4.894531 3.625 -5.09375 C 3.519531 -5.300781 3.363281 -5.40625 3.15625 -5.40625 C 2.90625 -5.40625 2.671875 -5.273438 2.453125 -5.015625 C 2.234375 -4.765625 2.054688 -4.414062 1.921875 -3.96875 C 1.785156 -3.53125 1.71875 -3.035156 1.71875 -2.484375 C 1.71875 -1.535156 1.941406 -1.0625 2.390625 -1.0625 Z M 2.390625 -1.0625 "/></g></g></g><g fill="#000000" fill-opacity="1"><g transform="translate(70.176067, 20.473343)"><g><path d="M 2.15625 -7.078125 C 2.09375 -7.078125 2.050781 -7.085938 2.03125 -7.109375 C 2.007812 -7.140625 2.003906 -7.1875 2.015625 -7.25 L 2.203125 -8.34375 C 2.265625 -8.644531 2.394531 -8.882812 2.59375 -9.0625 C 2.800781 -9.238281 3.09375 -9.328125 3.46875 -9.328125 L 3.578125 -9.328125 C 3.679688 -9.328125 3.726562 -9.28125 3.71875 -9.1875 L 3.53125 -8.078125 C 3.414062 -7.410156 2.988281 -7.078125 2.25 -7.078125 Z M 1.5625 0.140625 C 1.113281 0.140625 0.890625 -0.164062 0.890625 -0.78125 C 0.890625 -0.945312 0.910156 -1.164062 0.953125 -1.4375 L 1.625 -4.8125 C 1.644531 -4.976562 1.65625 -5.078125 1.65625 -5.109375 C 1.65625 -5.242188 1.613281 -5.3125 1.53125 -5.3125 C 1.445312 -5.3125 1.347656 -5.242188 1.234375 -5.109375 C 1.117188 -4.972656 0.976562 -4.75 0.8125 -4.4375 C 0.800781 -4.425781 0.773438 -4.390625 0.734375 -4.328125 C 0.703125 -4.265625 0.671875 -4.21875 0.640625 -4.1875 C 0.617188 -4.164062 0.59375 -4.15625 0.5625 -4.15625 C 0.476562 -4.15625 0.4375 -4.226562 0.4375 -4.375 C 0.4375 -4.632812 0.546875 -4.941406 0.765625 -5.296875 C 0.992188 -5.648438 1.273438 -5.957031 1.609375 -6.21875 C 1.941406 -6.476562 2.265625 -6.609375 2.578125 -6.609375 C 2.972656 -6.609375 3.171875 -6.347656 3.171875 -5.828125 C 3.171875 -5.679688 3.132812 -5.425781 3.0625 -5.0625 L 2.375 -1.484375 C 2.351562 -1.410156 2.34375 -1.359375 2.34375 -1.328125 C 2.34375 -1.222656 2.394531 -1.171875 2.5 -1.171875 C 2.625 -1.171875 2.757812 -1.265625 2.90625 -1.453125 C 3.0625 -1.648438 3.207031 -1.914062 3.34375 -2.25 C 3.394531 -2.375 3.453125 -2.4375 3.515625 -2.4375 C 3.597656 -2.4375 3.640625 -2.359375 3.640625 -2.203125 C 3.640625 -1.878906 3.53125 -1.535156 3.3125 -1.171875 C 3.101562 -0.804688 2.835938 -0.492188 2.515625 -0.234375 C 2.203125 0.015625 1.882812 0.140625 1.5625 0.140625 Z M 1.5625 0.140625 "/></g></g></g><g fill="#000000" fill-opacity="1"><g transform="translate(74.34286, 20.473343)"><g/></g></g><g fill="#000000" fill-opacity="1"><g transform="translate(78.231868, 20.473343)"><g><path d="M 0.53125 0 C 0.46875 0 0.4375 -0.0546875 0.4375 -0.171875 C 0.4375 -0.296875 0.472656 -0.410156 0.546875 -0.515625 C 0.617188 -0.628906 0.726562 -0.753906 0.875 -0.890625 C 1.019531 -1.035156 1.125 -1.148438 1.1875 -1.234375 C 1.257812 -1.316406 1.316406 -1.4375 1.359375 -1.59375 C 1.410156 -1.75 1.476562 -1.988281 1.5625 -2.3125 L 2.8125 -8.40625 L 2.734375 -8.40625 C 2.691406 -8.40625 2.59375 -8.414062 2.4375 -8.4375 C 2.257812 -8.46875 2.066406 -8.484375 1.859375 -8.484375 C 1.585938 -8.484375 1.363281 -8.445312 1.1875 -8.375 C 1.007812 -8.300781 0.84375 -8.164062 0.6875 -7.96875 C 0.644531 -7.90625 0.597656 -7.851562 0.546875 -7.8125 C 0.503906 -7.769531 0.46875 -7.75 0.4375 -7.75 C 0.351562 -7.75 0.3125 -7.796875 0.3125 -7.890625 C 0.3125 -7.984375 0.316406 -8.054688 0.328125 -8.109375 C 0.421875 -8.585938 0.648438 -8.960938 1.015625 -9.234375 C 1.378906 -9.503906 1.832031 -9.640625 2.375 -9.640625 C 2.488281 -9.640625 2.664062 -9.628906 2.90625 -9.609375 C 3.113281 -9.585938 3.332031 -9.578125 3.5625 -9.578125 C 3.644531 -9.578125 3.851562 -9.585938 4.1875 -9.609375 C 4.351562 -9.628906 4.472656 -9.640625 4.546875 -9.640625 C 4.523438 -9.398438 4.515625 -9.191406 4.515625 -9.015625 C 4.515625 -8.671875 4.554688 -8.273438 4.640625 -7.828125 C 4.722656 -7.378906 4.859375 -6.75 5.046875 -5.9375 L 5.46875 -4.09375 C 5.53125 -3.90625 5.570312 -3.742188 5.59375 -3.609375 C 6.550781 -5.328125 7.179688 -6.484375 7.484375 -7.078125 C 7.796875 -7.679688 8.0625 -8.21875 8.28125 -8.6875 C 8.394531 -8.90625 8.484375 -9.085938 8.546875 -9.234375 C 8.910156 -9.992188 9.242188 -10.566406 9.546875 -10.953125 C 9.847656 -11.347656 10.207031 -11.644531 10.625 -11.84375 C 10.90625 -11.988281 11.203125 -12.082031 11.515625 -12.125 C 11.828125 -12.175781 12.191406 -12.203125 12.609375 -12.203125 C 12.828125 -12.203125 12.984375 -12.21875 13.078125 -12.25 C 13.148438 -12.269531 13.207031 -12.285156 13.25 -12.296875 C 13.300781 -12.316406 13.335938 -12.328125 13.359375 -12.328125 C 13.429688 -12.328125 13.46875 -12.28125 13.46875 -12.1875 C 13.46875 -11.988281 13.351562 -11.796875 13.125 -11.609375 C 12.894531 -11.421875 12.648438 -11.328125 12.390625 -11.328125 C 12.085938 -11.328125 11.835938 -11.3125 11.640625 -11.28125 C 11.441406 -11.25 11.253906 -11.191406 11.078125 -11.109375 C 10.722656 -10.941406 10.453125 -10.640625 10.265625 -10.203125 C 10.078125 -9.773438 9.925781 -9.128906 9.8125 -8.265625 C 9.738281 -7.867188 9.675781 -7.421875 9.625 -6.921875 C 9.582031 -6.429688 9.535156 -5.925781 9.484375 -5.40625 C 9.367188 -4.050781 9.253906 -2.925781 9.140625 -2.03125 C 9.128906 -1.851562 9.09375 -1.691406 9.03125 -1.546875 C 8.976562 -1.398438 8.910156 -1.289062 8.828125 -1.21875 L 8.828125 -1.203125 C 9.003906 -1.109375 9.1875 -1.0625 9.375 -1.0625 C 9.507812 -1.0625 9.640625 -1.085938 9.765625 -1.140625 C 9.898438 -1.191406 9.988281 -1.21875 10.03125 -1.21875 C 10.0625 -1.21875 10.082031 -1.207031 10.09375 -1.1875 C 10.113281 -1.175781 10.125 -1.140625 10.125 -1.078125 C 10.125 -0.960938 10.066406 -0.84375 9.953125 -0.71875 C 9.585938 -0.238281 9.226562 0 8.875 0 C 8.75 0 8.566406 -0.03125 8.328125 -0.09375 C 8.304688 -0.101562 8.21875 -0.125 8.0625 -0.15625 C 7.914062 -0.195312 7.769531 -0.21875 7.625 -0.21875 C 7.425781 -0.21875 7.242188 -0.179688 7.078125 -0.109375 C 6.910156 -0.0351562 6.804688 0 6.765625 0 C 6.703125 0 6.671875 -0.0546875 6.671875 -0.171875 C 6.671875 -0.421875 6.816406 -0.660156 7.109375 -0.890625 L 7.359375 -1.078125 C 7.472656 -1.160156 7.550781 -1.226562 7.59375 -1.28125 C 7.632812 -1.332031 7.660156 -1.414062 7.671875 -1.53125 L 7.703125 -1.8125 C 7.847656 -3.425781 7.945312 -4.441406 8 -4.859375 C 8.050781 -5.285156 8.113281 -5.789062 8.1875 -6.375 L 8.171875 -6.375 C 7.773438 -5.75 7.367188 -5.03125 6.953125 -4.21875 C 6.535156 -3.40625 6.195312 -2.664062 5.9375 -2 C 5.738281 -1.65625 5.5 -1.320312 5.21875 -1 C 4.945312 -0.675781 4.765625 -0.515625 4.671875 -0.515625 C 4.640625 -0.515625 4.613281 -0.53125 4.59375 -0.5625 C 4.582031 -0.59375 4.578125 -0.632812 4.578125 -0.6875 C 4.503906 -1.351562 4.445312 -1.84375 4.40625 -2.15625 C 4.363281 -2.46875 4.273438 -2.9375 4.140625 -3.5625 C 4.078125 -3.84375 3.984375 -4.25 3.859375 -4.78125 C 3.734375 -5.320312 3.640625 -5.742188 3.578125 -6.046875 L 3.5625 -6.0625 L 2.71875 -1.84375 C 2.707031 -1.820312 2.675781 -1.722656 2.625 -1.546875 C 2.582031 -1.378906 2.519531 -1.257812 2.4375 -1.1875 L 2.4375 -1.171875 C 2.613281 -1.097656 2.78125 -1.0625 2.9375 -1.0625 C 3.082031 -1.0625 3.207031 -1.085938 3.3125 -1.140625 C 3.414062 -1.191406 3.488281 -1.21875 3.53125 -1.21875 C 3.601562 -1.21875 3.640625 -1.171875 3.640625 -1.078125 C 3.640625 -0.992188 3.582031 -0.875 3.46875 -0.71875 C 3.269531 -0.445312 3.09375 -0.257812 2.9375 -0.15625 C 2.789062 -0.0507812 2.625 0 2.4375 0 C 2.3125 0 2.15625 -0.0351562 1.96875 -0.109375 C 1.75 -0.179688 1.566406 -0.21875 1.421875 -0.21875 C 1.203125 -0.21875 1.003906 -0.179688 0.828125 -0.109375 C 0.648438 -0.0351562 0.550781 0 0.53125 0 Z M 0.53125 0 "/></g></g></g><g fill="#000000" fill-opacity="1"><g transform="translate(88.759854, 20.473343)"><g><path d="M 7.015625 -7.453125 C 7.484375 -7.453125 7.71875 -7.113281 7.71875 -6.4375 C 7.71875 -5.832031 7.519531 -5.367188 7.125 -5.046875 C 6.726562 -4.734375 6.15625 -4.578125 5.40625 -4.578125 L 5.25 -4.578125 C 5.21875 -3.878906 5.019531 -3.160156 4.65625 -2.421875 C 4.300781 -1.679688 3.847656 -1.066406 3.296875 -0.578125 C 2.742188 -0.0976562 2.191406 0.140625 1.640625 0.140625 C 1.203125 0.140625 0.859375 -0.015625 0.609375 -0.328125 C 0.359375 -0.648438 0.234375 -1.113281 0.234375 -1.71875 C 0.234375 -2.46875 0.421875 -3.222656 0.796875 -3.984375 C 1.171875 -4.742188 1.640625 -5.367188 2.203125 -5.859375 C 2.773438 -6.359375 3.332031 -6.609375 3.875 -6.609375 C 4.25 -6.609375 4.554688 -6.476562 4.796875 -6.21875 C 5.035156 -5.957031 5.179688 -5.597656 5.234375 -5.140625 C 5.679688 -5.191406 6.019531 -5.28125 6.25 -5.40625 C 6.476562 -5.539062 6.59375 -5.757812 6.59375 -6.0625 C 6.59375 -6.226562 6.539062 -6.441406 6.4375 -6.703125 C 6.375 -6.859375 6.34375 -6.960938 6.34375 -7.015625 C 6.34375 -7.117188 6.40625 -7.21875 6.53125 -7.3125 C 6.65625 -7.40625 6.816406 -7.453125 7.015625 -7.453125 Z M 2.390625 -1.0625 C 2.648438 -1.0625 2.882812 -1.195312 3.09375 -1.46875 C 3.3125 -1.75 3.476562 -2.117188 3.59375 -2.578125 C 3.71875 -3.046875 3.78125 -3.550781 3.78125 -4.09375 C 3.78125 -4.5625 3.726562 -4.894531 3.625 -5.09375 C 3.519531 -5.300781 3.363281 -5.40625 3.15625 -5.40625 C 2.90625 -5.40625 2.671875 -5.273438 2.453125 -5.015625 C 2.234375 -4.765625 2.054688 -4.414062 1.921875 -3.96875 C 1.785156 -3.53125 1.71875 -3.035156 1.71875 -2.484375 C 1.71875 -1.535156 1.941406 -1.0625 2.390625 -1.0625 Z M 2.96875 -7.25 C 2.84375 -7.25 2.78125 -7.300781 2.78125 -7.40625 C 2.78125 -7.445312 2.796875 -7.484375 2.828125 -7.515625 C 2.859375 -7.554688 2.90625 -7.59375 2.96875 -7.625 C 3.03125 -7.65625 3.097656 -7.695312 3.171875 -7.75 C 3.429688 -7.925781 3.632812 -8.117188 3.78125 -8.328125 C 3.925781 -8.546875 4.078125 -8.878906 4.234375 -9.328125 C 4.273438 -9.460938 4.363281 -9.554688 4.5 -9.609375 C 4.632812 -9.660156 4.828125 -9.6875 5.078125 -9.6875 C 5.210938 -9.6875 5.304688 -9.664062 5.359375 -9.625 C 5.410156 -9.582031 5.4375 -9.503906 5.4375 -9.390625 C 5.4375 -9.097656 5.3125 -8.789062 5.0625 -8.46875 C 4.820312 -8.144531 4.507812 -7.867188 4.125 -7.640625 C 3.75 -7.410156 3.375 -7.28125 3 -7.25 Z M 2.96875 -7.25 "/></g></g></g><g fill="#000000" fill-opacity="1"><g transform="translate(96.523978, 20.473343)"><g><path d="M 2.15625 -7.078125 C 2.09375 -7.078125 2.050781 -7.085938 2.03125 -7.109375 C 2.007812 -7.140625 2.003906 -7.1875 2.015625 -7.25 L 2.203125 -8.34375 C 2.265625 -8.644531 2.394531 -8.882812 2.59375 -9.0625 C 2.800781 -9.238281 3.09375 -9.328125 3.46875 -9.328125 L 3.578125 -9.328125 C 3.679688 -9.328125 3.726562 -9.28125 3.71875 -9.1875 L 3.53125 -8.078125 C 3.414062 -7.410156 2.988281 -7.078125 2.25 -7.078125 Z M 1.5625 0.140625 C 1.113281 0.140625 0.890625 -0.164062 0.890625 -0.78125 C 0.890625 -0.945312 0.910156 -1.164062 0.953125 -1.4375 L 1.625 -4.8125 C 1.644531 -4.976562 1.65625 -5.078125 1.65625 -5.109375 C 1.65625 -5.242188 1.613281 -5.3125 1.53125 -5.3125 C 1.445312 -5.3125 1.347656 -5.242188 1.234375 -5.109375 C 1.117188 -4.972656 0.976562 -4.75 0.8125 -4.4375 C 0.800781 -4.425781 0.773438 -4.390625 0.734375 -4.328125 C 0.703125 -4.265625 0.671875 -4.21875 0.640625 -4.1875 C 0.617188 -4.164062 0.59375 -4.15625 0.5625 -4.15625 C 0.476562 -4.15625 0.4375 -4.226562 0.4375 -4.375 C 0.4375 -4.632812 0.546875 -4.941406 0.765625 -5.296875 C 0.992188 -5.648438 1.273438 -5.957031 1.609375 -6.21875 C 1.941406 -6.476562 2.265625 -6.609375 2.578125 -6.609375 C 2.972656 -6.609375 3.171875 -6.347656 3.171875 -5.828125 C 3.171875 -5.679688 3.132812 -5.425781 3.0625 -5.0625 L 2.375 -1.484375 C 2.351562 -1.410156 2.34375 -1.359375 2.34375 -1.328125 C 2.34375 -1.222656 2.394531 -1.171875 2.5 -1.171875 C 2.625 -1.171875 2.757812 -1.265625 2.90625 -1.453125 C 3.0625 -1.648438 3.207031 -1.914062 3.34375 -2.25 C 3.394531 -2.375 3.453125 -2.4375 3.515625 -2.4375 C 3.597656 -2.4375 3.640625 -2.359375 3.640625 -2.203125 C 3.640625 -1.878906 3.53125 -1.535156 3.3125 -1.171875 C 3.101562 -0.804688 2.835938 -0.492188 2.515625 -0.234375 C 2.203125 0.015625 1.882812 0.140625 1.5625 0.140625 Z M 1.5625 0.140625 "/></g></g></g></svg>