<svg xmlns="http://www.w3.org/2000/svg" xmlns:xlink="http://www.w3.org/1999/xlink" width="196" zoomAndPan="magnify" viewBox="0 0 147 33.749998" height="45" preserveAspectRatio="xMidYMid meet" version="1.0"><defs><g/><clipPath id="51823767dd"><path d="M 9 0 L 140 0 L 140 33.5 L 9 33.5 Z M 9 0 " clip-rule="nonzero"/></clipPath></defs><g clip-path="url(#51823767dd)"><path fill="#cdaa50" d="M 11.457031 5.546875 C 12.671875 5.046875 31.789062 0.601562 32.320312 1.386719 C 34.5 4.597656 37.183594 0.851562 41.761719 1.21875 C 47.539062 1.703125 50.285156 -2.011719 52.203125 2.25 C 53.085938 4.214844 61.308594 -0.03125 62.144531 2.71875 C 63.941406 3.320312 62.84375 2.351562 66.070312 2.652344 C 70.652344 3.066406 83.039062 0.136719 84.421875 1.75 C 84.671875 2.03125 85.535156 2.25 86.804688 2.402344 C 86.335938 2.515625 85.851562 2.800781 85.671875 3.28125 C 85.570312 3.5 83.605469 3.351562 82.441406 4.066406 C 82.238281 4.199219 79.078125 4.730469 79.542969 4.730469 C 80.839844 4.730469 81.957031 4.464844 83.507812 4.464844 C 85.9375 4.464844 84.070312 4.25 86.003906 3.964844 C 87.652344 3.730469 85.351562 3.25 88.785156 2.667969 C 88.90625 2.640625 89.03125 2.605469 89.152344 2.566406 C 94.746094 2.832031 103.386719 2.367188 105.003906 1.566406 C 110.679688 -1.25 107.699219 2.628906 112.792969 2.628906 C 114.027344 2.628906 137.4375 1.730469 134.457031 4.027344 C 131.441406 6.34375 134.65625 5.59375 134.789062 8.441406 C 134.875 10.089844 139.984375 10.355469 135.15625 13.703125 C 134.523438 13.753906 132.492188 13.984375 133.492188 14.054688 C 135.238281 14.171875 128.847656 15.636719 129.59375 15.636719 C 130.0625 15.636719 133.523438 15.253906 133.625 15.820312 C 133.625 15.820312 133.523438 16.570312 133.441406 16.703125 C 132.992188 17.46875 132.558594 16.933594 133.707031 17.335938 C 134.390625 17.550781 131.941406 18.464844 132.324219 18.464844 C 132.527344 18.449219 134.441406 18.667969 133.441406 19.382812 C 133.359375 19.449219 134.125 19.734375 133.226562 20.265625 C 133.023438 20.382812 132.292969 21.878906 132.359375 21.914062 C 133.574219 22.480469 130.476562 23.144531 131.859375 23.09375 C 132.140625 23.078125 132.089844 23.863281 133.972656 23.996094 C 134.839844 24.496094 135.886719 24.613281 134.488281 26.894531 C 133.957031 26.945312 133.386719 26.976562 133.339844 26.925781 C 133.054688 26.59375 130.40625 27.3125 129.859375 27.394531 C 129.125 27.492188 133.738281 27.445312 134.585938 27.527344 C 134.644531 27.53125 134.699219 27.523438 134.753906 27.511719 C 136.136719 28.527344 141.414062 29.792969 138.148438 31.007812 C 138.050781 31.039062 129.308594 31.574219 126.929688 32.1875 C 123 33.222656 119.949219 32.105469 117.355469 33.503906 C 116.320312 34.054688 90.796875 32.539062 90.726562 32.453125 C 90.746094 32.4375 93.460938 33.65625 88.28125 33.65625 C 86.816406 33.65625 72.628906 34.253906 72.578125 33.539062 C 72.363281 30.492188 63.6875 33.304688 60.140625 33.304688 C 56.777344 33.304688 52.050781 34.488281 49.816406 31.707031 C 49.085938 30.804688 42.808594 31.957031 38.226562 30.941406 C 38.34375 30.722656 38.5625 30.539062 39.078125 30.539062 C 40.09375 30.539062 40.363281 30.222656 40.59375 30.238281 C 42.859375 30.339844 40.511719 29.65625 42.925781 29.65625 C 44.855469 29.65625 44.824219 29.640625 46.605469 29.375 C 50.300781 28.824219 44.472656 29.140625 44.40625 29.140625 C 42.976562 29.324219 41.925781 29.074219 40.761719 29.125 C 40.128906 29.15625 40.160156 29.839844 37.699219 29.839844 C 37.148438 29.839844 36.695312 30.039062 36.265625 30.304688 C 34 29.722656 20.429688 35.5 20.429688 32.953125 C 20.429688 28.027344 20.78125 32.253906 19.414062 29.957031 C 18.414062 28.308594 26.589844 24.027344 15.886719 26.058594 C 15.335938 26.160156 14.285156 25.195312 14.984375 23.960938 C 15.335938 23.8125 15.636719 23.679688 15.835938 23.628906 C 16.765625 23.363281 16.652344 23.0625 16.800781 23.046875 C 19.949219 22.582031 18.199219 21.964844 18.183594 21.949219 C 19.066406 21.53125 19.882812 22.03125 18.550781 21.445312 C 18.484375 21.414062 18.367188 21.378906 18.25 21.332031 C 18.480469 20.949219 18.316406 20.628906 18.117188 20.28125 C 18.847656 19.949219 18.332031 19.929688 18.582031 19.730469 C 19.730469 18.828125 19.082031 19.53125 18.863281 19.03125 C 18.449219 18.128906 22.328125 18.496094 20.296875 18.046875 C 18.050781 17.566406 19.179688 17.582031 18.78125 17.332031 C 17.914062 16.765625 19.746094 16.832031 18.632812 16.648438 C 16.566406 16.316406 19.714844 15.984375 19.730469 15.996094 L 16.054688 15.996094 C 15.386719 15.847656 14.855469 15.714844 14.96875 15.398438 C 15.804688 14.964844 16.800781 14.445312 16.300781 14.445312 L 16.21875 14.445312 C 16.34375 14.355469 16.4375 14.238281 16.503906 14.09375 C 17.417969 13.828125 19 13.511719 19.082031 13.511719 C 19.449219 13.511719 17.835938 13.496094 16.417969 13.511719 C 16.003906 12.695312 14.519531 11.746094 13.953125 10.78125 C 15.621094 9.832031 14.671875 10.414062 15.453125 10.414062 C 16.253906 10.414062 16.601562 10.097656 16.785156 10.113281 C 18.21875 10.183594 18.234375 10.265625 19.648438 9.980469 C 20.933594 9.730469 20.351562 10.582031 22.28125 9.679688 C 22.429688 9.597656 21.28125 9.648438 21.082031 9.648438 C 20.214844 9.648438 19.265625 9.316406 18.964844 9.382812 C 18.699219 9.433594 16.121094 9.582031 15.886719 9.515625 C 14.96875 9.25 14.820312 9.882812 14.371094 9.25 C 14.304688 9.148438 13.871094 9.300781 13.4375 9.480469 C 12.191406 8.648438 7.726562 9.230469 11.042969 5.550781 C 11.15625 5.417969 11.324219 5.585938 11.457031 5.535156 Z M 11.457031 5.546875 " fill-opacity="1" fill-rule="evenodd"/></g><g fill="#cfc813" fill-opacity="1"><g transform="translate(39.970877, 20.473343)"><g><path d="M 2.363281 0.519531 C 2.261719 0.519531 2.167969 0.5 2.078125 0.457031 C 1.984375 0.40625 1.90625 0.339844 1.84375 0.246094 C 1.769531 0.132812 1.730469 -0.0078125 1.730469 -0.167969 C 1.730469 -0.535156 1.941406 -0.90625 2.363281 -1.28125 L 2.707031 -0.890625 L 2.339844 -1.257812 C 2.488281 -1.402344 2.582031 -1.535156 2.632812 -1.648438 C 2.691406 -1.789062 2.765625 -2.085938 2.851562 -2.542969 L 3.890625 -8.480469 L 4.402344 -8.390625 L 4.402344 -7.871094 L 3.570312 -7.871094 C 3.269531 -7.871094 3.015625 -7.855469 2.816406 -7.824219 C 2.65625 -7.796875 2.539062 -7.765625 2.472656 -7.730469 C 2.402344 -7.691406 2.367188 -7.585938 2.367188 -7.417969 C 2.367188 -7.261719 2.390625 -7.132812 2.433594 -7.03125 C 2.539062 -6.796875 2.589844 -6.625 2.589844 -6.515625 C 2.589844 -6.300781 2.496094 -6.046875 2.304688 -5.757812 C 2.148438 -5.519531 1.972656 -5.308594 1.773438 -5.121094 C 1.507812 -4.871094 1.253906 -4.742188 1.015625 -4.742188 C 0.90625 -4.742188 0.808594 -4.769531 0.714844 -4.820312 C 0.628906 -4.863281 0.558594 -4.929688 0.5 -5.011719 C 0.492188 -5.019531 0.488281 -5.027344 0.484375 -5.035156 C 0.488281 -5.027344 0.496094 -5.019531 0.507812 -5.007812 L 0.441406 -5.070312 L 0.402344 -5.15625 C 0.222656 -5.539062 0.132812 -5.992188 0.132812 -6.515625 C 0.132812 -7.199219 0.304688 -7.820312 0.65625 -8.382812 C 1.003906 -8.941406 1.488281 -9.378906 2.113281 -9.695312 C 2.722656 -10.007812 3.414062 -10.164062 4.179688 -10.164062 L 7.15625 -10.164062 C 7.632812 -10.164062 7.949219 -10.203125 8.097656 -10.28125 C 8.117188 -10.292969 8.128906 -10.304688 8.136719 -10.316406 C 8.152344 -10.347656 8.160156 -10.402344 8.160156 -10.476562 C 8.160156 -10.601562 8.136719 -10.714844 8.082031 -10.816406 C 8.027344 -10.917969 7.988281 -11.003906 7.957031 -11.074219 C 7.910156 -11.191406 7.882812 -11.300781 7.882812 -11.390625 C 7.882812 -11.503906 7.914062 -11.628906 7.976562 -11.765625 C 8.015625 -11.855469 8.074219 -11.960938 8.148438 -12.082031 C 8.289062 -12.308594 8.441406 -12.519531 8.609375 -12.710938 C 8.703125 -12.824219 8.796875 -12.914062 8.878906 -12.976562 C 9.027344 -13.089844 9.179688 -13.148438 9.335938 -13.148438 C 9.480469 -13.148438 9.605469 -13.105469 9.71875 -13.023438 C 9.757812 -12.996094 9.789062 -12.96875 9.816406 -12.941406 L 9.847656 -12.902344 C 10.027344 -12.6875 10.15625 -12.421875 10.242188 -12.101562 C 10.320312 -11.8125 10.355469 -11.511719 10.355469 -11.195312 C 10.355469 -10.15625 9.96875 -9.332031 9.191406 -8.730469 C 8.453125 -8.15625 7.488281 -7.871094 6.292969 -7.871094 L 5.890625 -7.871094 L 5.890625 -8.390625 L 6.402344 -8.300781 L 5.246094 -1.714844 L 5.246094 -1.703125 C 5.152344 -1.308594 4.984375 -1.011719 4.734375 -0.804688 L 4.402344 -1.207031 L 4.925781 -1.207031 L 4.925781 -1.195312 L 4.402344 -1.195312 L 4.648438 -1.65625 C 4.730469 -1.613281 4.832031 -1.589844 4.960938 -1.589844 C 5.027344 -1.589844 5.097656 -1.605469 5.171875 -1.632812 C 5.363281 -1.707031 5.511719 -1.742188 5.613281 -1.742188 C 5.832031 -1.742188 6 -1.664062 6.121094 -1.507812 C 6.203125 -1.394531 6.246094 -1.257812 6.246094 -1.097656 C 6.246094 -0.914062 6.195312 -0.742188 6.097656 -0.585938 C 6.058594 -0.523438 6.039062 -0.492188 6.035156 -0.488281 L 6.011719 -0.4375 L 5.972656 -0.390625 C 5.710938 -0.078125 5.46875 0.148438 5.242188 0.285156 C 4.984375 0.441406 4.722656 0.519531 4.460938 0.519531 C 4.335938 0.519531 4.195312 0.503906 4.039062 0.464844 C 3.929688 0.4375 3.855469 0.421875 3.816406 0.414062 L 3.789062 0.410156 L 3.761719 0.402344 C 3.542969 0.332031 3.363281 0.300781 3.222656 0.300781 C 3.09375 0.300781 2.976562 0.320312 2.878906 0.363281 C 2.644531 0.46875 2.472656 0.519531 2.363281 0.519531 Z M 2.363281 -0.519531 C 2.324219 -0.519531 2.292969 -0.519531 2.265625 -0.511719 C 2.269531 -0.511719 2.277344 -0.511719 2.289062 -0.515625 C 2.328125 -0.53125 2.382812 -0.554688 2.457031 -0.585938 C 2.691406 -0.691406 2.945312 -0.742188 3.222656 -0.742188 C 3.46875 -0.742188 3.753906 -0.695312 4.070312 -0.59375 L 3.917969 -0.0976562 L 4.019531 -0.609375 C 4.074219 -0.597656 4.160156 -0.578125 4.28125 -0.546875 C 4.359375 -0.53125 4.417969 -0.519531 4.460938 -0.519531 C 4.527344 -0.519531 4.609375 -0.550781 4.703125 -0.605469 C 4.828125 -0.683594 4.984375 -0.832031 5.167969 -1.054688 L 5.570312 -0.722656 L 5.105469 -0.957031 C 5.121094 -0.988281 5.15625 -1.050781 5.210938 -1.136719 C 5.207031 -1.128906 5.203125 -1.113281 5.203125 -1.097656 C 5.203125 -1.027344 5.230469 -0.957031 5.285156 -0.882812 C 5.347656 -0.800781 5.421875 -0.746094 5.515625 -0.71875 C 5.550781 -0.707031 5.582031 -0.703125 5.613281 -0.703125 C 5.640625 -0.703125 5.660156 -0.703125 5.679688 -0.707031 C 5.679688 -0.707031 5.675781 -0.707031 5.667969 -0.703125 C 5.636719 -0.695312 5.59375 -0.679688 5.539062 -0.660156 C 5.347656 -0.585938 5.152344 -0.546875 4.960938 -0.546875 C 4.660156 -0.546875 4.394531 -0.609375 4.160156 -0.734375 L 3.882812 -0.882812 L 3.882812 -1.453125 L 4.074219 -1.609375 C 4.140625 -1.664062 4.191406 -1.773438 4.230469 -1.9375 L 4.738281 -1.820312 L 4.222656 -1.910156 L 5.453125 -8.910156 L 6.292969 -8.910156 C 7.25 -8.910156 8 -9.125 8.550781 -9.550781 C 9.058594 -9.949219 9.316406 -10.496094 9.316406 -11.195312 C 9.316406 -11.421875 9.289062 -11.632812 9.234375 -11.835938 C 9.1875 -12.007812 9.125 -12.140625 9.042969 -12.242188 L 9.445312 -12.574219 L 9.078125 -12.203125 C 9.085938 -12.199219 9.089844 -12.191406 9.09375 -12.1875 C 9.09375 -12.1875 9.09375 -12.1875 9.09375 -12.191406 C 9.167969 -12.132812 9.246094 -12.105469 9.335938 -12.105469 C 9.394531 -12.105469 9.445312 -12.117188 9.492188 -12.140625 C 9.5 -12.144531 9.507812 -12.148438 9.515625 -12.152344 C 9.488281 -12.128906 9.449219 -12.089844 9.394531 -12.03125 C 9.265625 -11.878906 9.148438 -11.714844 9.035156 -11.535156 C 8.984375 -11.453125 8.949219 -11.386719 8.925781 -11.335938 C 8.921875 -11.324219 8.917969 -11.316406 8.917969 -11.3125 C 8.921875 -11.332031 8.925781 -11.359375 8.925781 -11.390625 C 8.925781 -11.429688 8.921875 -11.464844 8.914062 -11.492188 C 8.914062 -11.488281 8.917969 -11.484375 8.921875 -11.472656 C 8.9375 -11.433594 8.964844 -11.375 9.003906 -11.300781 C 9.136719 -11.050781 9.203125 -10.773438 9.203125 -10.476562 C 9.203125 -10.230469 9.15625 -10.019531 9.058594 -9.835938 C 8.953125 -9.628906 8.796875 -9.472656 8.585938 -9.363281 C 8.28125 -9.199219 7.804688 -9.121094 7.15625 -9.121094 L 4.179688 -9.121094 C 3.578125 -9.121094 3.046875 -9.003906 2.585938 -8.765625 C 2.132812 -8.539062 1.785156 -8.226562 1.539062 -7.832031 C 1.296875 -7.4375 1.175781 -7 1.175781 -6.515625 C 1.175781 -6.148438 1.230469 -5.84375 1.347656 -5.597656 L 0.875 -5.375 L 1.242188 -5.746094 C 1.273438 -5.714844 1.308594 -5.671875 1.347656 -5.617188 C 1.3125 -5.667969 1.265625 -5.707031 1.210938 -5.734375 C 1.148438 -5.769531 1.082031 -5.785156 1.015625 -5.785156 C 0.984375 -5.785156 0.957031 -5.78125 0.933594 -5.773438 C 0.925781 -5.773438 0.925781 -5.773438 0.921875 -5.769531 C 0.921875 -5.769531 0.925781 -5.773438 0.925781 -5.773438 C 0.960938 -5.792969 1.003906 -5.828125 1.058594 -5.878906 C 1.195312 -6.011719 1.320312 -6.160156 1.433594 -6.328125 C 1.484375 -6.40625 1.519531 -6.46875 1.539062 -6.519531 C 1.546875 -6.53125 1.550781 -6.542969 1.550781 -6.550781 C 1.550781 -6.542969 1.546875 -6.53125 1.546875 -6.515625 C 1.546875 -6.480469 1.550781 -6.449219 1.558594 -6.421875 C 1.558594 -6.421875 1.554688 -6.429688 1.550781 -6.441406 C 1.539062 -6.480469 1.515625 -6.535156 1.484375 -6.609375 C 1.378906 -6.84375 1.328125 -7.113281 1.328125 -7.417969 C 1.328125 -7.683594 1.375 -7.914062 1.46875 -8.113281 C 1.578125 -8.339844 1.742188 -8.511719 1.960938 -8.636719 C 2.285156 -8.820312 2.820312 -8.910156 3.570312 -8.910156 L 5.023438 -8.910156 L 3.875 -2.347656 C 3.773438 -1.820312 3.679688 -1.453125 3.59375 -1.242188 C 3.492188 -1.003906 3.320312 -0.761719 3.078125 -0.519531 L 3.054688 -0.496094 C 2.9375 -0.394531 2.855469 -0.304688 2.804688 -0.226562 C 2.789062 -0.203125 2.777344 -0.183594 2.773438 -0.164062 L 2.773438 -0.167969 C 2.773438 -0.214844 2.75 -0.269531 2.710938 -0.332031 C 2.671875 -0.394531 2.613281 -0.441406 2.546875 -0.476562 C 2.488281 -0.507812 2.425781 -0.519531 2.363281 -0.519531 Z M 2.363281 -0.519531 "/></g></g></g><g fill="#cfc813" fill-opacity="1"><g transform="translate(47.068046, 20.473343)"><g><path d="M 1.152344 0.660156 C 0.90625 0.660156 0.6875 0.597656 0.488281 0.46875 C 0.304688 0.351562 0.148438 0.183594 0.0273438 -0.0351562 C -0.179688 -0.402344 -0.285156 -0.871094 -0.285156 -1.445312 C -0.285156 -2.289062 -0.0820312 -3.152344 0.328125 -4.027344 C 0.734375 -4.902344 1.292969 -5.632812 2.003906 -6.214844 C 2.746094 -6.828125 3.558594 -7.132812 4.429688 -7.132812 C 4.710938 -7.132812 4.992188 -7.101562 5.265625 -7.035156 C 5.550781 -6.96875 5.789062 -6.882812 5.980469 -6.773438 L 6.378906 -6.550781 L 6.207031 -6.125 C 6.132812 -5.949219 6.085938 -5.8125 6.066406 -5.710938 C 6.039062 -5.578125 6.015625 -5.488281 6.007812 -5.445312 L 5.5 -5.570312 L 6.011719 -5.472656 C 5.949219 -5.140625 5.855469 -4.632812 5.730469 -3.957031 L 5.375 -2.003906 C 5.324219 -1.753906 5.300781 -1.574219 5.300781 -1.457031 C 5.300781 -1.449219 5.300781 -1.441406 5.300781 -1.433594 L 5.300781 -1.4375 C 5.292969 -1.46875 5.277344 -1.5 5.253906 -1.535156 C 5.21875 -1.585938 5.171875 -1.628906 5.113281 -1.65625 C 5.066406 -1.675781 5.019531 -1.6875 4.972656 -1.6875 C 4.949219 -1.6875 4.925781 -1.683594 4.910156 -1.671875 C 4.925781 -1.683594 4.949219 -1.707031 4.972656 -1.746094 C 5.085938 -1.90625 5.207031 -2.144531 5.34375 -2.457031 L 5.820312 -2.25 L 5.328125 -2.414062 C 5.363281 -2.523438 5.410156 -2.621094 5.472656 -2.703125 C 5.605469 -2.878906 5.78125 -2.964844 6 -2.964844 C 6.105469 -2.964844 6.207031 -2.941406 6.296875 -2.894531 C 6.394531 -2.84375 6.472656 -2.773438 6.535156 -2.679688 C 6.609375 -2.558594 6.648438 -2.417969 6.648438 -2.25 C 6.648438 -2.144531 6.636719 -2.050781 6.617188 -1.972656 L 6.113281 -2.097656 L 6.628906 -2.03125 C 6.574219 -1.613281 6.433594 -1.199219 6.207031 -0.792969 C 5.976562 -0.386719 5.695312 -0.0507812 5.359375 0.214844 C 4.980469 0.511719 4.585938 0.660156 4.167969 0.660156 C 3.753906 0.660156 3.429688 0.503906 3.191406 0.191406 C 2.984375 -0.078125 2.882812 -0.417969 2.882812 -0.832031 C 2.882812 -0.929688 2.894531 -1.0625 2.914062 -1.230469 L 2.984375 -1.714844 L 3.5 -1.640625 L 3.5 -1.117188 L 3.472656 -1.117188 L 3.472656 -1.640625 L 3.90625 -1.351562 C 3.53125 -0.785156 3.101562 -0.316406 2.613281 0.0546875 C 2.082031 0.457031 1.59375 0.660156 1.152344 0.660156 Z M 1.152344 -0.382812 C 1.359375 -0.382812 1.636719 -0.511719 1.984375 -0.777344 C 2.378906 -1.074219 2.726562 -1.457031 3.039062 -1.925781 L 3.191406 -2.160156 L 4.105469 -2.160156 L 3.949219 -1.101562 C 3.933594 -0.976562 3.925781 -0.886719 3.925781 -0.832031 C 3.925781 -0.65625 3.957031 -0.523438 4.019531 -0.441406 C 4.050781 -0.402344 4.097656 -0.382812 4.167969 -0.382812 C 4.34375 -0.382812 4.527344 -0.457031 4.714844 -0.605469 C 4.941406 -0.785156 5.136719 -1.015625 5.296875 -1.304688 C 5.457031 -1.59375 5.558594 -1.878906 5.597656 -2.164062 L 5.601562 -2.195312 L 5.605469 -2.222656 C 5.605469 -2.21875 5.605469 -2.214844 5.605469 -2.210938 C 5.605469 -2.21875 5.605469 -2.234375 5.605469 -2.25 C 5.605469 -2.246094 5.605469 -2.238281 5.609375 -2.226562 C 5.617188 -2.1875 5.632812 -2.152344 5.65625 -2.113281 C 5.695312 -2.054688 5.75 -2.003906 5.816406 -1.96875 C 5.875 -1.9375 5.9375 -1.925781 6 -1.925781 C 6.128906 -1.925781 6.230469 -1.976562 6.308594 -2.078125 C 6.3125 -2.082031 6.316406 -2.089844 6.316406 -2.09375 C 6.316406 -2.09375 6.316406 -2.089844 6.316406 -2.085938 L 6.308594 -2.0625 L 6.300781 -2.042969 C 6.136719 -1.671875 5.984375 -1.375 5.835938 -1.15625 C 5.601562 -0.816406 5.3125 -0.644531 4.972656 -0.644531 C 4.863281 -0.644531 4.757812 -0.667969 4.664062 -0.714844 C 4.558594 -0.765625 4.46875 -0.839844 4.402344 -0.9375 C 4.304688 -1.074219 4.257812 -1.246094 4.257812 -1.457031 C 4.257812 -1.640625 4.289062 -1.886719 4.347656 -2.191406 L 4.703125 -4.144531 C 4.828125 -4.824219 4.925781 -5.335938 4.988281 -5.671875 L 4.996094 -5.695312 C 5.003906 -5.726562 5.019531 -5.804688 5.046875 -5.929688 C 5.082031 -6.089844 5.144531 -6.285156 5.242188 -6.519531 L 5.722656 -6.320312 L 5.46875 -5.867188 C 5.363281 -5.925781 5.214844 -5.976562 5.027344 -6.023438 C 4.832031 -6.066406 4.632812 -6.089844 4.429688 -6.089844 C 3.804688 -6.089844 3.21875 -5.863281 2.664062 -5.410156 C 2.078125 -4.929688 1.613281 -4.320312 1.269531 -3.585938 C 0.929688 -2.851562 0.757812 -2.136719 0.757812 -1.445312 C 0.757812 -1.054688 0.816406 -0.753906 0.933594 -0.546875 C 0.972656 -0.480469 1.011719 -0.433594 1.050781 -0.40625 C 1.078125 -0.390625 1.109375 -0.382812 1.152344 -0.382812 Z M 1.945312 -1.757812 C 1.933594 -1.757812 1.925781 -1.757812 1.917969 -1.753906 L 1.921875 -1.757812 C 1.941406 -1.765625 1.964844 -1.777344 1.996094 -1.800781 C 2.09375 -1.867188 2.207031 -1.972656 2.339844 -2.125 C 2.628906 -2.449219 2.902344 -2.871094 3.160156 -3.382812 C 3.414062 -3.886719 3.582031 -4.386719 3.667969 -4.878906 L 3.765625 -5.425781 L 4.277344 -5.335938 L 4.011719 -4.886719 C 3.863281 -4.976562 3.738281 -5.023438 3.640625 -5.023438 C 3.507812 -5.023438 3.34375 -4.902344 3.144531 -4.664062 C 2.886719 -4.347656 2.671875 -3.929688 2.503906 -3.414062 C 2.328125 -2.890625 2.242188 -2.351562 2.242188 -1.804688 C 2.242188 -1.714844 2.246094 -1.640625 2.253906 -1.582031 C 2.253906 -1.5625 2.257812 -1.546875 2.257812 -1.535156 L 2.261719 -1.535156 C 2.257812 -1.539062 2.257812 -1.546875 2.253906 -1.554688 C 2.230469 -1.609375 2.1875 -1.65625 2.132812 -1.695312 C 2.074219 -1.738281 2.011719 -1.757812 1.945312 -1.757812 Z M 1.945312 -0.714844 C 1.796875 -0.714844 1.664062 -0.753906 1.546875 -0.835938 C 1.429688 -0.914062 1.34375 -1.019531 1.289062 -1.15625 C 1.230469 -1.296875 1.203125 -1.515625 1.203125 -1.804688 C 1.203125 -2.464844 1.304688 -3.109375 1.511719 -3.738281 C 1.722656 -4.378906 2 -4.910156 2.339844 -5.324219 C 2.746094 -5.816406 3.179688 -6.0625 3.640625 -6.0625 C 3.929688 -6.0625 4.234375 -5.96875 4.546875 -5.78125 L 4.855469 -5.597656 L 4.695312 -4.707031 C 4.59375 -4.109375 4.394531 -3.507812 4.089844 -2.910156 C 3.792969 -2.320312 3.46875 -1.828125 3.121094 -1.433594 C 2.933594 -1.21875 2.753906 -1.058594 2.589844 -0.941406 C 2.371094 -0.792969 2.15625 -0.714844 1.945312 -0.714844 Z M 4.070312 -6.605469 C 3.859375 -6.605469 3.683594 -6.667969 3.546875 -6.796875 C 3.402344 -6.9375 3.328125 -7.113281 3.328125 -7.335938 C 3.328125 -7.625 3.402344 -7.882812 3.554688 -8.109375 C 3.664062 -8.273438 3.824219 -8.46875 4.039062 -8.695312 C 4.1875 -8.851562 4.292969 -8.972656 4.351562 -9.054688 C 4.363281 -9.074219 4.367188 -9.097656 4.367188 -9.128906 C 4.367188 -9.132812 4.367188 -9.136719 4.367188 -9.136719 C 4.371094 -9.132812 4.371094 -9.125 4.375 -9.117188 C 4.386719 -9.085938 4.40625 -9.0625 4.429688 -9.039062 C 4.445312 -9.027344 4.460938 -9.019531 4.46875 -9.015625 C 4.453125 -9.019531 4.425781 -9.023438 4.390625 -9.023438 C 4.214844 -9.023438 4.042969 -8.921875 3.867188 -8.71875 L 3.855469 -8.703125 L 3.839844 -8.6875 C 3.675781 -8.523438 3.496094 -8.4375 3.304688 -8.4375 C 3.097656 -8.4375 2.929688 -8.515625 2.800781 -8.667969 C 2.699219 -8.792969 2.644531 -8.945312 2.644531 -9.128906 C 2.644531 -9.386719 2.726562 -9.625 2.882812 -9.847656 L 3.304688 -9.542969 L 2.859375 -9.808594 C 3.058594 -10.144531 3.335938 -10.40625 3.691406 -10.589844 C 4.035156 -10.769531 4.417969 -10.855469 4.835938 -10.855469 C 5.347656 -10.855469 5.769531 -10.722656 6.09375 -10.449219 C 6.445312 -10.15625 6.621094 -9.78125 6.621094 -9.320312 C 6.621094 -9.007812 6.542969 -8.730469 6.390625 -8.492188 C 6.277344 -8.3125 6.105469 -8.101562 5.878906 -7.863281 L 5.871094 -7.855469 C 5.75 -7.734375 5.652344 -7.628906 5.585938 -7.535156 C 5.539062 -7.476562 5.507812 -7.414062 5.488281 -7.34375 L 4.988281 -7.488281 L 5.507812 -7.488281 C 5.507812 -7.128906 5.273438 -6.878906 4.808594 -6.734375 C 4.535156 -6.648438 4.289062 -6.605469 4.070312 -6.605469 Z M 4.070312 -7.648438 C 4.183594 -7.648438 4.328125 -7.675781 4.5 -7.726562 C 4.53125 -7.738281 4.558594 -7.75 4.578125 -7.757812 C 4.585938 -7.761719 4.589844 -7.761719 4.59375 -7.765625 C 4.589844 -7.765625 4.589844 -7.761719 4.585938 -7.761719 C 4.5625 -7.742188 4.539062 -7.714844 4.519531 -7.679688 C 4.484375 -7.621094 4.464844 -7.558594 4.464844 -7.488281 L 4.464844 -7.5625 L 4.484375 -7.632812 C 4.539062 -7.824219 4.628906 -8 4.75 -8.160156 C 4.847656 -8.292969 4.976562 -8.4375 5.132812 -8.59375 L 5.5 -8.222656 L 5.125 -8.585938 C 5.304688 -8.773438 5.433594 -8.929688 5.511719 -9.050781 C 5.554688 -9.121094 5.578125 -9.210938 5.578125 -9.320312 C 5.578125 -9.457031 5.527344 -9.566406 5.425781 -9.652344 C 5.292969 -9.761719 5.097656 -9.816406 4.835938 -9.816406 C 4.585938 -9.816406 4.363281 -9.765625 4.171875 -9.664062 C 3.992188 -9.570312 3.851562 -9.441406 3.753906 -9.277344 L 3.742188 -9.257812 L 3.730469 -9.242188 C 3.703125 -9.203125 3.6875 -9.164062 3.6875 -9.128906 C 3.6875 -9.199219 3.660156 -9.265625 3.601562 -9.335938 C 3.519531 -9.433594 3.421875 -9.480469 3.304688 -9.480469 C 3.234375 -9.480469 3.171875 -9.464844 3.121094 -9.433594 C 3.109375 -9.429688 3.105469 -9.425781 3.097656 -9.421875 C 3.097656 -9.421875 3.101562 -9.421875 3.105469 -9.425781 L 3.472656 -9.058594 L 3.078125 -9.398438 C 3.460938 -9.84375 3.898438 -10.066406 4.390625 -10.066406 C 4.683594 -10.066406 4.917969 -9.988281 5.097656 -9.839844 C 5.308594 -9.667969 5.410156 -9.429688 5.410156 -9.128906 C 5.410156 -8.878906 5.34375 -8.65625 5.207031 -8.460938 C 5.117188 -8.332031 4.980469 -8.171875 4.792969 -7.976562 C 4.621094 -7.792969 4.496094 -7.644531 4.421875 -7.53125 C 4.386719 -7.480469 4.371094 -7.414062 4.371094 -7.335938 C 4.371094 -7.359375 4.363281 -7.386719 4.351562 -7.417969 C 4.335938 -7.472656 4.304688 -7.519531 4.261719 -7.558594 C 4.21875 -7.597656 4.175781 -7.621094 4.128906 -7.636719 C 4.105469 -7.644531 4.085938 -7.648438 4.070312 -7.648438 Z M 4.070312 -7.648438 "/></g></g></g><g fill="#cfc813" fill-opacity="1"><g transform="translate(53.415414, 20.473343)"><g><path d="M 2.152344 -6.5625 C 1.921875 -6.5625 1.746094 -6.640625 1.621094 -6.792969 C 1.507812 -6.933594 1.46875 -7.113281 1.5 -7.324219 L 1.5 -7.335938 L 1.695312 -8.441406 C 1.773438 -8.855469 1.960938 -9.195312 2.253906 -9.453125 C 2.554688 -9.722656 2.960938 -9.855469 3.472656 -9.855469 L 3.585938 -9.855469 C 3.789062 -9.855469 3.953125 -9.785156 4.082031 -9.648438 C 4.207031 -9.507812 4.261719 -9.339844 4.242188 -9.136719 L 4.238281 -9.113281 L 4.042969 -7.996094 C 3.964844 -7.53125 3.765625 -7.175781 3.445312 -6.925781 C 3.140625 -6.683594 2.742188 -6.5625 2.25 -6.5625 Z M 2.152344 -7.605469 L 2.25 -7.605469 C 2.5 -7.605469 2.6875 -7.652344 2.804688 -7.746094 C 2.910156 -7.828125 2.980469 -7.972656 3.015625 -8.175781 L 3.210938 -9.273438 L 3.722656 -9.183594 L 3.203125 -9.230469 C 3.203125 -9.199219 3.203125 -9.164062 3.214844 -9.125 C 3.230469 -9.058594 3.261719 -9 3.308594 -8.945312 C 3.359375 -8.894531 3.414062 -8.855469 3.480469 -8.832031 C 3.515625 -8.820312 3.550781 -8.8125 3.585938 -8.8125 L 3.472656 -8.8125 C 3.226562 -8.8125 3.046875 -8.769531 2.945312 -8.675781 C 2.828125 -8.574219 2.753906 -8.433594 2.722656 -8.257812 L 2.527344 -7.160156 L 2.015625 -7.25 L 2.53125 -7.179688 C 2.53125 -7.1875 2.53125 -7.203125 2.527344 -7.226562 C 2.519531 -7.304688 2.488281 -7.378906 2.433594 -7.445312 C 2.375 -7.519531 2.300781 -7.570312 2.210938 -7.597656 C 2.1875 -7.601562 2.167969 -7.605469 2.152344 -7.605469 Z M 1.570312 0.660156 C 1.167969 0.660156 0.859375 0.511719 0.640625 0.21875 C 0.457031 -0.0234375 0.367188 -0.359375 0.367188 -0.777344 C 0.367188 -0.972656 0.394531 -1.222656 0.445312 -1.53125 L 0.445312 -1.539062 L 1.113281 -4.90625 L 1.625 -4.808594 L 1.109375 -4.863281 C 1.125 -5.011719 1.132812 -5.09375 1.132812 -5.113281 C 1.132812 -5.109375 1.132812 -5.101562 1.136719 -5.089844 C 1.144531 -5.050781 1.160156 -5.011719 1.183594 -4.976562 C 1.222656 -4.914062 1.277344 -4.867188 1.34375 -4.832031 C 1.402344 -4.800781 1.464844 -4.785156 1.527344 -4.785156 C 1.59375 -4.785156 1.648438 -4.800781 1.6875 -4.828125 C 1.679688 -4.820312 1.664062 -4.804688 1.636719 -4.773438 C 1.546875 -4.660156 1.417969 -4.464844 1.257812 -4.183594 L 0.804688 -4.445312 L 1.273438 -4.210938 C 1.261719 -4.1875 1.238281 -4.144531 1.203125 -4.082031 C 1.144531 -3.976562 1.085938 -3.890625 1.019531 -3.828125 C 0.890625 -3.699219 0.742188 -3.632812 0.570312 -3.632812 C 0.453125 -3.632812 0.347656 -3.660156 0.25 -3.71875 C 0.152344 -3.777344 0.078125 -3.855469 0.0234375 -3.953125 C -0.0429688 -4.070312 -0.078125 -4.210938 -0.078125 -4.375 C -0.078125 -4.734375 0.0625 -5.132812 0.335938 -5.574219 C 0.589844 -5.984375 0.910156 -6.335938 1.292969 -6.636719 C 1.71875 -6.96875 2.148438 -7.132812 2.582031 -7.132812 C 2.953125 -7.132812 3.238281 -7 3.4375 -6.730469 C 3.605469 -6.507812 3.6875 -6.210938 3.6875 -5.835938 C 3.6875 -5.65625 3.652344 -5.371094 3.582031 -4.980469 L 2.882812 -1.375 L 2.882812 -1.359375 C 2.875 -1.335938 2.871094 -1.3125 2.867188 -1.300781 L 2.867188 -1.296875 C 2.867188 -1.308594 2.867188 -1.320312 2.867188 -1.332031 C 2.867188 -1.414062 2.835938 -1.488281 2.769531 -1.5625 C 2.691406 -1.644531 2.601562 -1.6875 2.5 -1.6875 C 2.46875 -1.6875 2.4375 -1.683594 2.410156 -1.671875 C 2.398438 -1.667969 2.394531 -1.667969 2.390625 -1.664062 C 2.417969 -1.683594 2.457031 -1.722656 2.5 -1.78125 C 2.625 -1.9375 2.746094 -2.160156 2.867188 -2.449219 L 3.347656 -2.25 L 2.855469 -2.425781 C 2.902344 -2.550781 2.960938 -2.65625 3.027344 -2.734375 C 3.160156 -2.890625 3.324219 -2.964844 3.515625 -2.964844 C 3.636719 -2.964844 3.746094 -2.933594 3.847656 -2.871094 C 3.941406 -2.8125 4.015625 -2.730469 4.070312 -2.628906 C 4.128906 -2.515625 4.160156 -2.375 4.160156 -2.207031 C 4.160156 -1.789062 4.03125 -1.359375 3.769531 -0.910156 C 3.523438 -0.488281 3.214844 -0.132812 2.847656 0.164062 C 2.433594 0.496094 2.007812 0.660156 1.570312 0.660156 Z M 1.570312 -0.382812 C 1.761719 -0.382812 1.972656 -0.472656 2.195312 -0.652344 C 2.464844 -0.863281 2.691406 -1.125 2.871094 -1.4375 C 3.035156 -1.722656 3.117188 -1.976562 3.117188 -2.207031 C 3.117188 -2.214844 3.117188 -2.222656 3.117188 -2.226562 L 3.117188 -2.222656 C 3.121094 -2.199219 3.132812 -2.171875 3.148438 -2.140625 C 3.179688 -2.078125 3.230469 -2.027344 3.292969 -1.988281 C 3.359375 -1.945312 3.433594 -1.925781 3.515625 -1.925781 C 3.640625 -1.925781 3.742188 -1.96875 3.820312 -2.058594 C 3.832031 -2.070312 3.839844 -2.082031 3.847656 -2.09375 C 3.84375 -2.089844 3.84375 -2.085938 3.839844 -2.074219 L 3.835938 -2.0625 L 3.828125 -2.050781 C 3.671875 -1.671875 3.503906 -1.367188 3.320312 -1.136719 C 3.0625 -0.808594 2.789062 -0.644531 2.5 -0.644531 C 2.296875 -0.644531 2.128906 -0.714844 2 -0.855469 C 1.886719 -0.984375 1.828125 -1.144531 1.828125 -1.332031 C 1.828125 -1.402344 1.839844 -1.496094 1.871094 -1.613281 L 2.375 -1.488281 L 1.863281 -1.585938 L 2.558594 -5.164062 C 2.617188 -5.492188 2.644531 -5.71875 2.644531 -5.835938 C 2.644531 -5.921875 2.640625 -5.992188 2.625 -6.046875 C 2.617188 -6.078125 2.609375 -6.097656 2.605469 -6.105469 C 2.609375 -6.097656 2.617188 -6.09375 2.628906 -6.085938 C 2.621094 -6.089844 2.609375 -6.089844 2.582031 -6.089844 C 2.386719 -6.089844 2.171875 -6 1.929688 -5.8125 C 1.648438 -5.589844 1.410156 -5.328125 1.21875 -5.023438 C 1.050781 -4.753906 0.964844 -4.535156 0.964844 -4.375 C 0.960938 -4.402344 0.949219 -4.433594 0.929688 -4.464844 C 0.894531 -4.527344 0.84375 -4.578125 0.78125 -4.617188 C 0.714844 -4.65625 0.644531 -4.675781 0.570312 -4.675781 C 0.453125 -4.675781 0.359375 -4.636719 0.285156 -4.5625 C 0.277344 -4.554688 0.269531 -4.546875 0.265625 -4.542969 C 0.269531 -4.550781 0.277344 -4.5625 0.285156 -4.574219 C 0.3125 -4.628906 0.332031 -4.664062 0.339844 -4.679688 L 0.347656 -4.691406 L 0.355469 -4.707031 C 0.542969 -5.035156 0.703125 -5.28125 0.835938 -5.4375 C 1.050781 -5.699219 1.28125 -5.828125 1.527344 -5.828125 C 1.632812 -5.828125 1.730469 -5.804688 1.824219 -5.757812 C 1.921875 -5.707031 2 -5.632812 2.058594 -5.539062 C 2.136719 -5.421875 2.175781 -5.277344 2.175781 -5.113281 C 2.175781 -5.054688 2.164062 -4.933594 2.144531 -4.75 L 2.140625 -4.726562 L 1.46875 -1.34375 L 0.957031 -1.445312 L 1.472656 -1.359375 C 1.429688 -1.109375 1.410156 -0.914062 1.410156 -0.777344 C 1.410156 -0.585938 1.433594 -0.460938 1.476562 -0.402344 C 1.488281 -0.386719 1.519531 -0.382812 1.570312 -0.382812 Z M 1.570312 -0.382812 "/></g></g></g><g fill="#cfc813" fill-opacity="1"><g transform="translate(57.582207, 20.473343)"><g/></g></g><g fill="#cfc813" fill-opacity="1"><g transform="translate(61.471216, 20.473343)"><g><path d="M 3.210938 4.0625 C 2.761719 4.0625 2.355469 4 1.992188 3.875 C 1.609375 3.746094 1.304688 3.570312 1.074219 3.351562 C 0.789062 3.082031 0.644531 2.796875 0.644531 2.5 C 0.644531 2.257812 0.746094 1.988281 0.941406 1.691406 C 1.109375 1.441406 1.300781 1.222656 1.519531 1.039062 C 1.796875 0.804688 2.050781 0.6875 2.277344 0.6875 C 2.417969 0.6875 2.539062 0.726562 2.648438 0.800781 C 2.773438 0.894531 2.855469 1.019531 2.886719 1.175781 L 2.375 1.277344 L 2.875 1.125 C 2.964844 1.417969 3.085938 1.65625 3.238281 1.839844 C 3.335938 1.949219 3.519531 2.007812 3.792969 2.007812 C 3.980469 2.007812 4.121094 1.964844 4.21875 1.882812 C 4.335938 1.78125 4.445312 1.582031 4.539062 1.289062 C 4.65625 0.9375 4.757812 0.425781 4.847656 -0.234375 L 4.945312 -0.933594 L 5.460938 -0.859375 L 5.820312 -0.488281 C 5.128906 0.183594 4.304688 0.519531 3.347656 0.519531 C 2.359375 0.519531 1.578125 0.167969 1.011719 -0.535156 C 0.472656 -1.203125 0.203125 -2.167969 0.203125 -3.429688 C 0.203125 -4.6875 0.460938 -5.839844 0.976562 -6.878906 C 1.5 -7.925781 2.195312 -8.753906 3.070312 -9.367188 C 3.960938 -9.988281 4.929688 -10.300781 5.972656 -10.300781 C 6.65625 -10.300781 7.214844 -10.164062 7.648438 -9.894531 C 7.894531 -9.742188 8.082031 -9.550781 8.210938 -9.328125 C 8.34375 -9.097656 8.410156 -8.839844 8.410156 -8.558594 C 8.410156 -8.230469 8.296875 -7.855469 8.070312 -7.433594 L 8.0625 -7.417969 L 8.050781 -7.402344 C 7.949219 -7.242188 7.851562 -7.113281 7.757812 -7.011719 C 7.578125 -6.824219 7.371094 -6.730469 7.125 -6.730469 C 6.984375 -6.730469 6.859375 -6.765625 6.746094 -6.835938 C 6.621094 -6.914062 6.53125 -7.023438 6.476562 -7.164062 C 6.433594 -7.265625 6.402344 -7.394531 6.375 -7.542969 C 6.359375 -7.632812 6.347656 -7.703125 6.332031 -7.746094 L 6.332031 -7.757812 L 6.328125 -7.765625 C 6.292969 -7.917969 6.222656 -8.023438 6.121094 -8.089844 C 5.992188 -8.175781 5.800781 -8.21875 5.542969 -8.21875 C 5.039062 -8.21875 4.597656 -8.046875 4.21875 -7.707031 C 3.808594 -7.335938 3.488281 -6.820312 3.257812 -6.164062 C 3.015625 -5.476562 2.898438 -4.707031 2.898438 -3.847656 C 2.898438 -3.046875 3 -2.488281 3.210938 -2.171875 C 3.292969 -2.046875 3.394531 -1.957031 3.519531 -1.898438 C 3.652344 -1.832031 3.816406 -1.800781 4.015625 -1.800781 C 4.28125 -1.800781 4.511719 -1.855469 4.703125 -1.96875 C 4.898438 -2.082031 5.0625 -2.257812 5.203125 -2.496094 L 5.652344 -2.238281 L 5.136719 -2.308594 L 5.429688 -4.378906 L 5.945312 -4.304688 L 5.429688 -4.367188 C 5.46875 -4.722656 5.613281 -5.03125 5.859375 -5.289062 C 6.074219 -5.519531 6.324219 -5.691406 6.609375 -5.8125 C 6.894531 -5.933594 7.15625 -5.996094 7.40625 -5.996094 C 7.570312 -5.996094 7.710938 -5.960938 7.824219 -5.898438 C 7.9375 -5.832031 8.023438 -5.738281 8.078125 -5.613281 C 8.117188 -5.527344 8.132812 -5.433594 8.132812 -5.335938 C 8.132812 -5.234375 8.105469 -5.121094 8.054688 -4.996094 C 8.019531 -4.921875 7.972656 -4.832031 7.914062 -4.722656 C 7.847656 -4.605469 7.796875 -4.417969 7.769531 -4.164062 L 7.378906 -0.925781 C 7.191406 0.601562 6.746094 1.800781 6.046875 2.675781 C 5.304688 3.601562 4.359375 4.0625 3.210938 4.0625 Z M 3.210938 3.019531 C 4.023438 3.019531 4.699219 2.6875 5.234375 2.023438 C 5.8125 1.300781 6.179688 0.277344 6.34375 -1.046875 L 6.734375 -4.28125 C 6.777344 -4.675781 6.871094 -4.996094 7.007812 -5.238281 C 7.046875 -5.3125 7.078125 -5.367188 7.097656 -5.410156 C 7.101562 -5.421875 7.101562 -5.425781 7.101562 -5.429688 C 7.09375 -5.402344 7.089844 -5.371094 7.089844 -5.335938 C 7.089844 -5.289062 7.101562 -5.242188 7.125 -5.195312 C 7.160156 -5.109375 7.222656 -5.042969 7.304688 -4.992188 C 7.34375 -4.972656 7.378906 -4.957031 7.410156 -4.953125 C 7.414062 -4.953125 7.417969 -4.953125 7.417969 -4.953125 C 7.414062 -4.953125 7.410156 -4.953125 7.40625 -4.953125 C 7.300781 -4.953125 7.171875 -4.917969 7.019531 -4.855469 C 6.867188 -4.789062 6.734375 -4.695312 6.617188 -4.574219 C 6.527344 -4.480469 6.476562 -4.371094 6.464844 -4.246094 L 6.460938 -4.242188 L 6.15625 -2.0625 L 6.105469 -1.976562 C 5.875 -1.578125 5.582031 -1.273438 5.230469 -1.066406 C 4.875 -0.859375 4.46875 -0.757812 4.015625 -0.757812 C 3.65625 -0.757812 3.339844 -0.824219 3.058594 -0.960938 C 2.769531 -1.101562 2.53125 -1.3125 2.34375 -1.59375 C 2.019531 -2.082031 1.855469 -2.835938 1.855469 -3.847656 C 1.855469 -4.824219 1.992188 -5.710938 2.273438 -6.507812 C 2.5625 -7.332031 2.976562 -7.988281 3.519531 -8.480469 C 4.097656 -9 4.769531 -9.257812 5.542969 -9.257812 C 6.007812 -9.257812 6.390625 -9.160156 6.695312 -8.960938 C 7.023438 -8.746094 7.238281 -8.429688 7.339844 -8.015625 L 6.835938 -7.890625 L 7.335938 -8.035156 C 7.359375 -7.949219 7.382812 -7.84375 7.40625 -7.710938 C 7.417969 -7.636719 7.429688 -7.585938 7.445312 -7.550781 C 7.414062 -7.621094 7.367188 -7.675781 7.296875 -7.71875 C 7.242188 -7.753906 7.183594 -7.773438 7.125 -7.773438 C 7.070312 -7.773438 7.027344 -7.757812 6.996094 -7.726562 C 7.050781 -7.78125 7.109375 -7.863281 7.175781 -7.964844 L 7.613281 -7.683594 L 7.15625 -7.929688 C 7.296875 -8.195312 7.371094 -8.40625 7.371094 -8.558594 C 7.371094 -8.652344 7.351562 -8.734375 7.308594 -8.804688 C 7.265625 -8.878906 7.195312 -8.949219 7.09375 -9.011719 C 6.832031 -9.175781 6.457031 -9.257812 5.972656 -9.257812 C 5.148438 -9.257812 4.378906 -9.011719 3.667969 -8.511719 C 2.9375 -8.003906 2.355469 -7.304688 1.910156 -6.414062 C 1.464844 -5.519531 1.242188 -4.527344 1.242188 -3.429688 C 1.242188 -2.414062 1.4375 -1.667969 1.824219 -1.1875 C 2.179688 -0.742188 2.691406 -0.519531 3.347656 -0.519531 C 4.023438 -0.519531 4.605469 -0.757812 5.097656 -1.234375 L 6.1875 -2.289062 L 5.878906 -0.0976562 C 5.78125 0.628906 5.667969 1.199219 5.53125 1.613281 C 5.375 2.089844 5.164062 2.445312 4.894531 2.675781 C 4.605469 2.925781 4.234375 3.050781 3.792969 3.050781 C 3.195312 3.050781 2.746094 2.871094 2.441406 2.511719 C 2.199219 2.21875 2.007812 1.859375 1.878906 1.429688 L 1.871094 1.40625 L 1.863281 1.378906 C 1.886719 1.492188 1.945312 1.582031 2.042969 1.648438 C 2.117188 1.703125 2.195312 1.730469 2.277344 1.730469 C 2.304688 1.730469 2.332031 1.726562 2.351562 1.71875 C 2.351562 1.71875 2.355469 1.71875 2.355469 1.71875 C 2.351562 1.71875 2.347656 1.722656 2.34375 1.722656 C 2.304688 1.746094 2.253906 1.78125 2.191406 1.835938 C 2.046875 1.957031 1.921875 2.101562 1.808594 2.269531 C 1.757812 2.34375 1.722656 2.40625 1.703125 2.460938 C 1.695312 2.476562 1.691406 2.492188 1.6875 2.503906 L 1.6875 2.5 C 1.6875 2.488281 1.6875 2.476562 1.683594 2.46875 C 1.683594 2.46875 1.6875 2.472656 1.6875 2.476562 C 1.707031 2.507812 1.738281 2.546875 1.789062 2.59375 C 1.910156 2.710938 2.089844 2.808594 2.328125 2.890625 C 2.585938 2.976562 2.878906 3.019531 3.210938 3.019531 Z M 3.210938 3.019531 "/></g></g></g><g fill="#cfc813" fill-opacity="1"><g transform="translate(69.388062, 20.473343)"><g><path d="M 1.152344 0.660156 C 0.90625 0.660156 0.6875 0.597656 0.488281 0.46875 C 0.304688 0.351562 0.148438 0.183594 0.0273438 -0.0351562 C -0.179688 -0.402344 -0.285156 -0.871094 -0.285156 -1.445312 C -0.285156 -2.289062 -0.0820312 -3.152344 0.328125 -4.027344 C 0.734375 -4.902344 1.292969 -5.632812 2.003906 -6.214844 C 2.746094 -6.828125 3.558594 -7.132812 4.429688 -7.132812 C 4.710938 -7.132812 4.992188 -7.101562 5.265625 -7.035156 C 5.550781 -6.96875 5.789062 -6.882812 5.980469 -6.773438 L 6.378906 -6.550781 L 6.207031 -6.125 C 6.132812 -5.949219 6.085938 -5.8125 6.066406 -5.710938 C 6.039062 -5.578125 6.015625 -5.488281 6.007812 -5.445312 L 5.5 -5.570312 L 6.011719 -5.472656 C 5.949219 -5.140625 5.855469 -4.632812 5.730469 -3.957031 L 5.375 -2.003906 C 5.324219 -1.753906 5.300781 -1.574219 5.300781 -1.457031 C 5.300781 -1.449219 5.300781 -1.441406 5.300781 -1.433594 L 5.300781 -1.4375 C 5.292969 -1.46875 5.277344 -1.5 5.253906 -1.535156 C 5.21875 -1.585938 5.171875 -1.628906 5.113281 -1.65625 C 5.066406 -1.675781 5.019531 -1.6875 4.972656 -1.6875 C 4.949219 -1.6875 4.925781 -1.683594 4.910156 -1.671875 C 4.925781 -1.683594 4.949219 -1.707031 4.972656 -1.746094 C 5.085938 -1.90625 5.207031 -2.144531 5.34375 -2.457031 L 5.820312 -2.25 L 5.328125 -2.414062 C 5.363281 -2.523438 5.410156 -2.621094 5.472656 -2.703125 C 5.605469 -2.878906 5.78125 -2.964844 6 -2.964844 C 6.105469 -2.964844 6.207031 -2.941406 6.296875 -2.894531 C 6.394531 -2.84375 6.472656 -2.773438 6.535156 -2.679688 C 6.609375 -2.558594 6.648438 -2.417969 6.648438 -2.25 C 6.648438 -2.144531 6.636719 -2.050781 6.617188 -1.972656 L 6.113281 -2.097656 L 6.628906 -2.03125 C 6.574219 -1.613281 6.433594 -1.199219 6.207031 -0.792969 C 5.976562 -0.386719 5.695312 -0.0507812 5.359375 0.214844 C 4.980469 0.511719 4.585938 0.660156 4.167969 0.660156 C 3.753906 0.660156 3.429688 0.503906 3.191406 0.191406 C 2.984375 -0.078125 2.882812 -0.417969 2.882812 -0.832031 C 2.882812 -0.929688 2.894531 -1.0625 2.914062 -1.230469 L 2.984375 -1.714844 L 3.5 -1.640625 L 3.5 -1.117188 L 3.472656 -1.117188 L 3.472656 -1.640625 L 3.90625 -1.351562 C 3.53125 -0.785156 3.101562 -0.316406 2.613281 0.0546875 C 2.082031 0.457031 1.59375 0.660156 1.152344 0.660156 Z M 1.152344 -0.382812 C 1.359375 -0.382812 1.636719 -0.511719 1.984375 -0.777344 C 2.378906 -1.074219 2.726562 -1.457031 3.039062 -1.925781 L 3.191406 -2.160156 L 4.105469 -2.160156 L 3.949219 -1.101562 C 3.933594 -0.976562 3.925781 -0.886719 3.925781 -0.832031 C 3.925781 -0.65625 3.957031 -0.523438 4.019531 -0.441406 C 4.050781 -0.402344 4.097656 -0.382812 4.167969 -0.382812 C 4.34375 -0.382812 4.527344 -0.457031 4.714844 -0.605469 C 4.941406 -0.785156 5.136719 -1.015625 5.296875 -1.304688 C 5.457031 -1.59375 5.558594 -1.878906 5.597656 -2.164062 L 5.601562 -2.195312 L 5.605469 -2.222656 C 5.605469 -2.21875 5.605469 -2.214844 5.605469 -2.210938 C 5.605469 -2.21875 5.605469 -2.234375 5.605469 -2.25 C 5.605469 -2.246094 5.605469 -2.238281 5.609375 -2.226562 C 5.617188 -2.1875 5.632812 -2.152344 5.65625 -2.113281 C 5.695312 -2.054688 5.75 -2.003906 5.816406 -1.96875 C 5.875 -1.9375 5.9375 -1.925781 6 -1.925781 C 6.128906 -1.925781 6.230469 -1.976562 6.308594 -2.078125 C 6.3125 -2.082031 6.316406 -2.089844 6.316406 -2.09375 C 6.316406 -2.09375 6.316406 -2.089844 6.316406 -2.085938 L 6.308594 -2.0625 L 6.300781 -2.042969 C 6.136719 -1.671875 5.984375 -1.375 5.835938 -1.15625 C 5.601562 -0.816406 5.3125 -0.644531 4.972656 -0.644531 C 4.863281 -0.644531 4.757812 -0.667969 4.664062 -0.714844 C 4.558594 -0.765625 4.46875 -0.839844 4.402344 -0.9375 C 4.304688 -1.074219 4.257812 -1.246094 4.257812 -1.457031 C 4.257812 -1.640625 4.289062 -1.886719 4.347656 -2.191406 L 4.703125 -4.144531 C 4.828125 -4.824219 4.925781 -5.335938 4.988281 -5.671875 L 4.996094 -5.695312 C 5.003906 -5.726562 5.019531 -5.804688 5.046875 -5.929688 C 5.082031 -6.089844 5.144531 -6.285156 5.242188 -6.519531 L 5.722656 -6.320312 L 5.46875 -5.867188 C 5.363281 -5.925781 5.214844 -5.976562 5.027344 -6.023438 C 4.832031 -6.066406 4.632812 -6.089844 4.429688 -6.089844 C 3.804688 -6.089844 3.21875 -5.863281 2.664062 -5.410156 C 2.078125 -4.929688 1.613281 -4.320312 1.269531 -3.585938 C 0.929688 -2.851562 0.757812 -2.136719 0.757812 -1.445312 C 0.757812 -1.054688 0.816406 -0.753906 0.933594 -0.546875 C 0.972656 -0.480469 1.011719 -0.433594 1.050781 -0.40625 C 1.078125 -0.390625 1.109375 -0.382812 1.152344 -0.382812 Z M 1.945312 -1.757812 C 1.933594 -1.757812 1.925781 -1.757812 1.917969 -1.753906 L 1.921875 -1.757812 C 1.941406 -1.765625 1.964844 -1.777344 1.996094 -1.800781 C 2.09375 -1.867188 2.207031 -1.972656 2.339844 -2.125 C 2.628906 -2.449219 2.902344 -2.871094 3.160156 -3.382812 C 3.414062 -3.886719 3.582031 -4.386719 3.667969 -4.878906 L 3.765625 -5.425781 L 4.277344 -5.335938 L 4.011719 -4.886719 C 3.863281 -4.976562 3.738281 -5.023438 3.640625 -5.023438 C 3.507812 -5.023438 3.34375 -4.902344 3.144531 -4.664062 C 2.886719 -4.347656 2.671875 -3.929688 2.503906 -3.414062 C 2.328125 -2.890625 2.242188 -2.351562 2.242188 -1.804688 C 2.242188 -1.714844 2.246094 -1.640625 2.253906 -1.582031 C 2.253906 -1.5625 2.257812 -1.546875 2.257812 -1.535156 L 2.261719 -1.535156 C 2.257812 -1.539062 2.257812 -1.546875 2.253906 -1.554688 C 2.230469 -1.609375 2.1875 -1.65625 2.132812 -1.695312 C 2.074219 -1.738281 2.011719 -1.757812 1.945312 -1.757812 Z M 1.945312 -0.714844 C 1.796875 -0.714844 1.664062 -0.753906 1.546875 -0.835938 C 1.429688 -0.914062 1.34375 -1.019531 1.289062 -1.15625 C 1.230469 -1.296875 1.203125 -1.515625 1.203125 -1.804688 C 1.203125 -2.464844 1.304688 -3.109375 1.511719 -3.738281 C 1.722656 -4.378906 2 -4.910156 2.339844 -5.324219 C 2.746094 -5.816406 3.179688 -6.0625 3.640625 -6.0625 C 3.929688 -6.0625 4.234375 -5.96875 4.546875 -5.78125 L 4.855469 -5.597656 L 4.695312 -4.707031 C 4.59375 -4.109375 4.394531 -3.507812 4.089844 -2.910156 C 3.792969 -2.320312 3.46875 -1.828125 3.121094 -1.433594 C 2.933594 -1.21875 2.753906 -1.058594 2.589844 -0.941406 C 2.371094 -0.792969 2.15625 -0.714844 1.945312 -0.714844 Z M 1.945312 -0.714844 "/></g></g></g><g fill="#cfc813" fill-opacity="1"><g transform="translate(75.73543, 20.473343)"><g><path d="M 0.988281 0.660156 C 0.8125 0.660156 0.664062 0.621094 0.542969 0.546875 C 0.445312 0.484375 0.371094 0.40625 0.316406 0.304688 C 0.269531 0.210938 0.242188 0.109375 0.242188 0 C 0.242188 -0.101562 0.273438 -0.25 0.339844 -0.441406 C 0.433594 -0.710938 0.488281 -0.921875 0.511719 -1.078125 L 0.519531 -1.109375 C 0.589844 -1.457031 0.695312 -1.992188 0.828125 -2.71875 C 0.960938 -3.441406 1.058594 -4.0625 1.121094 -4.578125 C 1.164062 -4.886719 1.1875 -5.0625 1.1875 -5.113281 C 1.1875 -5.074219 1.203125 -5.027344 1.238281 -4.976562 C 1.277344 -4.910156 1.332031 -4.859375 1.398438 -4.824219 C 1.460938 -4.789062 1.527344 -4.773438 1.597656 -4.773438 C 1.648438 -4.773438 1.691406 -4.78125 1.722656 -4.800781 C 1.707031 -4.792969 1.683594 -4.769531 1.65625 -4.734375 C 1.554688 -4.625 1.441406 -4.445312 1.304688 -4.199219 L 0.847656 -4.445312 L 1.3125 -4.210938 C 1.261719 -4.109375 1.203125 -4.011719 1.136719 -3.925781 C 0.984375 -3.730469 0.800781 -3.632812 0.582031 -3.632812 C 0.46875 -3.632812 0.363281 -3.660156 0.265625 -3.714844 C 0.167969 -3.769531 0.0898438 -3.847656 0.03125 -3.949219 C -0.0429688 -4.070312 -0.078125 -4.214844 -0.078125 -4.390625 C -0.078125 -4.738281 0.0585938 -5.132812 0.328125 -5.570312 C 0.574219 -5.980469 0.882812 -6.332031 1.25 -6.628906 C 1.664062 -6.964844 2.082031 -7.132812 2.5 -7.132812 C 2.84375 -7.132812 3.125 -7.007812 3.339844 -6.757812 C 3.535156 -6.53125 3.632812 -6.214844 3.632812 -5.808594 C 3.632812 -5.417969 3.59375 -4.976562 3.515625 -4.488281 L 3 -4.570312 L 3 -5.089844 L 3.015625 -5.089844 L 3.015625 -4.570312 L 2.558594 -4.824219 C 2.929688 -5.484375 3.332031 -6.019531 3.769531 -6.429688 C 4.265625 -6.898438 4.765625 -7.132812 5.265625 -7.132812 C 5.679688 -7.132812 5.996094 -6.980469 6.21875 -6.675781 C 6.402344 -6.421875 6.496094 -6.078125 6.496094 -5.640625 C 6.496094 -5.445312 6.46875 -5.1875 6.417969 -4.863281 L 6.402344 -4.777344 L 5.890625 -4.863281 L 5.890625 -5.382812 L 5.902344 -5.382812 L 5.902344 -4.863281 L 5.46875 -5.148438 C 5.855469 -5.738281 6.25 -6.199219 6.648438 -6.542969 C 7.105469 -6.9375 7.566406 -7.132812 8.03125 -7.132812 C 8.226562 -7.132812 8.402344 -7.097656 8.5625 -7.023438 C 8.734375 -6.941406 8.875 -6.820312 8.984375 -6.664062 C 9.167969 -6.40625 9.257812 -6.054688 9.257812 -5.613281 C 9.257812 -5.300781 9.214844 -4.917969 9.125 -4.46875 L 8.847656 -3.078125 L 8.652344 -2.050781 C 8.585938 -1.6875 8.550781 -1.488281 8.550781 -1.445312 C 8.550781 -1.4375 8.550781 -1.433594 8.550781 -1.429688 C 8.550781 -1.429688 8.550781 -1.429688 8.550781 -1.433594 C 8.542969 -1.460938 8.53125 -1.488281 8.511719 -1.519531 C 8.476562 -1.574219 8.429688 -1.617188 8.367188 -1.648438 C 8.316406 -1.675781 8.265625 -1.6875 8.210938 -1.6875 C 8.167969 -1.6875 8.132812 -1.679688 8.109375 -1.660156 C 8.121094 -1.667969 8.136719 -1.691406 8.164062 -1.730469 C 8.261719 -1.882812 8.378906 -2.121094 8.503906 -2.441406 L 8.507812 -2.449219 L 8.507812 -2.457031 C 8.5625 -2.582031 8.628906 -2.683594 8.710938 -2.765625 C 8.84375 -2.898438 9 -2.964844 9.183594 -2.964844 C 9.34375 -2.964844 9.480469 -2.910156 9.597656 -2.800781 C 9.679688 -2.726562 9.738281 -2.636719 9.777344 -2.523438 C 9.828125 -2.386719 9.84375 -2.230469 9.828125 -2.050781 C 9.78125 -1.636719 9.632812 -1.222656 9.386719 -0.808594 C 9.144531 -0.40625 8.851562 -0.0703125 8.503906 0.203125 C 8.113281 0.507812 7.710938 0.660156 7.292969 0.660156 C 6.890625 0.660156 6.578125 0.515625 6.355469 0.222656 C 6.171875 -0.0195312 6.078125 -0.355469 6.078125 -0.777344 C 6.078125 -1.191406 6.191406 -1.964844 6.421875 -3.089844 C 6.496094 -3.445312 6.558594 -3.800781 6.621094 -4.148438 C 6.675781 -4.484375 6.707031 -4.753906 6.71875 -4.953125 L 7.238281 -4.933594 L 6.714844 -4.933594 L 6.714844 -5.015625 C 6.714844 -5.019531 6.714844 -5.023438 6.714844 -5.027344 C 6.714844 -5.027344 6.71875 -5.023438 6.71875 -5.019531 C 6.722656 -4.992188 6.734375 -4.960938 6.753906 -4.929688 C 6.789062 -4.871094 6.839844 -4.824219 6.902344 -4.792969 C 6.960938 -4.761719 7.023438 -4.742188 7.085938 -4.742188 C 7.121094 -4.742188 7.15625 -4.75 7.183594 -4.761719 C 7.1875 -4.761719 7.1875 -4.765625 7.191406 -4.765625 C 7.1875 -4.761719 7.183594 -4.757812 7.175781 -4.753906 C 7.128906 -4.71875 7.070312 -4.65625 6.996094 -4.570312 C 6.820312 -4.351562 6.644531 -4.0625 6.460938 -3.699219 C 6.273438 -3.324219 6.121094 -2.945312 6 -2.554688 L 5.5 -2.707031 L 6.011719 -2.613281 L 5.582031 -0.347656 C 5.519531 -0.0234375 5.253906 0.234375 4.785156 0.429688 C 4.425781 0.582031 4.105469 0.660156 3.820312 0.660156 C 3.535156 0.660156 3.332031 0.554688 3.214844 0.347656 C 3.128906 0.199219 3.109375 0.0195312 3.160156 -0.195312 L 3.667969 -0.0820312 L 3.15625 -0.183594 L 3.566406 -2.28125 C 3.824219 -3.621094 3.96875 -4.511719 3.996094 -4.960938 L 4.515625 -4.933594 L 3.992188 -4.933594 L 3.992188 -5.042969 C 3.992188 -5.046875 3.992188 -5.046875 3.992188 -5.046875 C 3.992188 -5.042969 3.996094 -5.039062 3.996094 -5.035156 C 4.003906 -5 4.015625 -4.96875 4.039062 -4.933594 C 4.074219 -4.875 4.128906 -4.824219 4.191406 -4.792969 C 4.25 -4.761719 4.3125 -4.742188 4.375 -4.742188 C 4.410156 -4.742188 4.441406 -4.75 4.464844 -4.761719 C 4.460938 -4.757812 4.453125 -4.75 4.4375 -4.738281 C 4.371094 -4.6875 4.292969 -4.59375 4.195312 -4.46875 C 3.980469 -4.175781 3.773438 -3.804688 3.574219 -3.347656 C 3.378906 -2.890625 3.234375 -2.449219 3.152344 -2.023438 L 2.929688 -0.898438 C 2.847656 -0.496094 2.609375 -0.136719 2.207031 0.183594 C 1.8125 0.5 1.40625 0.660156 0.988281 0.660156 Z M 0.988281 -0.382812 C 1.160156 -0.382812 1.351562 -0.464844 1.558594 -0.628906 C 1.757812 -0.789062 1.875 -0.949219 1.90625 -1.101562 L 2.128906 -2.226562 C 2.226562 -2.726562 2.390625 -3.238281 2.621094 -3.765625 C 2.847656 -4.292969 3.09375 -4.734375 3.359375 -5.089844 C 3.507812 -5.285156 3.644531 -5.4375 3.78125 -5.546875 C 3.976562 -5.707031 4.171875 -5.785156 4.375 -5.785156 C 4.484375 -5.785156 4.589844 -5.761719 4.683594 -5.710938 C 4.78125 -5.65625 4.863281 -5.582031 4.921875 -5.484375 C 5 -5.363281 5.035156 -5.214844 5.035156 -5.042969 L 5.035156 -4.902344 C 5.007812 -4.40625 4.855469 -3.464844 4.589844 -2.082031 L 4.175781 0.0234375 L 4.175781 0.03125 C 4.175781 0.0351562 4.175781 0.0390625 4.171875 0.0429688 C 4.175781 0.0390625 4.175781 0.03125 4.175781 0.0234375 C 4.175781 -0.0390625 4.15625 -0.105469 4.121094 -0.167969 C 4.0625 -0.269531 3.980469 -0.335938 3.878906 -0.371094 C 3.851562 -0.378906 3.832031 -0.382812 3.820312 -0.382812 C 3.964844 -0.382812 4.148438 -0.429688 4.382812 -0.527344 C 4.484375 -0.570312 4.558594 -0.609375 4.597656 -0.644531 C 4.601562 -0.648438 4.605469 -0.652344 4.605469 -0.652344 C 4.605469 -0.648438 4.601562 -0.644531 4.597656 -0.640625 C 4.578125 -0.613281 4.566406 -0.582031 4.558594 -0.542969 L 4.996094 -2.835938 L 5.003906 -2.863281 C 5.140625 -3.308594 5.316406 -3.742188 5.527344 -4.164062 C 5.746094 -4.597656 5.964844 -4.949219 6.1875 -5.226562 C 6.3125 -5.382812 6.4375 -5.503906 6.550781 -5.589844 C 6.726562 -5.722656 6.90625 -5.785156 7.085938 -5.785156 C 7.199219 -5.785156 7.304688 -5.761719 7.402344 -5.707031 C 7.503906 -5.652344 7.582031 -5.574219 7.644531 -5.472656 C 7.71875 -5.347656 7.757812 -5.195312 7.757812 -5.015625 L 7.757812 -4.910156 C 7.75 -4.664062 7.710938 -4.355469 7.648438 -3.976562 C 7.585938 -3.613281 7.519531 -3.25 7.441406 -2.882812 C 7.226562 -1.824219 7.121094 -1.121094 7.121094 -0.777344 C 7.121094 -0.589844 7.140625 -0.464844 7.1875 -0.40625 C 7.199219 -0.390625 7.234375 -0.382812 7.292969 -0.382812 C 7.46875 -0.382812 7.660156 -0.460938 7.863281 -0.617188 C 8.105469 -0.8125 8.316406 -1.054688 8.492188 -1.34375 C 8.660156 -1.628906 8.761719 -1.894531 8.789062 -2.144531 C 8.789062 -2.164062 8.792969 -2.183594 8.789062 -2.191406 C 8.789062 -2.191406 8.792969 -2.183594 8.796875 -2.171875 C 8.8125 -2.125 8.84375 -2.082031 8.886719 -2.039062 C 8.96875 -1.960938 9.070312 -1.925781 9.183594 -1.925781 C 9.289062 -1.925781 9.378906 -1.957031 9.445312 -2.027344 C 9.460938 -2.039062 9.46875 -2.050781 9.476562 -2.0625 C 9.472656 -2.058594 9.472656 -2.054688 9.46875 -2.046875 L 8.988281 -2.25 L 9.472656 -2.058594 C 9.320312 -1.675781 9.175781 -1.375 9.035156 -1.160156 C 8.8125 -0.816406 8.539062 -0.644531 8.210938 -0.644531 C 8.097656 -0.644531 7.992188 -0.671875 7.894531 -0.71875 C 7.789062 -0.773438 7.703125 -0.851562 7.636719 -0.953125 C 7.550781 -1.085938 7.507812 -1.25 7.507812 -1.445312 C 7.507812 -1.550781 7.546875 -1.816406 7.628906 -2.242188 L 7.824219 -3.285156 L 8.101562 -4.671875 C 8.179688 -5.054688 8.21875 -5.367188 8.21875 -5.613281 C 8.21875 -5.835938 8.191406 -5.984375 8.136719 -6.0625 C 8.121094 -6.082031 8.085938 -6.089844 8.03125 -6.089844 C 7.824219 -6.089844 7.589844 -5.976562 7.328125 -5.75 C 7.003906 -5.472656 6.671875 -5.082031 6.339844 -4.574219 L 6.183594 -4.339844 L 5.273438 -4.339844 L 5.390625 -5.027344 C 5.429688 -5.296875 5.453125 -5.5 5.453125 -5.640625 C 5.453125 -5.851562 5.425781 -5.992188 5.375 -6.0625 C 5.359375 -6.082031 5.324219 -6.089844 5.265625 -6.089844 C 5.042969 -6.089844 4.78125 -5.953125 4.484375 -5.671875 C 4.125 -5.332031 3.785156 -4.878906 3.46875 -4.316406 L 3.320312 -4.050781 L 2.390625 -4.050781 L 2.484375 -4.652344 C 2.554688 -5.089844 2.589844 -5.472656 2.589844 -5.808594 C 2.589844 -5.898438 2.582031 -5.972656 2.566406 -6.03125 C 2.558594 -6.058594 2.554688 -6.074219 2.550781 -6.078125 C 2.542969 -6.085938 2.527344 -6.089844 2.5 -6.089844 C 2.328125 -6.089844 2.128906 -6 1.90625 -5.820312 C 1.632812 -5.597656 1.402344 -5.332031 1.214844 -5.027344 C 1.050781 -4.753906 0.964844 -4.542969 0.964844 -4.390625 L 0.964844 -4.386719 C 0.960938 -4.414062 0.945312 -4.445312 0.929688 -4.476562 C 0.894531 -4.539062 0.84375 -4.585938 0.78125 -4.621094 C 0.71875 -4.65625 0.652344 -4.675781 0.582031 -4.675781 C 0.503906 -4.675781 0.433594 -4.65625 0.367188 -4.613281 C 0.34375 -4.597656 0.324219 -4.578125 0.308594 -4.5625 C 0.335938 -4.59375 0.359375 -4.632812 0.382812 -4.679688 L 0.390625 -4.695312 C 0.5625 -5.011719 0.722656 -5.253906 0.875 -5.425781 C 1.101562 -5.683594 1.34375 -5.8125 1.597656 -5.8125 C 1.703125 -5.8125 1.804688 -5.789062 1.894531 -5.738281 C 1.988281 -5.6875 2.066406 -5.613281 2.125 -5.519531 C 2.195312 -5.40625 2.230469 -5.269531 2.230469 -5.113281 C 2.230469 -5.011719 2.207031 -4.792969 2.15625 -4.453125 C 2.089844 -3.914062 1.988281 -3.273438 1.851562 -2.53125 C 1.71875 -1.796875 1.613281 -1.25 1.539062 -0.894531 L 1.027344 -1 L 1.542969 -0.921875 C 1.511719 -0.707031 1.4375 -0.4375 1.328125 -0.113281 C 1.308594 -0.0546875 1.296875 -0.0117188 1.285156 0.0234375 C 1.285156 0.03125 1.28125 0.0390625 1.28125 0.0429688 C 1.285156 0.03125 1.285156 0.015625 1.285156 0 C 1.285156 -0.0625 1.269531 -0.125 1.238281 -0.183594 C 1.203125 -0.25 1.15625 -0.300781 1.097656 -0.335938 C 1.0625 -0.359375 1.027344 -0.375 0.996094 -0.378906 C 0.988281 -0.382812 0.984375 -0.382812 0.980469 -0.382812 C 0.980469 -0.382812 0.984375 -0.382812 0.988281 -0.382812 Z M 0.988281 -0.382812 "/></g></g></g><g fill="#cfc813" fill-opacity="1"><g transform="translate(85.499608, 20.473343)"><g><path d="M 1.777344 0.660156 C 1.132812 0.660156 0.621094 0.433594 0.246094 -0.0195312 C -0.109375 -0.445312 -0.285156 -1.019531 -0.285156 -1.738281 C -0.285156 -2.507812 -0.0898438 -3.3125 0.296875 -4.144531 C 0.683594 -4.96875 1.175781 -5.664062 1.777344 -6.222656 C 2.429688 -6.832031 3.101562 -7.132812 3.792969 -7.132812 C 4.238281 -7.132812 4.605469 -6.996094 4.886719 -6.722656 C 5.171875 -6.445312 5.3125 -6.066406 5.3125 -5.585938 C 5.3125 -5.070312 5.152344 -4.550781 4.835938 -4.027344 C 4.535156 -3.535156 4.125 -3.082031 3.613281 -2.671875 C 3.101562 -2.261719 2.53125 -1.933594 1.902344 -1.683594 L 1.707031 -2.167969 L 2.230469 -2.191406 C 2.238281 -1.992188 2.273438 -1.859375 2.332031 -1.792969 C 2.371094 -1.75 2.445312 -1.730469 2.554688 -1.730469 C 2.742188 -1.730469 2.921875 -1.789062 3.097656 -1.914062 C 3.304688 -2.058594 3.492188 -2.261719 3.660156 -2.519531 L 4.097656 -2.238281 L 3.644531 -2.488281 C 3.707031 -2.605469 3.769531 -2.699219 3.832031 -2.769531 C 3.972656 -2.929688 4.140625 -3.007812 4.335938 -3.007812 C 4.445312 -3.007812 4.546875 -2.984375 4.636719 -2.9375 C 4.757812 -2.878906 4.851562 -2.785156 4.910156 -2.664062 C 4.964844 -2.554688 4.996094 -2.410156 4.996094 -2.238281 C 4.996094 -1.832031 4.832031 -1.394531 4.503906 -0.925781 C 4.203125 -0.488281 3.8125 -0.117188 3.335938 0.183594 C 2.832031 0.5 2.3125 0.660156 1.777344 0.660156 Z M 1.777344 -0.382812 C 2.113281 -0.382812 2.445312 -0.488281 2.777344 -0.699219 C 3.136719 -0.921875 3.425781 -1.199219 3.648438 -1.519531 C 3.851562 -1.808594 3.953125 -2.050781 3.953125 -2.238281 C 3.953125 -2.257812 3.953125 -2.273438 3.949219 -2.28125 C 3.953125 -2.257812 3.964844 -2.230469 3.980469 -2.199219 C 4.023438 -2.113281 4.085938 -2.050781 4.171875 -2.007812 C 4.226562 -1.980469 4.28125 -1.964844 4.335938 -1.964844 C 4.40625 -1.964844 4.472656 -1.984375 4.535156 -2.015625 C 4.566406 -2.035156 4.59375 -2.054688 4.613281 -2.078125 C 4.601562 -2.066406 4.582031 -2.035156 4.554688 -1.984375 L 4.546875 -1.96875 L 4.535156 -1.953125 C 4.296875 -1.582031 4.015625 -1.285156 3.695312 -1.058594 C 3.34375 -0.8125 2.960938 -0.6875 2.554688 -0.6875 C 2.132812 -0.6875 1.796875 -0.824219 1.550781 -1.101562 C 1.328125 -1.355469 1.207031 -1.703125 1.1875 -2.144531 L 1.171875 -2.515625 L 1.515625 -2.652344 C 2.050781 -2.863281 2.53125 -3.140625 2.960938 -3.484375 C 3.378906 -3.820312 3.707031 -4.183594 3.945312 -4.570312 C 4.164062 -4.925781 4.273438 -5.265625 4.273438 -5.585938 C 4.273438 -5.769531 4.234375 -5.902344 4.15625 -5.976562 C 4.078125 -6.054688 3.957031 -6.089844 3.792969 -6.089844 C 3.375 -6.089844 2.9375 -5.882812 2.488281 -5.460938 C 1.984375 -4.992188 1.570312 -4.40625 1.242188 -3.703125 C 0.917969 -3.011719 0.757812 -2.355469 0.757812 -1.738281 C 0.757812 -1.269531 0.855469 -0.917969 1.046875 -0.6875 C 1.214844 -0.484375 1.460938 -0.382812 1.777344 -0.382812 Z M 2.054688 -3.828125 C 2.152344 -3.828125 2.265625 -3.871094 2.390625 -3.953125 C 2.539062 -4.054688 2.664062 -4.1875 2.761719 -4.351562 C 2.851562 -4.5 2.894531 -4.660156 2.894531 -4.835938 C 2.894531 -4.871094 2.894531 -4.898438 2.890625 -4.917969 C 2.890625 -4.910156 2.898438 -4.898438 2.910156 -4.882812 C 2.933594 -4.855469 2.960938 -4.835938 2.992188 -4.820312 C 3 -4.816406 3.011719 -4.816406 3.019531 -4.8125 L 3.015625 -4.8125 C 2.917969 -4.8125 2.804688 -4.710938 2.675781 -4.511719 C 2.488281 -4.21875 2.367188 -3.8125 2.308594 -3.292969 L 1.792969 -3.347656 L 2.023438 -3.8125 C 2.003906 -3.824219 1.988281 -3.828125 1.980469 -3.832031 C 2 -3.828125 2.023438 -3.828125 2.054688 -3.828125 Z M 2.054688 -2.785156 C 1.855469 -2.785156 1.6875 -2.816406 1.558594 -2.882812 L 1.234375 -3.042969 L 1.273438 -3.402344 C 1.347656 -4.085938 1.523438 -4.644531 1.796875 -5.074219 C 2.132812 -5.59375 2.539062 -5.855469 3.015625 -5.855469 C 3.316406 -5.855469 3.550781 -5.75 3.722656 -5.535156 C 3.867188 -5.359375 3.9375 -5.125 3.9375 -4.835938 C 3.9375 -4.46875 3.84375 -4.128906 3.65625 -3.816406 C 3.476562 -3.519531 3.25 -3.277344 2.972656 -3.089844 C 2.671875 -2.886719 2.367188 -2.785156 2.054688 -2.785156 Z M 2.054688 -2.785156 "/></g></g></g><g fill="#cfc813" fill-opacity="1"><g transform="translate(90.527541, 20.473343)"><g/></g></g><g fill="#cfc813" fill-opacity="1"><g transform="translate(94.41655, 20.473343)"><g><path d="M 3.472656 0.660156 C 2.425781 0.660156 1.613281 0.296875 1.03125 -0.433594 C 0.476562 -1.125 0.203125 -2.121094 0.203125 -3.417969 C 0.203125 -4.695312 0.460938 -5.855469 0.984375 -6.902344 C 1.511719 -7.953125 2.210938 -8.78125 3.085938 -9.382812 C 3.976562 -9.996094 4.933594 -10.300781 5.960938 -10.300781 C 6.640625 -10.300781 7.199219 -10.167969 7.636719 -9.898438 C 7.886719 -9.742188 8.078125 -9.554688 8.207031 -9.332031 C 8.34375 -9.101562 8.410156 -8.84375 8.410156 -8.558594 C 8.410156 -8.230469 8.296875 -7.855469 8.070312 -7.433594 L 8.0625 -7.417969 L 8.050781 -7.402344 C 7.949219 -7.242188 7.851562 -7.113281 7.757812 -7.011719 C 7.578125 -6.824219 7.371094 -6.730469 7.125 -6.730469 C 6.984375 -6.730469 6.859375 -6.765625 6.746094 -6.835938 C 6.621094 -6.914062 6.53125 -7.023438 6.476562 -7.164062 C 6.433594 -7.265625 6.402344 -7.394531 6.375 -7.542969 C 6.359375 -7.632812 6.347656 -7.703125 6.332031 -7.746094 L 6.332031 -7.757812 L 6.328125 -7.765625 C 6.292969 -7.917969 6.222656 -8.023438 6.121094 -8.089844 C 5.992188 -8.175781 5.800781 -8.21875 5.542969 -8.21875 C 5.042969 -8.21875 4.601562 -8.050781 4.21875 -7.714844 C 3.804688 -7.351562 3.484375 -6.84375 3.257812 -6.183594 C 3.015625 -5.496094 2.898438 -4.707031 2.898438 -3.820312 C 2.898438 -3.007812 3.011719 -2.425781 3.238281 -2.074219 C 3.324219 -1.9375 3.4375 -1.835938 3.574219 -1.769531 C 3.726562 -1.695312 3.914062 -1.660156 4.140625 -1.660156 C 4.609375 -1.660156 4.972656 -1.777344 5.238281 -2.011719 C 5.554688 -2.300781 5.839844 -2.664062 6.089844 -3.105469 L 6.542969 -2.847656 L 6.082031 -3.089844 C 6.15625 -3.234375 6.246094 -3.347656 6.351562 -3.429688 C 6.496094 -3.546875 6.65625 -3.605469 6.835938 -3.605469 C 7.050781 -3.605469 7.226562 -3.523438 7.351562 -3.355469 C 7.449219 -3.234375 7.496094 -3.082031 7.496094 -2.902344 C 7.496094 -2.769531 7.460938 -2.585938 7.390625 -2.351562 C 7.117188 -1.429688 6.628906 -0.695312 5.921875 -0.15625 C 5.214844 0.386719 4.398438 0.660156 3.472656 0.660156 Z M 3.472656 -0.382812 C 4.160156 -0.382812 4.765625 -0.582031 5.289062 -0.984375 C 5.816406 -1.386719 6.183594 -1.941406 6.390625 -2.648438 C 6.433594 -2.785156 6.453125 -2.871094 6.453125 -2.902344 C 6.453125 -2.84375 6.476562 -2.785156 6.527344 -2.722656 C 6.570312 -2.664062 6.625 -2.621094 6.6875 -2.59375 C 6.738281 -2.574219 6.785156 -2.5625 6.835938 -2.5625 C 6.902344 -2.5625 6.960938 -2.582031 7.007812 -2.621094 C 7.015625 -2.625 7.019531 -2.632812 7.023438 -2.632812 C 7.015625 -2.628906 7.011719 -2.617188 7.003906 -2.605469 L 6.996094 -2.589844 C 6.691406 -2.050781 6.335938 -1.601562 5.933594 -1.238281 C 5.472656 -0.824219 4.875 -0.617188 4.140625 -0.617188 C 3.753906 -0.617188 3.414062 -0.691406 3.117188 -0.832031 C 2.808594 -0.984375 2.554688 -1.210938 2.363281 -1.507812 C 2.023438 -2.03125 1.855469 -2.800781 1.855469 -3.820312 C 1.855469 -4.824219 1.992188 -5.726562 2.273438 -6.527344 C 2.5625 -7.359375 2.980469 -8.015625 3.53125 -8.5 C 4.113281 -9.003906 4.78125 -9.257812 5.542969 -9.257812 C 6.007812 -9.257812 6.390625 -9.160156 6.695312 -8.960938 C 7.023438 -8.746094 7.238281 -8.429688 7.339844 -8.015625 L 6.835938 -7.890625 L 7.335938 -8.035156 C 7.359375 -7.949219 7.382812 -7.84375 7.40625 -7.710938 C 7.417969 -7.636719 7.429688 -7.585938 7.445312 -7.550781 C 7.414062 -7.621094 7.367188 -7.675781 7.296875 -7.71875 C 7.242188 -7.753906 7.183594 -7.773438 7.125 -7.773438 C 7.070312 -7.773438 7.027344 -7.757812 6.996094 -7.726562 C 7.050781 -7.78125 7.109375 -7.863281 7.175781 -7.964844 L 7.613281 -7.683594 L 7.15625 -7.929688 C 7.296875 -8.195312 7.371094 -8.40625 7.371094 -8.558594 C 7.371094 -8.652344 7.351562 -8.734375 7.308594 -8.800781 C 7.265625 -8.878906 7.191406 -8.945312 7.089844 -9.011719 C 6.820312 -9.175781 6.445312 -9.257812 5.960938 -9.257812 C 5.152344 -9.257812 4.390625 -9.015625 3.679688 -8.523438 C 2.949219 -8.023438 2.363281 -7.328125 1.917969 -6.433594 C 1.46875 -5.535156 1.242188 -4.53125 1.242188 -3.417969 C 1.242188 -2.363281 1.445312 -1.585938 1.84375 -1.082031 C 2.21875 -0.617188 2.761719 -0.382812 3.472656 -0.382812 Z M 3.472656 -0.382812 "/></g></g></g><g fill="#cfc813" fill-opacity="1"><g transform="translate(101.888938, 20.473343)"><g><path d="M 1.820312 0.660156 C 1.617188 0.660156 1.433594 0.617188 1.269531 0.535156 C 1.09375 0.449219 0.953125 0.320312 0.84375 0.152344 C 0.664062 -0.117188 0.578125 -0.488281 0.578125 -0.957031 C 0.578125 -1.265625 0.621094 -1.683594 0.707031 -2.210938 L 1.140625 -4.761719 L 1.140625 -4.769531 C 1.171875 -4.921875 1.1875 -5.042969 1.1875 -5.140625 C 1.1875 -5.089844 1.207031 -5.039062 1.25 -4.980469 C 1.289062 -4.917969 1.34375 -4.871094 1.414062 -4.839844 C 1.46875 -4.8125 1.523438 -4.800781 1.582031 -4.800781 C 1.636719 -4.800781 1.683594 -4.808594 1.714844 -4.832031 C 1.710938 -4.828125 1.699219 -4.816406 1.683594 -4.796875 C 1.597656 -4.695312 1.472656 -4.496094 1.304688 -4.191406 L 0.847656 -4.445312 L 1.3125 -4.210938 C 1.261719 -4.109375 1.203125 -4.011719 1.136719 -3.925781 C 0.984375 -3.730469 0.800781 -3.632812 0.582031 -3.632812 C 0.46875 -3.632812 0.363281 -3.660156 0.265625 -3.714844 C 0.167969 -3.769531 0.0898438 -3.847656 0.03125 -3.949219 C -0.0429688 -4.070312 -0.078125 -4.214844 -0.078125 -4.390625 C -0.078125 -4.730469 0.0625 -5.121094 0.335938 -5.5625 C 0.589844 -5.964844 0.894531 -6.320312 1.257812 -6.617188 C 1.675781 -6.960938 2.09375 -7.132812 2.515625 -7.132812 C 2.878906 -7.132812 3.167969 -7.011719 3.375 -6.761719 C 3.566406 -6.539062 3.660156 -6.25 3.660156 -5.890625 C 3.660156 -5.808594 3.648438 -5.691406 3.628906 -5.539062 L 3.03125 -1.546875 L 2.515625 -1.625 L 3.035156 -1.625 L 3.035156 -1.488281 C 3.035156 -1.480469 3.035156 -1.476562 3.035156 -1.472656 C 3.035156 -1.472656 3.035156 -1.476562 3.035156 -1.480469 C 3.027344 -1.511719 3.015625 -1.546875 2.996094 -1.585938 C 2.945312 -1.667969 2.878906 -1.730469 2.792969 -1.769531 C 2.746094 -1.789062 2.699219 -1.800781 2.652344 -1.800781 C 2.648438 -1.800781 2.640625 -1.796875 2.636719 -1.796875 C 2.636719 -1.796875 2.636719 -1.796875 2.640625 -1.800781 C 2.660156 -1.804688 2.683594 -1.820312 2.710938 -1.835938 C 2.796875 -1.898438 2.898438 -1.996094 3.015625 -2.128906 C 3.273438 -2.4375 3.519531 -2.835938 3.75 -3.328125 C 3.984375 -3.820312 4.144531 -4.316406 4.238281 -4.820312 L 4.378906 -5.542969 C 4.46875 -6.015625 4.703125 -6.398438 5.082031 -6.695312 C 5.453125 -6.988281 5.867188 -7.132812 6.320312 -7.132812 C 6.488281 -7.132812 6.625 -7.101562 6.738281 -7.039062 C 6.855469 -6.972656 6.941406 -6.875 6.996094 -6.753906 C 7.03125 -6.667969 7.050781 -6.574219 7.050781 -6.472656 C 7.050781 -6.367188 7.015625 -6.226562 6.941406 -6.050781 C 6.910156 -5.972656 6.867188 -5.800781 6.820312 -5.53125 L 6.816406 -5.515625 L 6.8125 -5.496094 C 6.730469 -5.183594 6.496094 -3.988281 6.109375 -1.90625 L 6.109375 -1.894531 L 6.105469 -1.886719 C 6.070312 -1.71875 6.050781 -1.566406 6.050781 -1.429688 C 6.050781 -1.425781 6.050781 -1.417969 6.050781 -1.414062 C 6.050781 -1.417969 6.050781 -1.417969 6.050781 -1.421875 C 6.042969 -1.449219 6.03125 -1.480469 6.011719 -1.511719 C 5.976562 -1.566406 5.925781 -1.613281 5.867188 -1.644531 C 5.8125 -1.671875 5.753906 -1.6875 5.695312 -1.6875 C 5.667969 -1.6875 5.640625 -1.679688 5.617188 -1.664062 C 5.613281 -1.664062 5.609375 -1.660156 5.609375 -1.660156 C 5.613281 -1.664062 5.621094 -1.675781 5.628906 -1.6875 C 5.722656 -1.832031 5.859375 -2.097656 6.046875 -2.480469 L 6.515625 -2.25 L 6.023438 -2.425781 C 6.070312 -2.550781 6.125 -2.65625 6.195312 -2.734375 C 6.328125 -2.890625 6.488281 -2.964844 6.683594 -2.964844 C 6.804688 -2.964844 6.914062 -2.933594 7.015625 -2.871094 C 7.109375 -2.8125 7.183594 -2.730469 7.238281 -2.628906 C 7.296875 -2.515625 7.328125 -2.375 7.328125 -2.207031 C 7.328125 -1.816406 7.207031 -1.394531 6.96875 -0.949219 C 6.734375 -0.515625 6.4375 -0.152344 6.070312 0.152344 C 5.65625 0.492188 5.230469 0.660156 4.792969 0.660156 C 4.40625 0.660156 4.109375 0.527344 3.894531 0.257812 C 3.710938 0.0273438 3.617188 -0.285156 3.617188 -0.679688 C 3.617188 -0.972656 3.667969 -1.378906 3.765625 -1.902344 L 4.277344 -1.804688 L 4.046875 -1.339844 L 4.019531 -1.355469 L 4.25 -1.820312 L 4.6875 -1.53125 C 4.296875 -0.945312 3.871094 -0.449219 3.398438 -0.0390625 C 2.867188 0.425781 2.339844 0.660156 1.820312 0.660156 Z M 1.820312 -0.382812 C 2.078125 -0.382812 2.375 -0.527344 2.714844 -0.824219 C 3.113281 -1.171875 3.480469 -1.601562 3.816406 -2.105469 L 4.070312 -2.492188 L 4.863281 -2.097656 L 4.789062 -1.710938 C 4.703125 -1.25 4.660156 -0.90625 4.660156 -0.679688 C 4.660156 -0.589844 4.667969 -0.515625 4.683594 -0.457031 C 4.691406 -0.421875 4.703125 -0.402344 4.710938 -0.390625 C 4.710938 -0.390625 4.707031 -0.394531 4.707031 -0.394531 C 4.726562 -0.386719 4.753906 -0.382812 4.792969 -0.382812 C 4.984375 -0.382812 5.1875 -0.472656 5.40625 -0.652344 C 5.667969 -0.867188 5.882812 -1.132812 6.050781 -1.441406 C 6.207031 -1.734375 6.285156 -1.992188 6.285156 -2.207031 C 6.285156 -2.214844 6.285156 -2.222656 6.285156 -2.226562 L 6.285156 -2.222656 C 6.289062 -2.199219 6.300781 -2.171875 6.316406 -2.140625 C 6.347656 -2.078125 6.394531 -2.027344 6.460938 -1.988281 C 6.527344 -1.945312 6.601562 -1.925781 6.683594 -1.925781 C 6.808594 -1.925781 6.910156 -1.96875 6.988281 -2.058594 C 7 -2.070312 7.007812 -2.082031 7.011719 -2.09375 C 7.011719 -2.089844 7.007812 -2.085938 7.007812 -2.074219 L 6.996094 -2.046875 L 6.984375 -2.023438 C 6.78125 -1.605469 6.625 -1.308594 6.511719 -1.132812 C 6.421875 -0.988281 6.3125 -0.871094 6.183594 -0.789062 C 6.035156 -0.695312 5.871094 -0.644531 5.695312 -0.644531 C 5.582031 -0.644531 5.476562 -0.671875 5.378906 -0.722656 C 5.277344 -0.777344 5.195312 -0.855469 5.128906 -0.953125 C 5.046875 -1.082031 5.007812 -1.242188 5.007812 -1.429688 C 5.007812 -1.644531 5.035156 -1.875 5.089844 -2.117188 L 5.597656 -2 L 5.085938 -2.09375 C 5.476562 -4.199219 5.714844 -5.421875 5.800781 -5.757812 L 6.308594 -5.625 L 5.792969 -5.71875 C 5.855469 -6.0625 5.917969 -6.304688 5.980469 -6.453125 C 5.996094 -6.492188 6.007812 -6.523438 6.015625 -6.546875 C 6.011719 -6.523438 6.007812 -6.5 6.007812 -6.472656 C 6.007812 -6.429688 6.019531 -6.382812 6.039062 -6.335938 C 6.078125 -6.246094 6.136719 -6.179688 6.222656 -6.132812 C 6.257812 -6.113281 6.292969 -6.097656 6.328125 -6.09375 C 6.332031 -6.089844 6.332031 -6.089844 6.335938 -6.089844 C 6.332031 -6.089844 6.328125 -6.089844 6.320312 -6.089844 C 6.105469 -6.089844 5.910156 -6.019531 5.726562 -5.875 C 5.550781 -5.738281 5.441406 -5.5625 5.402344 -5.347656 L 5.261719 -4.628906 C 5.152344 -4.039062 4.964844 -3.457031 4.695312 -2.882812 C 4.425781 -2.308594 4.128906 -1.832031 3.808594 -1.453125 C 3.410156 -0.988281 3.027344 -0.757812 2.652344 -0.757812 C 2.554688 -0.757812 2.460938 -0.777344 2.375 -0.8125 C 2.25 -0.867188 2.15625 -0.953125 2.089844 -1.066406 C 2.027344 -1.179688 1.992188 -1.320312 1.992188 -1.488281 L 1.992188 -1.664062 L 2.597656 -5.6875 C 2.609375 -5.792969 2.617188 -5.859375 2.617188 -5.890625 C 2.617188 -5.992188 2.605469 -6.058594 2.582031 -6.085938 C 2.585938 -6.085938 2.585938 -6.082031 2.589844 -6.082031 C 2.574219 -6.089844 2.550781 -6.089844 2.515625 -6.089844 C 2.34375 -6.089844 2.144531 -6 1.921875 -5.816406 C 1.648438 -5.585938 1.414062 -5.320312 1.21875 -5.011719 C 1.050781 -4.738281 0.964844 -4.53125 0.964844 -4.390625 L 0.964844 -4.386719 C 0.960938 -4.414062 0.945312 -4.445312 0.929688 -4.476562 C 0.894531 -4.539062 0.84375 -4.585938 0.78125 -4.621094 C 0.71875 -4.65625 0.652344 -4.675781 0.582031 -4.675781 C 0.503906 -4.675781 0.433594 -4.65625 0.367188 -4.613281 C 0.34375 -4.597656 0.324219 -4.578125 0.308594 -4.5625 C 0.335938 -4.59375 0.359375 -4.632812 0.382812 -4.679688 L 0.386719 -4.6875 L 0.390625 -4.699219 C 0.59375 -5.0625 0.757812 -5.320312 0.886719 -5.472656 C 1.097656 -5.71875 1.332031 -5.84375 1.582031 -5.84375 C 1.683594 -5.84375 1.777344 -5.820312 1.863281 -5.777344 C 1.960938 -5.730469 2.042969 -5.664062 2.105469 -5.570312 C 2.1875 -5.453125 2.230469 -5.308594 2.230469 -5.140625 C 2.230469 -4.976562 2.207031 -4.785156 2.164062 -4.566406 L 1.652344 -4.667969 L 2.167969 -4.582031 L 1.738281 -2.039062 C 1.65625 -1.566406 1.617188 -1.207031 1.617188 -0.957031 C 1.617188 -0.695312 1.648438 -0.519531 1.714844 -0.421875 C 1.722656 -0.40625 1.730469 -0.398438 1.738281 -0.394531 C 1.753906 -0.386719 1.78125 -0.382812 1.820312 -0.382812 Z M 2.667969 -6.730469 C 2.457031 -6.730469 2.289062 -6.808594 2.164062 -6.960938 C 2.058594 -7.085938 2.007812 -7.238281 2.007812 -7.417969 C 2.007812 -7.988281 2.167969 -8.484375 2.484375 -8.917969 C 2.839844 -9.394531 3.28125 -9.632812 3.804688 -9.632812 C 4.066406 -9.632812 4.296875 -9.582031 4.496094 -9.480469 C 4.648438 -9.398438 4.816406 -9.289062 5 -9.152344 L 5.015625 -9.136719 L 5.035156 -9.121094 C 5.121094 -9.042969 5.199219 -8.984375 5.261719 -8.949219 C 5.292969 -8.933594 5.332031 -8.925781 5.375 -8.925781 C 5.363281 -8.925781 5.351562 -8.921875 5.34375 -8.914062 C 5.363281 -8.929688 5.386719 -8.96875 5.410156 -9.027344 C 5.46875 -9.167969 5.519531 -9.269531 5.566406 -9.339844 C 5.636719 -9.445312 5.730469 -9.519531 5.84375 -9.574219 C 5.933594 -9.613281 6.035156 -9.632812 6.140625 -9.632812 C 6.242188 -9.632812 6.335938 -9.613281 6.421875 -9.574219 C 6.523438 -9.527344 6.605469 -9.457031 6.667969 -9.367188 C 6.757812 -9.246094 6.800781 -9.09375 6.800781 -8.917969 C 6.800781 -8.550781 6.71875 -8.203125 6.5625 -7.871094 C 6.398438 -7.535156 6.179688 -7.265625 5.898438 -7.0625 C 5.601562 -6.839844 5.273438 -6.730469 4.917969 -6.730469 C 4.648438 -6.730469 4.410156 -6.785156 4.199219 -6.894531 C 4.03125 -6.980469 3.855469 -7.097656 3.667969 -7.253906 L 4 -7.65625 L 3.679688 -7.246094 C 3.570312 -7.328125 3.484375 -7.390625 3.417969 -7.425781 C 3.402344 -7.433594 3.386719 -7.4375 3.375 -7.4375 C 3.417969 -7.4375 3.460938 -7.457031 3.5 -7.492188 C 3.484375 -7.476562 3.453125 -7.425781 3.40625 -7.339844 L 2.945312 -7.585938 L 3.410156 -7.351562 C 3.394531 -7.320312 3.371094 -7.269531 3.339844 -7.203125 C 3.277344 -7.066406 3.199219 -6.957031 3.113281 -6.886719 C 2.988281 -6.78125 2.839844 -6.730469 2.667969 -6.730469 Z M 2.667969 -7.773438 C 2.585938 -7.773438 2.511719 -7.742188 2.445312 -7.6875 C 2.417969 -7.664062 2.398438 -7.644531 2.386719 -7.621094 C 2.386719 -7.625 2.390625 -7.632812 2.394531 -7.644531 C 2.429688 -7.71875 2.457031 -7.777344 2.480469 -7.816406 L 2.480469 -7.824219 L 2.484375 -7.832031 C 2.585938 -8.019531 2.691406 -8.164062 2.792969 -8.257812 C 2.953125 -8.40625 3.148438 -8.480469 3.375 -8.480469 C 3.566406 -8.480469 3.746094 -8.433594 3.917969 -8.339844 C 4.035156 -8.277344 4.171875 -8.183594 4.324219 -8.0625 L 4.328125 -8.0625 L 4.332031 -8.058594 C 4.460938 -7.949219 4.578125 -7.871094 4.679688 -7.820312 C 4.738281 -7.789062 4.816406 -7.773438 4.917969 -7.773438 C 5.042969 -7.773438 5.167969 -7.816406 5.285156 -7.902344 C 5.421875 -8.003906 5.535156 -8.144531 5.621094 -8.324219 C 5.710938 -8.511719 5.757812 -8.710938 5.757812 -8.917969 C 5.757812 -8.871094 5.777344 -8.820312 5.820312 -8.761719 C 5.863281 -8.703125 5.914062 -8.660156 5.980469 -8.628906 C 6.03125 -8.605469 6.085938 -8.59375 6.140625 -8.59375 C 6.183594 -8.59375 6.226562 -8.601562 6.269531 -8.621094 C 6.339844 -8.652344 6.394531 -8.699219 6.433594 -8.761719 C 6.425781 -8.746094 6.402344 -8.699219 6.367188 -8.613281 C 6.273438 -8.398438 6.152344 -8.226562 6 -8.105469 C 5.816406 -7.957031 5.609375 -7.882812 5.375 -7.882812 C 5.160156 -7.882812 4.964844 -7.929688 4.78125 -8.027344 C 4.632812 -8.101562 4.484375 -8.210938 4.328125 -8.355469 L 4.679688 -8.738281 L 4.363281 -8.324219 C 4.230469 -8.425781 4.117188 -8.503906 4.019531 -8.554688 C 3.96875 -8.578125 3.898438 -8.59375 3.804688 -8.59375 C 3.628906 -8.59375 3.46875 -8.492188 3.324219 -8.296875 C 3.140625 -8.050781 3.050781 -7.757812 3.050781 -7.417969 C 3.050781 -7.488281 3.019531 -7.558594 2.964844 -7.628906 C 2.882812 -7.722656 2.785156 -7.773438 2.667969 -7.773438 Z M 2.667969 -7.773438 "/></g></g></g><g fill="#000000" fill-opacity="1"><g transform="translate(39.970877, 20.473343)"><g><path d="M 2.359375 0 C 2.285156 0 2.25 -0.0546875 2.25 -0.171875 C 2.25 -0.378906 2.398438 -0.617188 2.703125 -0.890625 C 2.898438 -1.085938 3.035156 -1.269531 3.109375 -1.4375 C 3.179688 -1.613281 3.265625 -1.945312 3.359375 -2.4375 L 4.40625 -8.390625 L 3.5625 -8.390625 C 2.90625 -8.390625 2.453125 -8.316406 2.203125 -8.171875 C 1.960938 -8.035156 1.84375 -7.785156 1.84375 -7.421875 C 1.84375 -7.191406 1.878906 -6.992188 1.953125 -6.828125 C 2.023438 -6.660156 2.0625 -6.554688 2.0625 -6.515625 C 2.0625 -6.398438 1.992188 -6.238281 1.859375 -6.03125 C 1.734375 -5.832031 1.585938 -5.65625 1.421875 -5.5 C 1.253906 -5.34375 1.117188 -5.265625 1.015625 -5.265625 C 0.972656 -5.265625 0.941406 -5.28125 0.921875 -5.3125 C 0.898438 -5.34375 0.882812 -5.363281 0.875 -5.375 C 0.726562 -5.6875 0.65625 -6.066406 0.65625 -6.515625 C 0.65625 -7.097656 0.800781 -7.628906 1.09375 -8.109375 C 1.394531 -8.585938 1.8125 -8.960938 2.34375 -9.234375 C 2.882812 -9.503906 3.5 -9.640625 4.1875 -9.640625 L 7.15625 -9.640625 C 7.71875 -9.640625 8.113281 -9.695312 8.34375 -9.8125 C 8.570312 -9.9375 8.6875 -10.15625 8.6875 -10.46875 C 8.6875 -10.6875 8.640625 -10.882812 8.546875 -11.0625 C 8.453125 -11.238281 8.40625 -11.347656 8.40625 -11.390625 C 8.40625 -11.460938 8.46875 -11.597656 8.59375 -11.796875 C 8.71875 -12.003906 8.851562 -12.191406 9 -12.359375 C 9.144531 -12.535156 9.253906 -12.625 9.328125 -12.625 C 9.359375 -12.625 9.382812 -12.613281 9.40625 -12.59375 C 9.425781 -12.582031 9.441406 -12.578125 9.453125 -12.578125 C 9.578125 -12.410156 9.671875 -12.203125 9.734375 -11.953125 C 9.796875 -11.710938 9.828125 -11.460938 9.828125 -11.203125 C 9.828125 -10.328125 9.503906 -9.640625 8.859375 -9.140625 C 8.222656 -8.640625 7.367188 -8.390625 6.296875 -8.390625 L 5.890625 -8.390625 L 4.734375 -1.8125 C 4.671875 -1.539062 4.5625 -1.335938 4.40625 -1.203125 L 4.40625 -1.1875 C 4.5625 -1.101562 4.742188 -1.0625 4.953125 -1.0625 C 5.085938 -1.0625 5.222656 -1.085938 5.359375 -1.140625 C 5.492188 -1.191406 5.578125 -1.21875 5.609375 -1.21875 C 5.660156 -1.21875 5.691406 -1.207031 5.703125 -1.1875 C 5.710938 -1.175781 5.71875 -1.144531 5.71875 -1.09375 C 5.71875 -1.007812 5.691406 -0.929688 5.640625 -0.859375 C 5.597656 -0.785156 5.570312 -0.738281 5.5625 -0.71875 C 5.34375 -0.445312 5.144531 -0.257812 4.96875 -0.15625 C 4.789062 -0.0507812 4.617188 0 4.453125 0 C 4.367188 0 4.269531 -0.0078125 4.15625 -0.03125 C 4.039062 -0.0625 3.960938 -0.0820312 3.921875 -0.09375 C 3.648438 -0.175781 3.414062 -0.21875 3.21875 -0.21875 C 3.019531 -0.21875 2.835938 -0.179688 2.671875 -0.109375 C 2.503906 -0.0351562 2.398438 0 2.359375 0 Z M 2.359375 0 "/></g></g></g><g fill="#000000" fill-opacity="1"><g transform="translate(47.068046, 20.473343)"><g><path d="M 1.15625 0.140625 C 0.863281 0.140625 0.632812 0 0.46875 -0.28125 C 0.3125 -0.570312 0.234375 -0.957031 0.234375 -1.4375 C 0.234375 -2.207031 0.421875 -2.992188 0.796875 -3.796875 C 1.171875 -4.609375 1.679688 -5.28125 2.328125 -5.8125 C 2.984375 -6.34375 3.6875 -6.609375 4.4375 -6.609375 C 4.675781 -6.609375 4.910156 -6.578125 5.140625 -6.515625 C 5.378906 -6.460938 5.570312 -6.394531 5.71875 -6.3125 C 5.632812 -6.113281 5.578125 -5.945312 5.546875 -5.8125 C 5.523438 -5.6875 5.507812 -5.601562 5.5 -5.5625 C 5.4375 -5.226562 5.34375 -4.722656 5.21875 -4.046875 C 5.09375 -3.367188 4.972656 -2.71875 4.859375 -2.09375 C 4.804688 -1.820312 4.78125 -1.609375 4.78125 -1.453125 C 4.78125 -1.359375 4.796875 -1.285156 4.828125 -1.234375 C 4.859375 -1.191406 4.90625 -1.171875 4.96875 -1.171875 C 5.125 -1.171875 5.265625 -1.265625 5.390625 -1.453125 C 5.523438 -1.640625 5.664062 -1.90625 5.8125 -2.25 C 5.832031 -2.300781 5.859375 -2.34375 5.890625 -2.375 C 5.921875 -2.414062 5.957031 -2.4375 6 -2.4375 C 6.082031 -2.4375 6.125 -2.375 6.125 -2.25 C 6.125 -2.1875 6.117188 -2.132812 6.109375 -2.09375 C 6.066406 -1.738281 5.945312 -1.390625 5.75 -1.046875 C 5.550781 -0.703125 5.3125 -0.414062 5.03125 -0.1875 C 4.75 0.03125 4.460938 0.140625 4.171875 0.140625 C 3.929688 0.140625 3.742188 0.0507812 3.609375 -0.125 C 3.472656 -0.300781 3.40625 -0.535156 3.40625 -0.828125 C 3.40625 -0.898438 3.414062 -1.015625 3.4375 -1.171875 L 3.5 -1.640625 L 3.46875 -1.640625 C 3.125 -1.117188 2.734375 -0.691406 2.296875 -0.359375 C 1.859375 -0.0234375 1.476562 0.140625 1.15625 0.140625 Z M 1.9375 -1.234375 C 2.144531 -1.234375 2.40625 -1.410156 2.71875 -1.765625 C 3.039062 -2.128906 3.34375 -2.585938 3.625 -3.140625 C 3.90625 -3.691406 4.09375 -4.242188 4.1875 -4.796875 L 4.28125 -5.328125 C 4.050781 -5.472656 3.835938 -5.546875 3.640625 -5.546875 C 3.335938 -5.546875 3.035156 -5.359375 2.734375 -4.984375 C 2.441406 -4.617188 2.195312 -4.144531 2 -3.5625 C 1.8125 -2.988281 1.71875 -2.40625 1.71875 -1.8125 C 1.71875 -1.582031 1.734375 -1.425781 1.765625 -1.34375 C 1.796875 -1.269531 1.851562 -1.234375 1.9375 -1.234375 Z M 4.078125 -7.125 C 3.921875 -7.125 3.84375 -7.191406 3.84375 -7.328125 C 3.84375 -7.515625 3.890625 -7.675781 3.984375 -7.8125 C 4.078125 -7.957031 4.222656 -8.128906 4.421875 -8.328125 C 4.585938 -8.503906 4.707031 -8.644531 4.78125 -8.75 C 4.851562 -8.863281 4.890625 -8.988281 4.890625 -9.125 C 4.890625 -9.40625 4.722656 -9.546875 4.390625 -9.546875 C 4.054688 -9.546875 3.75 -9.382812 3.46875 -9.0625 C 3.40625 -8.988281 3.351562 -8.953125 3.3125 -8.953125 C 3.21875 -8.953125 3.171875 -9.007812 3.171875 -9.125 C 3.171875 -9.269531 3.21875 -9.410156 3.3125 -9.546875 C 3.457031 -9.796875 3.664062 -9.988281 3.9375 -10.125 C 4.207031 -10.257812 4.507812 -10.328125 4.84375 -10.328125 C 5.226562 -10.328125 5.53125 -10.234375 5.75 -10.046875 C 5.976562 -9.859375 6.09375 -9.617188 6.09375 -9.328125 C 6.09375 -9.109375 6.046875 -8.921875 5.953125 -8.765625 C 5.859375 -8.617188 5.707031 -8.4375 5.5 -8.21875 C 5.363281 -8.082031 5.253906 -7.957031 5.171875 -7.84375 C 5.085938 -7.738281 5.023438 -7.617188 4.984375 -7.484375 C 4.984375 -7.378906 4.875 -7.289062 4.65625 -7.21875 C 4.4375 -7.15625 4.242188 -7.125 4.078125 -7.125 Z M 4.078125 -7.125 "/></g></g></g><g fill="#000000" fill-opacity="1"><g transform="translate(53.415414, 20.473343)"><g><path d="M 2.15625 -7.078125 C 2.09375 -7.078125 2.050781 -7.085938 2.03125 -7.109375 C 2.007812 -7.140625 2.003906 -7.1875 2.015625 -7.25 L 2.203125 -8.34375 C 2.265625 -8.644531 2.394531 -8.882812 2.59375 -9.0625 C 2.800781 -9.238281 3.09375 -9.328125 3.46875 -9.328125 L 3.578125 -9.328125 C 3.679688 -9.328125 3.726562 -9.28125 3.71875 -9.1875 L 3.53125 -8.078125 C 3.414062 -7.410156 2.988281 -7.078125 2.25 -7.078125 Z M 1.5625 0.140625 C 1.113281 0.140625 0.890625 -0.164062 0.890625 -0.78125 C 0.890625 -0.945312 0.910156 -1.164062 0.953125 -1.4375 L 1.625 -4.8125 C 1.644531 -4.976562 1.65625 -5.078125 1.65625 -5.109375 C 1.65625 -5.242188 1.613281 -5.3125 1.53125 -5.3125 C 1.445312 -5.3125 1.347656 -5.242188 1.234375 -5.109375 C 1.117188 -4.972656 0.976562 -4.75 0.8125 -4.4375 C 0.800781 -4.425781 0.773438 -4.390625 0.734375 -4.328125 C 0.703125 -4.265625 0.671875 -4.21875 0.640625 -4.1875 C 0.617188 -4.164062 0.59375 -4.15625 0.5625 -4.15625 C 0.476562 -4.15625 0.4375 -4.226562 0.4375 -4.375 C 0.4375 -4.632812 0.546875 -4.941406 0.765625 -5.296875 C 0.992188 -5.648438 1.273438 -5.957031 1.609375 -6.21875 C 1.941406 -6.476562 2.265625 -6.609375 2.578125 -6.609375 C 2.972656 -6.609375 3.171875 -6.347656 3.171875 -5.828125 C 3.171875 -5.679688 3.132812 -5.425781 3.0625 -5.0625 L 2.375 -1.484375 C 2.351562 -1.410156 2.34375 -1.359375 2.34375 -1.328125 C 2.34375 -1.222656 2.394531 -1.171875 2.5 -1.171875 C 2.625 -1.171875 2.757812 -1.265625 2.90625 -1.453125 C 3.0625 -1.648438 3.207031 -1.914062 3.34375 -2.25 C 3.394531 -2.375 3.453125 -2.4375 3.515625 -2.4375 C 3.597656 -2.4375 3.640625 -2.359375 3.640625 -2.203125 C 3.640625 -1.878906 3.53125 -1.535156 3.3125 -1.171875 C 3.101562 -0.804688 2.835938 -0.492188 2.515625 -0.234375 C 2.203125 0.015625 1.882812 0.140625 1.5625 0.140625 Z M 1.5625 0.140625 "/></g></g></g><g fill="#000000" fill-opacity="1"><g transform="translate(57.582207, 20.473343)"><g/></g></g><g fill="#000000" fill-opacity="1"><g transform="translate(61.471216, 20.473343)"><g><path d="M 3.203125 3.546875 C 2.816406 3.546875 2.46875 3.488281 2.15625 3.375 C 1.84375 3.269531 1.597656 3.132812 1.421875 2.96875 C 1.253906 2.800781 1.171875 2.644531 1.171875 2.5 C 1.171875 2.363281 1.238281 2.191406 1.375 1.984375 C 1.507812 1.773438 1.664062 1.59375 1.84375 1.4375 C 2.03125 1.28125 2.175781 1.203125 2.28125 1.203125 C 2.332031 1.203125 2.363281 1.226562 2.375 1.28125 C 2.488281 1.632812 2.644531 1.929688 2.84375 2.171875 C 3.039062 2.410156 3.359375 2.53125 3.796875 2.53125 C 4.109375 2.53125 4.359375 2.445312 4.546875 2.28125 C 4.742188 2.113281 4.90625 1.835938 5.03125 1.453125 C 5.15625 1.066406 5.265625 0.523438 5.359375 -0.171875 L 5.453125 -0.859375 C 4.859375 -0.285156 4.15625 0 3.34375 0 C 2.519531 0 1.875 -0.285156 1.40625 -0.859375 C 0.945312 -1.429688 0.71875 -2.289062 0.71875 -3.4375 C 0.71875 -4.601562 0.957031 -5.671875 1.4375 -6.640625 C 1.925781 -7.609375 2.566406 -8.375 3.359375 -8.9375 C 4.160156 -9.5 5.03125 -9.78125 5.96875 -9.78125 C 6.550781 -9.78125 7.015625 -9.671875 7.359375 -9.453125 C 7.710938 -9.234375 7.890625 -8.9375 7.890625 -8.5625 C 7.890625 -8.320312 7.796875 -8.03125 7.609375 -7.6875 C 7.523438 -7.550781 7.445312 -7.441406 7.375 -7.359375 C 7.300781 -7.285156 7.21875 -7.25 7.125 -7.25 C 7.039062 -7.25 6.984375 -7.28125 6.953125 -7.34375 C 6.929688 -7.414062 6.910156 -7.507812 6.890625 -7.625 C 6.867188 -7.738281 6.847656 -7.828125 6.828125 -7.890625 C 6.691406 -8.453125 6.265625 -8.734375 5.546875 -8.734375 C 4.898438 -8.734375 4.335938 -8.519531 3.859375 -8.09375 C 3.390625 -7.664062 3.023438 -7.078125 2.765625 -6.328125 C 2.503906 -5.585938 2.375 -4.757812 2.375 -3.84375 C 2.375 -2.9375 2.507812 -2.28125 2.78125 -1.875 C 3.050781 -1.476562 3.460938 -1.28125 4.015625 -1.28125 C 4.734375 -1.28125 5.28125 -1.597656 5.65625 -2.234375 L 5.9375 -4.3125 C 5.96875 -4.550781 6.066406 -4.753906 6.234375 -4.921875 C 6.398438 -5.097656 6.59375 -5.234375 6.8125 -5.328125 C 7.03125 -5.421875 7.226562 -5.46875 7.40625 -5.46875 C 7.476562 -5.46875 7.53125 -5.457031 7.5625 -5.4375 C 7.59375 -5.425781 7.609375 -5.390625 7.609375 -5.328125 C 7.609375 -5.273438 7.554688 -5.15625 7.453125 -4.96875 C 7.359375 -4.789062 7.289062 -4.539062 7.25 -4.21875 L 6.859375 -0.984375 C 6.679688 0.441406 6.273438 1.550781 5.640625 2.34375 C 5.003906 3.144531 4.191406 3.546875 3.203125 3.546875 Z M 3.203125 3.546875 "/></g></g></g><g fill="#000000" fill-opacity="1"><g transform="translate(69.388062, 20.473343)"><g><path d="M 1.15625 0.140625 C 0.863281 0.140625 0.632812 0 0.46875 -0.28125 C 0.3125 -0.570312 0.234375 -0.957031 0.234375 -1.4375 C 0.234375 -2.207031 0.421875 -2.992188 0.796875 -3.796875 C 1.171875 -4.609375 1.679688 -5.28125 2.328125 -5.8125 C 2.984375 -6.34375 3.6875 -6.609375 4.4375 -6.609375 C 4.675781 -6.609375 4.910156 -6.578125 5.140625 -6.515625 C 5.378906 -6.460938 5.570312 -6.394531 5.71875 -6.3125 C 5.632812 -6.113281 5.578125 -5.945312 5.546875 -5.8125 C 5.523438 -5.6875 5.507812 -5.601562 5.5 -5.5625 C 5.4375 -5.226562 5.34375 -4.722656 5.21875 -4.046875 C 5.09375 -3.367188 4.972656 -2.71875 4.859375 -2.09375 C 4.804688 -1.820312 4.78125 -1.609375 4.78125 -1.453125 C 4.78125 -1.359375 4.796875 -1.285156 4.828125 -1.234375 C 4.859375 -1.191406 4.90625 -1.171875 4.96875 -1.171875 C 5.125 -1.171875 5.265625 -1.265625 5.390625 -1.453125 C 5.523438 -1.640625 5.664062 -1.90625 5.8125 -2.25 C 5.832031 -2.300781 5.859375 -2.34375 5.890625 -2.375 C 5.921875 -2.414062 5.957031 -2.4375 6 -2.4375 C 6.082031 -2.4375 6.125 -2.375 6.125 -2.25 C 6.125 -2.1875 6.117188 -2.132812 6.109375 -2.09375 C 6.066406 -1.738281 5.945312 -1.390625 5.75 -1.046875 C 5.550781 -0.703125 5.3125 -0.414062 5.03125 -0.1875 C 4.75 0.03125 4.460938 0.140625 4.171875 0.140625 C 3.929688 0.140625 3.742188 0.0507812 3.609375 -0.125 C 3.472656 -0.300781 3.40625 -0.535156 3.40625 -0.828125 C 3.40625 -0.898438 3.414062 -1.015625 3.4375 -1.171875 L 3.5 -1.640625 L 3.46875 -1.640625 C 3.125 -1.117188 2.734375 -0.691406 2.296875 -0.359375 C 1.859375 -0.0234375 1.476562 0.140625 1.15625 0.140625 Z M 1.9375 -1.234375 C 2.144531 -1.234375 2.40625 -1.410156 2.71875 -1.765625 C 3.039062 -2.128906 3.34375 -2.585938 3.625 -3.140625 C 3.90625 -3.691406 4.09375 -4.242188 4.1875 -4.796875 L 4.28125 -5.328125 C 4.050781 -5.472656 3.835938 -5.546875 3.640625 -5.546875 C 3.335938 -5.546875 3.035156 -5.359375 2.734375 -4.984375 C 2.441406 -4.617188 2.195312 -4.144531 2 -3.5625 C 1.8125 -2.988281 1.71875 -2.40625 1.71875 -1.8125 C 1.71875 -1.582031 1.734375 -1.425781 1.765625 -1.34375 C 1.796875 -1.269531 1.851562 -1.234375 1.9375 -1.234375 Z M 1.9375 -1.234375 "/></g></g></g><g fill="#000000" fill-opacity="1"><g transform="translate(75.73543, 20.473343)"><g><path d="M 0.984375 0.140625 C 0.835938 0.140625 0.765625 0.09375 0.765625 0 C 0.765625 -0.0390625 0.785156 -0.132812 0.828125 -0.28125 C 0.929688 -0.570312 1 -0.8125 1.03125 -1 C 1.101562 -1.351562 1.207031 -1.894531 1.34375 -2.625 C 1.476562 -3.351562 1.578125 -3.984375 1.640625 -4.515625 C 1.679688 -4.835938 1.703125 -5.035156 1.703125 -5.109375 C 1.703125 -5.234375 1.664062 -5.296875 1.59375 -5.296875 C 1.40625 -5.296875 1.15625 -5.007812 0.84375 -4.4375 C 0.8125 -4.363281 0.769531 -4.296875 0.71875 -4.234375 C 0.675781 -4.179688 0.628906 -4.15625 0.578125 -4.15625 C 0.484375 -4.15625 0.4375 -4.234375 0.4375 -4.390625 C 0.4375 -4.640625 0.546875 -4.941406 0.765625 -5.296875 C 0.984375 -5.648438 1.253906 -5.957031 1.578125 -6.21875 C 1.898438 -6.476562 2.207031 -6.609375 2.5 -6.609375 C 2.6875 -6.609375 2.832031 -6.539062 2.9375 -6.40625 C 3.050781 -6.28125 3.109375 -6.082031 3.109375 -5.8125 C 3.109375 -5.445312 3.070312 -5.03125 3 -4.5625 L 3.015625 -4.5625 C 3.359375 -5.175781 3.726562 -5.671875 4.125 -6.046875 C 4.519531 -6.421875 4.898438 -6.609375 5.265625 -6.609375 C 5.734375 -6.609375 5.96875 -6.285156 5.96875 -5.640625 C 5.96875 -5.472656 5.945312 -5.238281 5.90625 -4.9375 L 5.890625 -4.859375 L 5.90625 -4.859375 C 6.257812 -5.410156 6.617188 -5.835938 6.984375 -6.140625 C 7.347656 -6.453125 7.695312 -6.609375 8.03125 -6.609375 C 8.5 -6.609375 8.734375 -6.273438 8.734375 -5.609375 C 8.734375 -5.328125 8.691406 -4.976562 8.609375 -4.5625 C 8.453125 -3.769531 8.359375 -3.3125 8.328125 -3.1875 C 8.273438 -2.882812 8.210938 -2.535156 8.140625 -2.140625 C 8.066406 -1.753906 8.03125 -1.519531 8.03125 -1.4375 C 8.03125 -1.257812 8.085938 -1.171875 8.203125 -1.171875 C 8.347656 -1.171875 8.476562 -1.257812 8.59375 -1.4375 C 8.71875 -1.625 8.847656 -1.894531 8.984375 -2.25 C 9.046875 -2.375 9.113281 -2.4375 9.1875 -2.4375 C 9.226562 -2.4375 9.257812 -2.40625 9.28125 -2.34375 C 9.3125 -2.28125 9.320312 -2.195312 9.3125 -2.09375 C 9.269531 -1.757812 9.144531 -1.421875 8.9375 -1.078125 C 8.726562 -0.734375 8.472656 -0.441406 8.171875 -0.203125 C 7.878906 0.0234375 7.585938 0.140625 7.296875 0.140625 C 6.828125 0.140625 6.59375 -0.164062 6.59375 -0.78125 C 6.59375 -1.15625 6.707031 -1.890625 6.9375 -2.984375 C 7.007812 -3.347656 7.070312 -3.707031 7.125 -4.0625 C 7.1875 -4.414062 7.222656 -4.707031 7.234375 -4.9375 L 7.234375 -5.015625 C 7.234375 -5.179688 7.179688 -5.265625 7.078125 -5.265625 C 6.953125 -5.265625 6.789062 -5.140625 6.59375 -4.890625 C 6.394531 -4.648438 6.191406 -4.328125 5.984375 -3.921875 C 5.785156 -3.523438 5.625 -3.117188 5.5 -2.703125 L 5.0625 -0.4375 C 5.039062 -0.300781 4.878906 -0.171875 4.578125 -0.046875 C 4.285156 0.078125 4.03125 0.140625 3.8125 0.140625 C 3.726562 0.140625 3.675781 0.125 3.65625 0.09375 C 3.644531 0.0625 3.648438 0.00390625 3.671875 -0.078125 C 3.679688 -0.117188 3.816406 -0.816406 4.078125 -2.171875 C 4.335938 -3.535156 4.484375 -4.457031 4.515625 -4.9375 L 4.515625 -5.046875 C 4.515625 -5.191406 4.46875 -5.265625 4.375 -5.265625 C 4.21875 -5.265625 4.019531 -5.101562 3.78125 -4.78125 C 3.539062 -4.457031 3.3125 -4.046875 3.09375 -3.546875 C 2.882812 -3.054688 2.734375 -2.582031 2.640625 -2.125 L 2.421875 -1 C 2.359375 -0.71875 2.175781 -0.457031 1.875 -0.21875 C 1.582031 0.0195312 1.285156 0.140625 0.984375 0.140625 Z M 0.984375 0.140625 "/></g></g></g><g fill="#000000" fill-opacity="1"><g transform="translate(85.499608, 20.473343)"><g><path d="M 1.78125 0.140625 C 1.300781 0.140625 0.921875 -0.0195312 0.640625 -0.34375 C 0.367188 -0.675781 0.234375 -1.140625 0.234375 -1.734375 C 0.234375 -2.429688 0.410156 -3.160156 0.765625 -3.921875 C 1.128906 -4.679688 1.582031 -5.316406 2.125 -5.828125 C 2.675781 -6.347656 3.234375 -6.609375 3.796875 -6.609375 C 4.097656 -6.609375 4.335938 -6.519531 4.515625 -6.34375 C 4.703125 -6.164062 4.796875 -5.910156 4.796875 -5.578125 C 4.796875 -5.160156 4.660156 -4.734375 4.390625 -4.296875 C 4.117188 -3.859375 3.75 -3.453125 3.28125 -3.078125 C 2.8125 -2.703125 2.285156 -2.398438 1.703125 -2.171875 C 1.734375 -1.523438 2.019531 -1.203125 2.5625 -1.203125 C 2.851562 -1.203125 3.128906 -1.296875 3.390625 -1.484375 C 3.660156 -1.671875 3.894531 -1.921875 4.09375 -2.234375 C 4.144531 -2.316406 4.1875 -2.378906 4.21875 -2.421875 C 4.257812 -2.460938 4.296875 -2.484375 4.328125 -2.484375 C 4.390625 -2.484375 4.425781 -2.460938 4.4375 -2.421875 C 4.457031 -2.390625 4.46875 -2.328125 4.46875 -2.234375 C 4.46875 -1.941406 4.335938 -1.601562 4.078125 -1.21875 C 3.816406 -0.84375 3.476562 -0.519531 3.0625 -0.25 C 2.644531 0.0078125 2.21875 0.140625 1.78125 0.140625 Z M 2.0625 -3.3125 C 2.257812 -3.3125 2.460938 -3.378906 2.671875 -3.515625 C 2.890625 -3.660156 3.066406 -3.847656 3.203125 -4.078125 C 3.347656 -4.316406 3.421875 -4.566406 3.421875 -4.828125 C 3.421875 -5.160156 3.285156 -5.328125 3.015625 -5.328125 C 2.722656 -5.328125 2.460938 -5.144531 2.234375 -4.78125 C 2.003906 -4.425781 1.859375 -3.945312 1.796875 -3.34375 C 1.847656 -3.320312 1.9375 -3.3125 2.0625 -3.3125 Z M 2.0625 -3.3125 "/></g></g></g><g fill="#000000" fill-opacity="1"><g transform="translate(90.527541, 20.473343)"><g/></g></g><g fill="#000000" fill-opacity="1"><g transform="translate(94.41655, 20.473343)"><g><path d="M 3.46875 0.140625 C 2.59375 0.140625 1.914062 -0.15625 1.4375 -0.75 C 0.957031 -1.351562 0.71875 -2.242188 0.71875 -3.421875 C 0.71875 -4.609375 0.960938 -5.6875 1.453125 -6.65625 C 1.941406 -7.632812 2.582031 -8.398438 3.375 -8.953125 C 4.175781 -9.503906 5.035156 -9.78125 5.953125 -9.78125 C 6.535156 -9.78125 7.003906 -9.671875 7.359375 -9.453125 C 7.710938 -9.234375 7.890625 -8.9375 7.890625 -8.5625 C 7.890625 -8.320312 7.796875 -8.03125 7.609375 -7.6875 C 7.523438 -7.550781 7.445312 -7.441406 7.375 -7.359375 C 7.300781 -7.285156 7.21875 -7.25 7.125 -7.25 C 7.039062 -7.25 6.984375 -7.28125 6.953125 -7.34375 C 6.929688 -7.414062 6.910156 -7.507812 6.890625 -7.625 C 6.867188 -7.738281 6.847656 -7.828125 6.828125 -7.890625 C 6.691406 -8.453125 6.265625 -8.734375 5.546875 -8.734375 C 4.910156 -8.734375 4.351562 -8.519531 3.875 -8.09375 C 3.394531 -7.675781 3.023438 -7.09375 2.765625 -6.34375 C 2.503906 -5.601562 2.375 -4.757812 2.375 -3.8125 C 2.375 -2.894531 2.515625 -2.21875 2.796875 -1.78125 C 3.078125 -1.351562 3.523438 -1.140625 4.140625 -1.140625 C 4.742188 -1.140625 5.222656 -1.300781 5.578125 -1.625 C 5.941406 -1.945312 6.265625 -2.351562 6.546875 -2.84375 C 6.628906 -3 6.722656 -3.078125 6.828125 -3.078125 C 6.921875 -3.078125 6.96875 -3.019531 6.96875 -2.90625 C 6.96875 -2.820312 6.941406 -2.6875 6.890625 -2.5 C 6.648438 -1.6875 6.222656 -1.039062 5.609375 -0.5625 C 4.992188 -0.09375 4.28125 0.140625 3.46875 0.140625 Z M 3.46875 0.140625 "/></g></g></g><g fill="#000000" fill-opacity="1"><g transform="translate(101.888938, 20.473343)"><g><path d="M 1.8125 0.140625 C 1.332031 0.140625 1.09375 -0.222656 1.09375 -0.953125 C 1.09375 -1.234375 1.132812 -1.625 1.21875 -2.125 L 1.65625 -4.671875 C 1.6875 -4.847656 1.703125 -5.003906 1.703125 -5.140625 C 1.703125 -5.253906 1.660156 -5.3125 1.578125 -5.3125 C 1.484375 -5.3125 1.382812 -5.25 1.28125 -5.125 C 1.175781 -5 1.03125 -4.769531 0.84375 -4.4375 C 0.8125 -4.363281 0.769531 -4.296875 0.71875 -4.234375 C 0.675781 -4.179688 0.628906 -4.15625 0.578125 -4.15625 C 0.484375 -4.15625 0.4375 -4.234375 0.4375 -4.390625 C 0.4375 -4.628906 0.546875 -4.925781 0.765625 -5.28125 C 0.992188 -5.632812 1.265625 -5.941406 1.578125 -6.203125 C 1.898438 -6.472656 2.210938 -6.609375 2.515625 -6.609375 C 2.710938 -6.609375 2.863281 -6.546875 2.96875 -6.421875 C 3.082031 -6.296875 3.140625 -6.117188 3.140625 -5.890625 C 3.140625 -5.835938 3.128906 -5.742188 3.109375 -5.609375 L 2.515625 -1.625 L 2.515625 -1.484375 C 2.515625 -1.410156 2.519531 -1.359375 2.53125 -1.328125 C 2.550781 -1.296875 2.59375 -1.28125 2.65625 -1.28125 C 2.863281 -1.28125 3.113281 -1.453125 3.40625 -1.796875 C 3.695312 -2.140625 3.96875 -2.578125 4.21875 -3.109375 C 4.46875 -3.640625 4.644531 -4.175781 4.75 -4.71875 L 4.890625 -5.4375 C 4.953125 -5.78125 5.117188 -6.0625 5.390625 -6.28125 C 5.671875 -6.5 5.976562 -6.609375 6.3125 -6.609375 C 6.394531 -6.609375 6.453125 -6.597656 6.484375 -6.578125 C 6.515625 -6.566406 6.53125 -6.53125 6.53125 -6.46875 C 6.53125 -6.4375 6.503906 -6.363281 6.453125 -6.25 C 6.410156 -6.132812 6.363281 -5.925781 6.3125 -5.625 C 6.226562 -5.300781 5.988281 -4.09375 5.59375 -2 C 5.550781 -1.789062 5.53125 -1.601562 5.53125 -1.4375 C 5.53125 -1.257812 5.582031 -1.171875 5.6875 -1.171875 C 5.84375 -1.171875 5.96875 -1.25 6.0625 -1.40625 C 6.164062 -1.570312 6.316406 -1.851562 6.515625 -2.25 C 6.554688 -2.375 6.613281 -2.4375 6.6875 -2.4375 C 6.769531 -2.4375 6.8125 -2.359375 6.8125 -2.203125 C 6.8125 -1.898438 6.707031 -1.5625 6.5 -1.1875 C 6.300781 -0.820312 6.046875 -0.507812 5.734375 -0.25 C 5.421875 0.0078125 5.109375 0.140625 4.796875 0.140625 C 4.359375 0.140625 4.140625 -0.132812 4.140625 -0.6875 C 4.140625 -0.9375 4.1875 -1.3125 4.28125 -1.8125 L 4.25 -1.8125 C 3.882812 -1.269531 3.484375 -0.804688 3.046875 -0.421875 C 2.617188 -0.046875 2.207031 0.140625 1.8125 0.140625 Z M 2.671875 -7.25 C 2.578125 -7.25 2.53125 -7.304688 2.53125 -7.421875 C 2.53125 -7.867188 2.65625 -8.257812 2.90625 -8.59375 C 3.15625 -8.9375 3.457031 -9.109375 3.8125 -9.109375 C 3.976562 -9.109375 4.125 -9.078125 4.25 -9.015625 C 4.375 -8.953125 4.519531 -8.859375 4.6875 -8.734375 C 4.800781 -8.628906 4.910156 -8.546875 5.015625 -8.484375 C 5.128906 -8.429688 5.25 -8.40625 5.375 -8.40625 C 5.59375 -8.40625 5.765625 -8.546875 5.890625 -8.828125 C 5.929688 -8.929688 5.96875 -9.003906 6 -9.046875 C 6.03125 -9.085938 6.078125 -9.109375 6.140625 -9.109375 C 6.234375 -9.109375 6.28125 -9.046875 6.28125 -8.921875 C 6.28125 -8.628906 6.21875 -8.351562 6.09375 -8.09375 C 5.96875 -7.832031 5.800781 -7.625 5.59375 -7.46875 C 5.382812 -7.320312 5.160156 -7.25 4.921875 -7.25 C 4.734375 -7.25 4.570312 -7.28125 4.4375 -7.34375 C 4.300781 -7.414062 4.15625 -7.519531 4 -7.65625 C 3.875 -7.757812 3.765625 -7.832031 3.671875 -7.875 C 3.578125 -7.925781 3.476562 -7.953125 3.375 -7.953125 C 3.28125 -7.953125 3.203125 -7.925781 3.140625 -7.875 C 3.085938 -7.820312 3.019531 -7.722656 2.9375 -7.578125 C 2.925781 -7.546875 2.898438 -7.492188 2.859375 -7.421875 C 2.828125 -7.359375 2.796875 -7.3125 2.765625 -7.28125 C 2.742188 -7.257812 2.710938 -7.25 2.671875 -7.25 Z M 2.671875 -7.25 "/></g></g></g></svg>