<svg xmlns="http://www.w3.org/2000/svg" xmlns:xlink="http://www.w3.org/1999/xlink" width="196" zoomAndPan="magnify" viewBox="0 0 147 33.749998" height="45" preserveAspectRatio="xMidYMid meet" version="1.0"><defs><g/><clipPath id="2c966c6eb2"><path d="M 9 0 L 140 0 L 140 33.5 L 9 33.5 Z M 9 0 " clip-rule="nonzero"/></clipPath></defs><g clip-path="url(#2c966c6eb2)"><path fill="#cdaa50" d="M 11.457031 5.546875 C 12.671875 5.046875 31.789062 0.601562 32.320312 1.386719 C 34.5 4.597656 37.183594 0.851562 41.761719 1.21875 C 47.539062 1.703125 50.285156 -2.011719 52.203125 2.25 C 53.085938 4.214844 61.308594 -0.03125 62.144531 2.71875 C 63.941406 3.320312 62.84375 2.351562 66.070312 2.652344 C 70.652344 3.066406 83.039062 0.136719 84.421875 1.75 C 84.671875 2.03125 85.535156 2.25 86.804688 2.402344 C 86.335938 2.515625 85.851562 2.800781 85.671875 3.28125 C 85.570312 3.5 83.605469 3.351562 82.441406 4.066406 C 82.238281 4.199219 79.078125 4.730469 79.542969 4.730469 C 80.839844 4.730469 81.957031 4.464844 83.507812 4.464844 C 85.9375 4.464844 84.070312 4.25 86.003906 3.964844 C 87.652344 3.730469 85.351562 3.25 88.785156 2.667969 C 88.90625 2.640625 89.03125 2.605469 89.152344 2.566406 C 94.746094 2.832031 103.386719 2.367188 105.003906 1.566406 C 110.679688 -1.25 107.699219 2.628906 112.792969 2.628906 C 114.027344 2.628906 137.4375 1.730469 134.457031 4.027344 C 131.441406 6.34375 134.65625 5.59375 134.789062 8.441406 C 134.875 10.089844 139.984375 10.355469 135.15625 13.703125 C 134.523438 13.753906 132.492188 13.984375 133.492188 14.054688 C 135.238281 14.171875 128.847656 15.636719 129.59375 15.636719 C 130.0625 15.636719 133.523438 15.253906 133.625 15.820312 C 133.625 15.820312 133.523438 16.570312 133.441406 16.703125 C 132.992188 17.46875 132.558594 16.933594 133.707031 17.335938 C 134.390625 17.550781 131.941406 18.464844 132.324219 18.464844 C 132.527344 18.449219 134.441406 18.667969 133.441406 19.382812 C 133.359375 19.449219 134.125 19.734375 133.226562 20.265625 C 133.023438 20.382812 132.292969 21.878906 132.359375 21.914062 C 133.574219 22.480469 130.476562 23.144531 131.859375 23.09375 C 132.140625 23.078125 132.089844 23.863281 133.972656 23.996094 C 134.839844 24.496094 135.886719 24.613281 134.488281 26.894531 C 133.957031 26.945312 133.386719 26.976562 133.339844 26.925781 C 133.054688 26.59375 130.40625 27.3125 129.859375 27.394531 C 129.125 27.492188 133.738281 27.445312 134.585938 27.527344 C 134.644531 27.53125 134.699219 27.523438 134.753906 27.511719 C 136.136719 28.527344 141.414062 29.792969 138.148438 31.007812 C 138.050781 31.039062 129.308594 31.574219 126.929688 32.1875 C 123 33.222656 119.949219 32.105469 117.355469 33.503906 C 116.320312 34.054688 90.796875 32.539062 90.726562 32.453125 C 90.746094 32.4375 93.460938 33.65625 88.28125 33.65625 C 86.816406 33.65625 72.628906 34.253906 72.578125 33.539062 C 72.363281 30.492188 63.6875 33.304688 60.140625 33.304688 C 56.777344 33.304688 52.050781 34.488281 49.816406 31.707031 C 49.085938 30.804688 42.808594 31.957031 38.226562 30.941406 C 38.34375 30.722656 38.5625 30.539062 39.078125 30.539062 C 40.09375 30.539062 40.363281 30.222656 40.59375 30.238281 C 42.859375 30.339844 40.511719 29.65625 42.925781 29.65625 C 44.855469 29.65625 44.824219 29.640625 46.605469 29.375 C 50.300781 28.824219 44.472656 29.140625 44.40625 29.140625 C 42.976562 29.324219 41.925781 29.074219 40.761719 29.125 C 40.128906 29.15625 40.160156 29.839844 37.699219 29.839844 C 37.148438 29.839844 36.695312 30.039062 36.265625 30.304688 C 34 29.722656 20.429688 35.5 20.429688 32.953125 C 20.429688 28.027344 20.78125 32.253906 19.414062 29.957031 C 18.414062 28.308594 26.589844 24.027344 15.886719 26.058594 C 15.335938 26.160156 14.285156 25.195312 14.984375 23.960938 C 15.335938 23.8125 15.636719 23.679688 15.835938 23.628906 C 16.765625 23.363281 16.652344 23.0625 16.800781 23.046875 C 19.949219 22.582031 18.199219 21.964844 18.183594 21.949219 C 19.066406 21.53125 19.882812 22.03125 18.550781 21.445312 C 18.484375 21.414062 18.367188 21.378906 18.25 21.332031 C 18.480469 20.949219 18.316406 20.628906 18.117188 20.28125 C 18.847656 19.949219 18.332031 19.929688 18.582031 19.730469 C 19.730469 18.828125 19.082031 19.53125 18.863281 19.03125 C 18.449219 18.128906 22.328125 18.496094 20.296875 18.046875 C 18.050781 17.566406 19.179688 17.582031 18.78125 17.332031 C 17.914062 16.765625 19.746094 16.832031 18.632812 16.648438 C 16.566406 16.316406 19.714844 15.984375 19.730469 15.996094 L 16.054688 15.996094 C 15.386719 15.847656 14.855469 15.714844 14.96875 15.398438 C 15.804688 14.964844 16.800781 14.445312 16.300781 14.445312 L 16.21875 14.445312 C 16.34375 14.355469 16.4375 14.238281 16.503906 14.09375 C 17.417969 13.828125 19 13.511719 19.082031 13.511719 C 19.449219 13.511719 17.835938 13.496094 16.417969 13.511719 C 16.003906 12.695312 14.519531 11.746094 13.953125 10.78125 C 15.621094 9.832031 14.671875 10.414062 15.453125 10.414062 C 16.253906 10.414062 16.601562 10.097656 16.785156 10.113281 C 18.21875 10.183594 18.234375 10.265625 19.648438 9.980469 C 20.933594 9.730469 20.351562 10.582031 22.28125 9.679688 C 22.429688 9.597656 21.28125 9.648438 21.082031 9.648438 C 20.214844 9.648438 19.265625 9.316406 18.964844 9.382812 C 18.699219 9.433594 16.121094 9.582031 15.886719 9.515625 C 14.96875 9.25 14.820312 9.882812 14.371094 9.25 C 14.304688 9.148438 13.871094 9.300781 13.4375 9.480469 C 12.191406 8.648438 7.726562 9.230469 11.042969 5.550781 C 11.15625 5.417969 11.324219 5.585938 11.457031 5.535156 Z M 11.457031 5.546875 " fill-opacity="1" fill-rule="evenodd"/></g><g fill="#f65455" fill-opacity="1"><g transform="translate(53.62171, 20.473343)"><g><path d="M 3.472656 0.660156 C 2.425781 0.660156 1.613281 0.296875 1.03125 -0.433594 C 0.476562 -1.125 0.203125 -2.121094 0.203125 -3.417969 C 0.203125 -4.695312 0.460938 -5.855469 0.984375 -6.902344 C 1.511719 -7.953125 2.210938 -8.78125 3.085938 -9.382812 C 3.976562 -9.996094 4.933594 -10.300781 5.960938 -10.300781 C 6.640625 -10.300781 7.199219 -10.167969 7.636719 -9.898438 C 7.886719 -9.742188 8.078125 -9.554688 8.207031 -9.332031 C 8.34375 -9.101562 8.410156 -8.84375 8.410156 -8.558594 C 8.410156 -8.230469 8.296875 -7.855469 8.070312 -7.433594 L 8.0625 -7.417969 L 8.050781 -7.402344 C 7.949219 -7.242188 7.851562 -7.113281 7.757812 -7.011719 C 7.578125 -6.824219 7.371094 -6.730469 7.125 -6.730469 C 6.984375 -6.730469 6.859375 -6.765625 6.746094 -6.835938 C 6.621094 -6.914062 6.53125 -7.023438 6.476562 -7.164062 C 6.433594 -7.265625 6.402344 -7.394531 6.375 -7.542969 C 6.359375 -7.632812 6.347656 -7.703125 6.332031 -7.746094 L 6.332031 -7.757812 L 6.328125 -7.765625 C 6.292969 -7.917969 6.222656 -8.023438 6.121094 -8.089844 C 5.992188 -8.175781 5.800781 -8.21875 5.542969 -8.21875 C 5.042969 -8.21875 4.601562 -8.050781 4.21875 -7.714844 C 3.804688 -7.351562 3.484375 -6.84375 3.257812 -6.183594 C 3.015625 -5.496094 2.898438 -4.707031 2.898438 -3.820312 C 2.898438 -3.007812 3.011719 -2.425781 3.238281 -2.074219 C 3.324219 -1.9375 3.4375 -1.835938 3.574219 -1.769531 C 3.726562 -1.695312 3.914062 -1.660156 4.140625 -1.660156 C 4.609375 -1.660156 4.972656 -1.777344 5.238281 -2.011719 C 5.554688 -2.300781 5.839844 -2.664062 6.089844 -3.105469 L 6.542969 -2.847656 L 6.082031 -3.089844 C 6.15625 -3.234375 6.246094 -3.347656 6.351562 -3.429688 C 6.496094 -3.546875 6.65625 -3.605469 6.835938 -3.605469 C 7.050781 -3.605469 7.226562 -3.523438 7.351562 -3.355469 C 7.449219 -3.234375 7.496094 -3.082031 7.496094 -2.902344 C 7.496094 -2.769531 7.460938 -2.585938 7.390625 -2.351562 C 7.117188 -1.429688 6.628906 -0.695312 5.921875 -0.15625 C 5.214844 0.386719 4.398438 0.660156 3.472656 0.660156 Z M 3.472656 -0.382812 C 4.160156 -0.382812 4.765625 -0.582031 5.289062 -0.984375 C 5.816406 -1.386719 6.183594 -1.941406 6.390625 -2.648438 C 6.433594 -2.785156 6.453125 -2.871094 6.453125 -2.902344 C 6.453125 -2.84375 6.476562 -2.785156 6.527344 -2.722656 C 6.570312 -2.664062 6.625 -2.621094 6.6875 -2.59375 C 6.738281 -2.574219 6.785156 -2.5625 6.835938 -2.5625 C 6.902344 -2.5625 6.960938 -2.582031 7.007812 -2.621094 C 7.015625 -2.625 7.019531 -2.632812 7.023438 -2.632812 C 7.015625 -2.628906 7.011719 -2.617188 7.003906 -2.605469 L 6.996094 -2.589844 C 6.691406 -2.050781 6.335938 -1.601562 5.933594 -1.238281 C 5.472656 -0.824219 4.875 -0.617188 4.140625 -0.617188 C 3.753906 -0.617188 3.414062 -0.691406 3.117188 -0.832031 C 2.808594 -0.984375 2.554688 -1.210938 2.363281 -1.507812 C 2.023438 -2.03125 1.855469 -2.800781 1.855469 -3.820312 C 1.855469 -4.824219 1.992188 -5.726562 2.273438 -6.527344 C 2.5625 -7.359375 2.980469 -8.015625 3.53125 -8.5 C 4.113281 -9.003906 4.78125 -9.257812 5.542969 -9.257812 C 6.007812 -9.257812 6.390625 -9.160156 6.695312 -8.960938 C 7.023438 -8.746094 7.238281 -8.429688 7.339844 -8.015625 L 6.835938 -7.890625 L 7.335938 -8.035156 C 7.359375 -7.949219 7.382812 -7.84375 7.40625 -7.710938 C 7.417969 -7.636719 7.429688 -7.585938 7.445312 -7.550781 C 7.414062 -7.621094 7.367188 -7.675781 7.296875 -7.71875 C 7.242188 -7.753906 7.183594 -7.773438 7.125 -7.773438 C 7.070312 -7.773438 7.027344 -7.757812 6.996094 -7.726562 C 7.050781 -7.78125 7.109375 -7.863281 7.175781 -7.964844 L 7.613281 -7.683594 L 7.15625 -7.929688 C 7.296875 -8.195312 7.371094 -8.40625 7.371094 -8.558594 C 7.371094 -8.652344 7.351562 -8.734375 7.308594 -8.800781 C 7.265625 -8.878906 7.191406 -8.945312 7.089844 -9.011719 C 6.820312 -9.175781 6.445312 -9.257812 5.960938 -9.257812 C 5.152344 -9.257812 4.390625 -9.015625 3.679688 -8.523438 C 2.949219 -8.023438 2.363281 -7.328125 1.917969 -6.433594 C 1.46875 -5.535156 1.242188 -4.53125 1.242188 -3.417969 C 1.242188 -2.363281 1.445312 -1.585938 1.84375 -1.082031 C 2.21875 -0.617188 2.761719 -0.382812 3.472656 -0.382812 Z M 3.472656 -0.382812 "/></g></g></g><g fill="#f65455" fill-opacity="1"><g transform="translate(61.052419, 20.473343)"><g><path d="M 1.152344 0.660156 C 0.90625 0.660156 0.6875 0.597656 0.488281 0.46875 C 0.304688 0.351562 0.148438 0.183594 0.0273438 -0.0351562 C -0.179688 -0.402344 -0.285156 -0.871094 -0.285156 -1.445312 C -0.285156 -2.289062 -0.0820312 -3.152344 0.328125 -4.027344 C 0.734375 -4.902344 1.292969 -5.632812 2.003906 -6.214844 C 2.746094 -6.828125 3.558594 -7.132812 4.429688 -7.132812 C 4.710938 -7.132812 4.992188 -7.101562 5.265625 -7.035156 C 5.550781 -6.96875 5.789062 -6.882812 5.980469 -6.773438 L 6.378906 -6.550781 L 6.207031 -6.125 C 6.132812 -5.949219 6.085938 -5.8125 6.066406 -5.710938 C 6.039062 -5.578125 6.015625 -5.488281 6.007812 -5.445312 L 5.5 -5.570312 L 6.011719 -5.472656 C 5.949219 -5.140625 5.855469 -4.632812 5.730469 -3.957031 L 5.375 -2.003906 C 5.324219 -1.753906 5.300781 -1.574219 5.300781 -1.457031 C 5.300781 -1.449219 5.300781 -1.441406 5.300781 -1.433594 L 5.300781 -1.4375 C 5.292969 -1.46875 5.277344 -1.5 5.253906 -1.535156 C 5.21875 -1.585938 5.171875 -1.628906 5.113281 -1.65625 C 5.066406 -1.675781 5.019531 -1.6875 4.972656 -1.6875 C 4.949219 -1.6875 4.925781 -1.683594 4.910156 -1.671875 C 4.925781 -1.683594 4.949219 -1.707031 4.972656 -1.746094 C 5.085938 -1.90625 5.207031 -2.144531 5.34375 -2.457031 L 5.820312 -2.25 L 5.328125 -2.414062 C 5.363281 -2.523438 5.410156 -2.621094 5.472656 -2.703125 C 5.605469 -2.878906 5.78125 -2.964844 6 -2.964844 C 6.105469 -2.964844 6.207031 -2.941406 6.296875 -2.894531 C 6.394531 -2.84375 6.472656 -2.773438 6.535156 -2.679688 C 6.609375 -2.558594 6.648438 -2.417969 6.648438 -2.25 C 6.648438 -2.144531 6.636719 -2.050781 6.617188 -1.972656 L 6.113281 -2.097656 L 6.628906 -2.03125 C 6.574219 -1.613281 6.433594 -1.199219 6.207031 -0.792969 C 5.976562 -0.386719 5.695312 -0.0507812 5.359375 0.214844 C 4.980469 0.511719 4.585938 0.660156 4.167969 0.660156 C 3.753906 0.660156 3.429688 0.503906 3.191406 0.191406 C 2.984375 -0.078125 2.882812 -0.417969 2.882812 -0.832031 C 2.882812 -0.929688 2.894531 -1.0625 2.914062 -1.230469 L 2.984375 -1.714844 L 3.5 -1.640625 L 3.5 -1.117188 L 3.472656 -1.117188 L 3.472656 -1.640625 L 3.90625 -1.351562 C 3.53125 -0.785156 3.101562 -0.316406 2.613281 0.0546875 C 2.082031 0.457031 1.59375 0.660156 1.152344 0.660156 Z M 1.152344 -0.382812 C 1.359375 -0.382812 1.636719 -0.511719 1.984375 -0.777344 C 2.378906 -1.074219 2.726562 -1.457031 3.039062 -1.925781 L 3.191406 -2.160156 L 4.105469 -2.160156 L 3.949219 -1.101562 C 3.933594 -0.976562 3.925781 -0.886719 3.925781 -0.832031 C 3.925781 -0.65625 3.957031 -0.523438 4.019531 -0.441406 C 4.050781 -0.402344 4.097656 -0.382812 4.167969 -0.382812 C 4.34375 -0.382812 4.527344 -0.457031 4.714844 -0.605469 C 4.941406 -0.785156 5.136719 -1.015625 5.296875 -1.304688 C 5.457031 -1.59375 5.558594 -1.878906 5.597656 -2.164062 L 5.601562 -2.195312 L 5.605469 -2.222656 C 5.605469 -2.21875 5.605469 -2.214844 5.605469 -2.210938 C 5.605469 -2.21875 5.605469 -2.234375 5.605469 -2.25 C 5.605469 -2.246094 5.605469 -2.238281 5.609375 -2.226562 C 5.617188 -2.1875 5.632812 -2.152344 5.65625 -2.113281 C 5.695312 -2.054688 5.75 -2.003906 5.816406 -1.96875 C 5.875 -1.9375 5.9375 -1.925781 6 -1.925781 C 6.128906 -1.925781 6.230469 -1.976562 6.308594 -2.078125 C 6.3125 -2.082031 6.316406 -2.089844 6.316406 -2.09375 C 6.316406 -2.09375 6.316406 -2.089844 6.316406 -2.085938 L 6.308594 -2.0625 L 6.300781 -2.042969 C 6.136719 -1.671875 5.984375 -1.375 5.835938 -1.15625 C 5.601562 -0.816406 5.3125 -0.644531 4.972656 -0.644531 C 4.863281 -0.644531 4.757812 -0.667969 4.664062 -0.714844 C 4.558594 -0.765625 4.46875 -0.839844 4.402344 -0.9375 C 4.304688 -1.074219 4.257812 -1.246094 4.257812 -1.457031 C 4.257812 -1.640625 4.289062 -1.886719 4.347656 -2.191406 L 4.703125 -4.144531 C 4.828125 -4.824219 4.925781 -5.335938 4.988281 -5.671875 L 4.996094 -5.695312 C 5.003906 -5.726562 5.019531 -5.804688 5.046875 -5.929688 C 5.082031 -6.089844 5.144531 -6.285156 5.242188 -6.519531 L 5.722656 -6.320312 L 5.46875 -5.867188 C 5.363281 -5.925781 5.214844 -5.976562 5.027344 -6.023438 C 4.832031 -6.066406 4.632812 -6.089844 4.429688 -6.089844 C 3.804688 -6.089844 3.21875 -5.863281 2.664062 -5.410156 C 2.078125 -4.929688 1.613281 -4.320312 1.269531 -3.585938 C 0.929688 -2.851562 0.757812 -2.136719 0.757812 -1.445312 C 0.757812 -1.054688 0.816406 -0.753906 0.933594 -0.546875 C 0.972656 -0.480469 1.011719 -0.433594 1.050781 -0.40625 C 1.078125 -0.390625 1.109375 -0.382812 1.152344 -0.382812 Z M 1.945312 -1.757812 C 1.933594 -1.757812 1.925781 -1.757812 1.917969 -1.753906 L 1.921875 -1.757812 C 1.941406 -1.765625 1.964844 -1.777344 1.996094 -1.800781 C 2.09375 -1.867188 2.207031 -1.972656 2.339844 -2.125 C 2.628906 -2.449219 2.902344 -2.871094 3.160156 -3.382812 C 3.414062 -3.886719 3.582031 -4.386719 3.667969 -4.878906 L 3.765625 -5.425781 L 4.277344 -5.335938 L 4.011719 -4.886719 C 3.863281 -4.976562 3.738281 -5.023438 3.640625 -5.023438 C 3.507812 -5.023438 3.34375 -4.902344 3.144531 -4.664062 C 2.886719 -4.347656 2.671875 -3.929688 2.503906 -3.414062 C 2.328125 -2.890625 2.242188 -2.351562 2.242188 -1.804688 C 2.242188 -1.714844 2.246094 -1.640625 2.253906 -1.582031 C 2.253906 -1.5625 2.257812 -1.546875 2.257812 -1.535156 L 2.261719 -1.535156 C 2.257812 -1.539062 2.257812 -1.546875 2.253906 -1.554688 C 2.230469 -1.609375 2.1875 -1.65625 2.132812 -1.695312 C 2.074219 -1.738281 2.011719 -1.757812 1.945312 -1.757812 Z M 1.945312 -0.714844 C 1.796875 -0.714844 1.664062 -0.753906 1.546875 -0.835938 C 1.429688 -0.914062 1.34375 -1.019531 1.289062 -1.15625 C 1.230469 -1.296875 1.203125 -1.515625 1.203125 -1.804688 C 1.203125 -2.464844 1.304688 -3.109375 1.511719 -3.738281 C 1.722656 -4.378906 2 -4.910156 2.339844 -5.324219 C 2.746094 -5.816406 3.179688 -6.0625 3.640625 -6.0625 C 3.929688 -6.0625 4.234375 -5.96875 4.546875 -5.78125 L 4.855469 -5.597656 L 4.695312 -4.707031 C 4.59375 -4.109375 4.394531 -3.507812 4.089844 -2.910156 C 3.792969 -2.320312 3.46875 -1.828125 3.121094 -1.433594 C 2.933594 -1.21875 2.753906 -1.058594 2.589844 -0.941406 C 2.371094 -0.792969 2.15625 -0.714844 1.945312 -0.714844 Z M 5.613281 -6.730469 C 5.160156 -6.765625 4.707031 -6.921875 4.257812 -7.195312 C 3.824219 -7.460938 3.460938 -7.777344 3.179688 -8.148438 C 2.859375 -8.5625 2.703125 -8.976562 2.703125 -9.390625 C 2.703125 -9.667969 2.789062 -9.878906 2.96875 -10.023438 C 3.117188 -10.144531 3.320312 -10.203125 3.585938 -10.203125 C 3.894531 -10.203125 4.148438 -10.167969 4.347656 -10.09375 C 4.644531 -9.988281 4.839844 -9.785156 4.941406 -9.488281 C 5.070312 -9.097656 5.199219 -8.8125 5.320312 -8.636719 C 5.433594 -8.472656 5.589844 -8.320312 5.792969 -8.183594 C 5.871094 -8.132812 5.933594 -8.089844 5.988281 -8.058594 C 6.074219 -8.003906 6.140625 -7.957031 6.195312 -7.910156 C 6.347656 -7.78125 6.425781 -7.609375 6.425781 -7.40625 C 6.425781 -7.285156 6.398438 -7.179688 6.34375 -7.078125 C 6.285156 -6.976562 6.207031 -6.894531 6.101562 -6.832031 C 5.953125 -6.742188 5.78125 -6.710938 5.589844 -6.734375 L 5.652344 -7.25 Z M 5.691406 -7.769531 L 5.71875 -7.769531 C 5.671875 -7.773438 5.625 -7.761719 5.566406 -7.726562 C 5.511719 -7.691406 5.464844 -7.644531 5.429688 -7.585938 C 5.398438 -7.527344 5.382812 -7.464844 5.382812 -7.40625 C 5.382812 -7.289062 5.425781 -7.195312 5.515625 -7.121094 C 5.503906 -7.128906 5.480469 -7.144531 5.445312 -7.167969 C 5.378906 -7.210938 5.300781 -7.261719 5.207031 -7.320312 C 4.894531 -7.535156 4.644531 -7.777344 4.460938 -8.050781 C 4.285156 -8.304688 4.113281 -8.675781 3.949219 -9.15625 C 3.957031 -9.136719 3.96875 -9.125 3.988281 -9.117188 C 3.90625 -9.148438 3.773438 -9.160156 3.585938 -9.160156 C 3.550781 -9.160156 3.53125 -9.160156 3.519531 -9.15625 C 3.554688 -9.164062 3.589844 -9.183594 3.628906 -9.21875 C 3.683594 -9.257812 3.71875 -9.308594 3.738281 -9.367188 C 3.742188 -9.378906 3.742188 -9.390625 3.742188 -9.398438 C 3.742188 -9.398438 3.742188 -9.394531 3.742188 -9.390625 C 3.742188 -9.210938 3.832031 -9.011719 4.003906 -8.785156 C 4.210938 -8.515625 4.476562 -8.285156 4.800781 -8.085938 C 5.109375 -7.898438 5.40625 -7.792969 5.691406 -7.769531 Z M 5.691406 -7.769531 "/></g></g></g><g fill="#f65455" fill-opacity="1"><g transform="translate(67.399788, 20.473343)"><g><path d="M 2.152344 -6.5625 C 1.921875 -6.5625 1.746094 -6.640625 1.621094 -6.792969 C 1.507812 -6.933594 1.46875 -7.113281 1.5 -7.324219 L 1.5 -7.335938 L 1.695312 -8.441406 C 1.773438 -8.855469 1.960938 -9.195312 2.253906 -9.453125 C 2.554688 -9.722656 2.960938 -9.855469 3.472656 -9.855469 L 3.585938 -9.855469 C 3.789062 -9.855469 3.953125 -9.785156 4.082031 -9.648438 C 4.207031 -9.507812 4.261719 -9.339844 4.242188 -9.136719 L 4.238281 -9.113281 L 4.042969 -7.996094 C 3.964844 -7.53125 3.765625 -7.175781 3.445312 -6.925781 C 3.140625 -6.683594 2.742188 -6.5625 2.25 -6.5625 Z M 2.152344 -7.605469 L 2.25 -7.605469 C 2.5 -7.605469 2.6875 -7.652344 2.804688 -7.746094 C 2.910156 -7.828125 2.980469 -7.972656 3.015625 -8.175781 L 3.210938 -9.273438 L 3.722656 -9.183594 L 3.203125 -9.230469 C 3.203125 -9.199219 3.203125 -9.164062 3.214844 -9.125 C 3.230469 -9.058594 3.261719 -9 3.308594 -8.945312 C 3.359375 -8.894531 3.414062 -8.855469 3.480469 -8.832031 C 3.515625 -8.820312 3.550781 -8.8125 3.585938 -8.8125 L 3.472656 -8.8125 C 3.226562 -8.8125 3.046875 -8.769531 2.945312 -8.675781 C 2.828125 -8.574219 2.753906 -8.433594 2.722656 -8.257812 L 2.527344 -7.160156 L 2.015625 -7.25 L 2.53125 -7.179688 C 2.53125 -7.1875 2.53125 -7.203125 2.527344 -7.226562 C 2.519531 -7.304688 2.488281 -7.378906 2.433594 -7.445312 C 2.375 -7.519531 2.300781 -7.570312 2.210938 -7.597656 C 2.1875 -7.601562 2.167969 -7.605469 2.152344 -7.605469 Z M 1.570312 0.660156 C 1.167969 0.660156 0.859375 0.511719 0.640625 0.21875 C 0.457031 -0.0234375 0.367188 -0.359375 0.367188 -0.777344 C 0.367188 -0.972656 0.394531 -1.222656 0.445312 -1.53125 L 0.445312 -1.539062 L 1.113281 -4.90625 L 1.625 -4.808594 L 1.109375 -4.863281 C 1.125 -5.011719 1.132812 -5.09375 1.132812 -5.113281 C 1.132812 -5.109375 1.132812 -5.101562 1.136719 -5.089844 C 1.144531 -5.050781 1.160156 -5.011719 1.183594 -4.976562 C 1.222656 -4.914062 1.277344 -4.867188 1.34375 -4.832031 C 1.402344 -4.800781 1.464844 -4.785156 1.527344 -4.785156 C 1.59375 -4.785156 1.648438 -4.800781 1.6875 -4.828125 C 1.679688 -4.820312 1.664062 -4.804688 1.636719 -4.773438 C 1.546875 -4.660156 1.417969 -4.464844 1.257812 -4.183594 L 0.804688 -4.445312 L 1.273438 -4.210938 C 1.261719 -4.1875 1.238281 -4.144531 1.203125 -4.082031 C 1.144531 -3.976562 1.085938 -3.890625 1.019531 -3.828125 C 0.890625 -3.699219 0.742188 -3.632812 0.570312 -3.632812 C 0.453125 -3.632812 0.347656 -3.660156 0.25 -3.71875 C 0.152344 -3.777344 0.078125 -3.855469 0.0234375 -3.953125 C -0.0429688 -4.070312 -0.078125 -4.210938 -0.078125 -4.375 C -0.078125 -4.734375 0.0625 -5.132812 0.335938 -5.574219 C 0.589844 -5.984375 0.910156 -6.335938 1.292969 -6.636719 C 1.71875 -6.96875 2.148438 -7.132812 2.582031 -7.132812 C 2.953125 -7.132812 3.238281 -7 3.4375 -6.730469 C 3.605469 -6.507812 3.6875 -6.210938 3.6875 -5.835938 C 3.6875 -5.65625 3.652344 -5.371094 3.582031 -4.980469 L 2.882812 -1.375 L 2.882812 -1.359375 C 2.875 -1.335938 2.871094 -1.3125 2.867188 -1.300781 L 2.867188 -1.296875 C 2.867188 -1.308594 2.867188 -1.320312 2.867188 -1.332031 C 2.867188 -1.414062 2.835938 -1.488281 2.769531 -1.5625 C 2.691406 -1.644531 2.601562 -1.6875 2.5 -1.6875 C 2.46875 -1.6875 2.4375 -1.683594 2.410156 -1.671875 C 2.398438 -1.667969 2.394531 -1.667969 2.390625 -1.664062 C 2.417969 -1.683594 2.457031 -1.722656 2.5 -1.78125 C 2.625 -1.9375 2.746094 -2.160156 2.867188 -2.449219 L 3.347656 -2.25 L 2.855469 -2.425781 C 2.902344 -2.550781 2.960938 -2.65625 3.027344 -2.734375 C 3.160156 -2.890625 3.324219 -2.964844 3.515625 -2.964844 C 3.636719 -2.964844 3.746094 -2.933594 3.847656 -2.871094 C 3.941406 -2.8125 4.015625 -2.730469 4.070312 -2.628906 C 4.128906 -2.515625 4.160156 -2.375 4.160156 -2.207031 C 4.160156 -1.789062 4.03125 -1.359375 3.769531 -0.910156 C 3.523438 -0.488281 3.214844 -0.132812 2.847656 0.164062 C 2.433594 0.496094 2.007812 0.660156 1.570312 0.660156 Z M 1.570312 -0.382812 C 1.761719 -0.382812 1.972656 -0.472656 2.195312 -0.652344 C 2.464844 -0.863281 2.691406 -1.125 2.871094 -1.4375 C 3.035156 -1.722656 3.117188 -1.976562 3.117188 -2.207031 C 3.117188 -2.214844 3.117188 -2.222656 3.117188 -2.226562 L 3.117188 -2.222656 C 3.121094 -2.199219 3.132812 -2.171875 3.148438 -2.140625 C 3.179688 -2.078125 3.230469 -2.027344 3.292969 -1.988281 C 3.359375 -1.945312 3.433594 -1.925781 3.515625 -1.925781 C 3.640625 -1.925781 3.742188 -1.96875 3.820312 -2.058594 C 3.832031 -2.070312 3.839844 -2.082031 3.847656 -2.09375 C 3.84375 -2.089844 3.84375 -2.085938 3.839844 -2.074219 L 3.835938 -2.0625 L 3.828125 -2.050781 C 3.671875 -1.671875 3.503906 -1.367188 3.320312 -1.136719 C 3.0625 -0.808594 2.789062 -0.644531 2.5 -0.644531 C 2.296875 -0.644531 2.128906 -0.714844 2 -0.855469 C 1.886719 -0.984375 1.828125 -1.144531 1.828125 -1.332031 C 1.828125 -1.402344 1.839844 -1.496094 1.871094 -1.613281 L 2.375 -1.488281 L 1.863281 -1.585938 L 2.558594 -5.164062 C 2.617188 -5.492188 2.644531 -5.71875 2.644531 -5.835938 C 2.644531 -5.921875 2.640625 -5.992188 2.625 -6.046875 C 2.617188 -6.078125 2.609375 -6.097656 2.605469 -6.105469 C 2.609375 -6.097656 2.617188 -6.09375 2.628906 -6.085938 C 2.621094 -6.089844 2.609375 -6.089844 2.582031 -6.089844 C 2.386719 -6.089844 2.171875 -6 1.929688 -5.8125 C 1.648438 -5.589844 1.410156 -5.328125 1.21875 -5.023438 C 1.050781 -4.753906 0.964844 -4.535156 0.964844 -4.375 C 0.960938 -4.402344 0.949219 -4.433594 0.929688 -4.464844 C 0.894531 -4.527344 0.84375 -4.578125 0.78125 -4.617188 C 0.714844 -4.65625 0.644531 -4.675781 0.570312 -4.675781 C 0.453125 -4.675781 0.359375 -4.636719 0.285156 -4.5625 C 0.277344 -4.554688 0.269531 -4.546875 0.265625 -4.542969 C 0.269531 -4.550781 0.277344 -4.5625 0.285156 -4.574219 C 0.3125 -4.628906 0.332031 -4.664062 0.339844 -4.679688 L 0.347656 -4.691406 L 0.355469 -4.707031 C 0.542969 -5.035156 0.703125 -5.28125 0.835938 -5.4375 C 1.050781 -5.699219 1.28125 -5.828125 1.527344 -5.828125 C 1.632812 -5.828125 1.730469 -5.804688 1.824219 -5.757812 C 1.921875 -5.707031 2 -5.632812 2.058594 -5.539062 C 2.136719 -5.421875 2.175781 -5.277344 2.175781 -5.113281 C 2.175781 -5.054688 2.164062 -4.933594 2.144531 -4.75 L 2.140625 -4.726562 L 1.46875 -1.34375 L 0.957031 -1.445312 L 1.472656 -1.359375 C 1.429688 -1.109375 1.410156 -0.914062 1.410156 -0.777344 C 1.410156 -0.585938 1.433594 -0.460938 1.476562 -0.402344 C 1.488281 -0.386719 1.519531 -0.382812 1.570312 -0.382812 Z M 1.570312 -0.382812 "/></g></g></g><g fill="#f65455" fill-opacity="1"><g transform="translate(71.566581, 20.473343)"><g/></g></g><g fill="#f65455" fill-opacity="1"><g transform="translate(75.455589, 20.473343)"><g><path d="M 4.667969 -10.300781 C 6.0625 -10.300781 7.164062 -9.890625 7.964844 -9.074219 C 8.761719 -8.261719 9.160156 -7.097656 9.160156 -5.585938 C 9.160156 -4.46875 8.945312 -3.453125 8.507812 -2.535156 C 8.0625 -1.597656 7.425781 -0.855469 6.59375 -0.308594 C 5.757812 0.246094 4.789062 0.519531 3.695312 0.519531 C 3.351562 0.519531 2.9375 0.480469 2.445312 0.402344 C 2.085938 0.351562 1.847656 0.328125 1.722656 0.328125 C 1.550781 0.328125 1.402344 0.347656 1.28125 0.394531 C 1.042969 0.476562 0.867188 0.519531 0.75 0.519531 C 0.554688 0.519531 0.394531 0.457031 0.265625 0.332031 C 0.140625 0.203125 0.078125 0.0429688 0.078125 -0.152344 C 0.078125 -0.324219 0.125 -0.527344 0.222656 -0.753906 C 0.324219 -0.988281 0.476562 -1.195312 0.683594 -1.378906 L 0.695312 -1.386719 L 0.703125 -1.394531 C 0.890625 -1.542969 1 -1.640625 1.027344 -1.6875 C 1.027344 -1.683594 1.023438 -1.679688 1.023438 -1.679688 C 1.023438 -1.679688 1.027344 -1.6875 1.03125 -1.691406 C 1.039062 -1.714844 1.046875 -1.742188 1.058594 -1.777344 C 1.085938 -1.863281 1.113281 -1.976562 1.144531 -2.121094 L 1.652344 -2.015625 L 1.140625 -2.105469 L 1.5 -4.160156 L 2.015625 -4.070312 L 2.015625 -3.550781 L 1.265625 -3.550781 C 1.15625 -3.550781 1.058594 -3.539062 0.964844 -3.523438 C 0.808594 -3.496094 0.683594 -3.480469 0.597656 -3.480469 C 0.398438 -3.480469 0.234375 -3.542969 0.109375 -3.667969 C -0.015625 -3.792969 -0.078125 -3.957031 -0.078125 -4.167969 C -0.078125 -4.433594 0.046875 -4.6875 0.292969 -4.933594 C 0.476562 -5.117188 0.703125 -5.273438 0.96875 -5.398438 C 1.246094 -5.527344 1.515625 -5.589844 1.777344 -5.589844 L 2.195312 -5.589844 L 2.195312 -5.070312 L 1.679688 -5.160156 L 2.015625 -7.078125 C 2.058594 -7.34375 2.1875 -7.605469 2.410156 -7.867188 C 2.609375 -8.105469 2.855469 -8.296875 3.148438 -8.449219 C 3.457031 -8.609375 3.761719 -8.691406 4.070312 -8.691406 C 4.269531 -8.691406 4.433594 -8.636719 4.558594 -8.535156 C 4.710938 -8.40625 4.785156 -8.238281 4.785156 -8.03125 C 4.785156 -7.90625 4.738281 -7.722656 4.636719 -7.476562 C 4.574219 -7.320312 4.515625 -7.09375 4.457031 -6.789062 L 4.125 -4.976562 L 3.613281 -5.070312 L 3.613281 -5.589844 L 4.667969 -5.589844 C 4.773438 -5.589844 4.871094 -5.601562 4.957031 -5.617188 C 5.109375 -5.648438 5.230469 -5.660156 5.320312 -5.660156 C 5.53125 -5.660156 5.703125 -5.585938 5.832031 -5.429688 C 5.941406 -5.304688 5.996094 -5.148438 5.996094 -4.960938 C 5.996094 -4.695312 5.875 -4.441406 5.632812 -4.203125 C 5.453125 -4.019531 5.226562 -3.867188 4.964844 -3.742188 C 4.6875 -3.613281 4.417969 -3.550781 4.152344 -3.550781 L 3.429688 -3.550781 L 3.429688 -4.070312 L 3.945312 -3.980469 L 3.542969 -1.703125 L 3.027344 -1.792969 L 3.546875 -1.726562 C 3.507812 -1.425781 3.402344 -1.15625 3.230469 -0.917969 L 2.804688 -1.222656 L 3.328125 -1.222656 L 3.328125 -1.207031 L 2.804688 -1.207031 L 2.90625 -1.71875 C 3.113281 -1.679688 3.410156 -1.660156 3.792969 -1.660156 C 4.34375 -1.660156 4.8125 -1.808594 5.199219 -2.101562 C 5.601562 -2.410156 5.910156 -2.84375 6.125 -3.402344 C 6.351562 -3.996094 6.464844 -4.6875 6.464844 -5.472656 C 6.464844 -6.484375 6.28125 -7.207031 5.90625 -7.640625 C 5.550781 -8.054688 4.972656 -8.257812 4.167969 -8.257812 C 3.636719 -8.257812 3.179688 -8.171875 2.792969 -8.003906 C 2.414062 -7.835938 2.074219 -7.578125 1.773438 -7.222656 L 1.765625 -7.210938 L 1.757812 -7.203125 C 1.632812 -7.066406 1.53125 -6.96875 1.457031 -6.90625 C 1.308594 -6.78125 1.125 -6.714844 0.917969 -6.714844 C 0.710938 -6.714844 0.539062 -6.789062 0.410156 -6.929688 C 0.289062 -7.058594 0.230469 -7.222656 0.230469 -7.417969 C 0.230469 -7.539062 0.261719 -7.695312 0.324219 -7.890625 L 0.332031 -7.910156 L 0.34375 -7.933594 C 0.667969 -8.671875 1.21875 -9.253906 1.992188 -9.679688 C 2.742188 -10.09375 3.632812 -10.300781 4.667969 -10.300781 Z M 4.667969 -9.257812 C 3.8125 -9.257812 3.089844 -9.09375 2.496094 -8.769531 C 1.925781 -8.453125 1.527344 -8.035156 1.296875 -7.511719 L 0.820312 -7.722656 L 1.3125 -7.558594 C 1.296875 -7.507812 1.285156 -7.460938 1.277344 -7.429688 C 1.273438 -7.417969 1.273438 -7.410156 1.269531 -7.402344 C 1.269531 -7.40625 1.269531 -7.410156 1.269531 -7.417969 C 1.269531 -7.492188 1.238281 -7.566406 1.175781 -7.636719 C 1.097656 -7.71875 1.011719 -7.757812 0.917969 -7.757812 C 0.875 -7.757812 0.832031 -7.742188 0.792969 -7.707031 C 0.828125 -7.738281 0.898438 -7.808594 0.992188 -7.910156 L 1.375 -7.558594 L 0.976562 -7.894531 C 1.382812 -8.371094 1.847656 -8.726562 2.375 -8.957031 C 2.894531 -9.1875 3.492188 -9.300781 4.167969 -9.300781 C 5.289062 -9.300781 6.132812 -8.972656 6.695312 -8.320312 C 7.238281 -7.691406 7.507812 -6.742188 7.507812 -5.472656 C 7.507812 -4.558594 7.371094 -3.742188 7.097656 -3.03125 C 6.8125 -2.285156 6.390625 -1.699219 5.832031 -1.273438 C 5.253906 -0.835938 4.578125 -0.617188 3.792969 -0.617188 C 3.34375 -0.617188 2.980469 -0.644531 2.707031 -0.695312 L 2.285156 -0.777344 L 2.285156 -1.390625 L 2.382812 -1.527344 C 2.453125 -1.621094 2.496094 -1.734375 2.511719 -1.859375 L 2.511719 -1.871094 L 2.996094 -4.589844 L 4.152344 -4.589844 C 4.261719 -4.589844 4.386719 -4.625 4.523438 -4.6875 C 4.675781 -4.761719 4.800781 -4.84375 4.898438 -4.9375 C 4.929688 -4.972656 4.953125 -5 4.960938 -5.019531 C 4.957031 -5.007812 4.953125 -4.988281 4.953125 -4.960938 C 4.953125 -4.890625 4.980469 -4.824219 5.039062 -4.757812 C 5.117188 -4.664062 5.210938 -4.617188 5.320312 -4.617188 C 5.296875 -4.617188 5.242188 -4.609375 5.15625 -4.59375 C 5.003906 -4.5625 4.839844 -4.550781 4.667969 -4.550781 L 2.988281 -4.550781 L 3.433594 -6.988281 C 3.503906 -7.355469 3.582031 -7.644531 3.667969 -7.863281 C 3.703125 -7.941406 3.726562 -8.003906 3.738281 -8.050781 C 3.742188 -8.066406 3.746094 -8.078125 3.746094 -8.082031 C 3.746094 -8.070312 3.742188 -8.050781 3.742188 -8.03125 C 3.742188 -7.914062 3.792969 -7.816406 3.890625 -7.734375 C 3.941406 -7.691406 3.992188 -7.664062 4.046875 -7.652344 C 4.058594 -7.648438 4.066406 -7.648438 4.074219 -7.648438 L 4.070312 -7.648438 C 3.933594 -7.648438 3.785156 -7.605469 3.628906 -7.527344 C 3.457031 -7.4375 3.316406 -7.324219 3.203125 -7.191406 C 3.109375 -7.082031 3.054688 -6.984375 3.042969 -6.898438 L 2.632812 -4.550781 L 1.777344 -4.550781 C 1.671875 -4.550781 1.546875 -4.515625 1.40625 -4.453125 C 1.253906 -4.382812 1.128906 -4.296875 1.027344 -4.195312 C 0.992188 -4.160156 0.96875 -4.128906 0.957031 -4.109375 C 0.960938 -4.121094 0.964844 -4.140625 0.964844 -4.167969 C 0.964844 -4.179688 0.960938 -4.195312 0.957031 -4.21875 C 0.9375 -4.289062 0.902344 -4.347656 0.847656 -4.402344 C 0.796875 -4.457031 0.738281 -4.492188 0.671875 -4.507812 C 0.644531 -4.519531 0.621094 -4.523438 0.597656 -4.523438 C 0.621094 -4.523438 0.679688 -4.53125 0.773438 -4.546875 C 0.929688 -4.578125 1.09375 -4.589844 1.265625 -4.589844 L 2.636719 -4.589844 L 2.164062 -1.917969 L 2.164062 -1.910156 C 2.085938 -1.53125 2 -1.265625 1.902344 -1.117188 C 1.8125 -0.980469 1.628906 -0.800781 1.355469 -0.578125 L 1.027344 -0.988281 L 1.371094 -0.59375 C 1.28125 -0.515625 1.21875 -0.433594 1.179688 -0.34375 C 1.140625 -0.246094 1.117188 -0.183594 1.117188 -0.152344 C 1.117188 -0.246094 1.082031 -0.332031 1.003906 -0.40625 C 0.929688 -0.484375 0.84375 -0.519531 0.75 -0.519531 C 0.730469 -0.519531 0.71875 -0.519531 0.707031 -0.519531 C 0.714844 -0.519531 0.726562 -0.523438 0.742188 -0.527344 C 0.789062 -0.539062 0.851562 -0.558594 0.929688 -0.585938 C 1.164062 -0.671875 1.429688 -0.714844 1.722656 -0.714844 C 1.894531 -0.714844 2.191406 -0.6875 2.609375 -0.625 C 3.046875 -0.554688 3.40625 -0.519531 3.695312 -0.519531 C 4.582031 -0.519531 5.355469 -0.738281 6.019531 -1.179688 C 6.6875 -1.621094 7.203125 -2.222656 7.566406 -2.980469 C 7.933594 -3.757812 8.121094 -4.625 8.121094 -5.585938 C 8.121094 -6.8125 7.820312 -7.734375 7.21875 -8.34375 C 6.621094 -8.953125 5.773438 -9.257812 4.667969 -9.257812 Z M 4.667969 -9.257812 "/></g></g></g><g fill="#f65455" fill-opacity="1"><g transform="translate(84.372508, 20.473343)"><g><path d="M 1.152344 0.660156 C 0.90625 0.660156 0.6875 0.597656 0.488281 0.46875 C 0.304688 0.351562 0.148438 0.183594 0.0273438 -0.0351562 C -0.179688 -0.402344 -0.285156 -0.871094 -0.285156 -1.445312 C -0.285156 -2.289062 -0.0820312 -3.152344 0.328125 -4.027344 C 0.734375 -4.902344 1.292969 -5.632812 2.003906 -6.214844 C 2.746094 -6.828125 3.558594 -7.132812 4.429688 -7.132812 C 4.710938 -7.132812 4.992188 -7.101562 5.265625 -7.035156 C 5.550781 -6.96875 5.789062 -6.882812 5.980469 -6.773438 L 6.378906 -6.550781 L 6.207031 -6.125 C 6.132812 -5.949219 6.085938 -5.8125 6.066406 -5.710938 C 6.039062 -5.578125 6.015625 -5.488281 6.007812 -5.445312 L 5.5 -5.570312 L 6.011719 -5.472656 C 5.949219 -5.140625 5.855469 -4.632812 5.730469 -3.957031 L 5.375 -2.003906 C 5.324219 -1.753906 5.300781 -1.574219 5.300781 -1.457031 C 5.300781 -1.449219 5.300781 -1.441406 5.300781 -1.433594 L 5.300781 -1.4375 C 5.292969 -1.46875 5.277344 -1.5 5.253906 -1.535156 C 5.21875 -1.585938 5.171875 -1.628906 5.113281 -1.65625 C 5.066406 -1.675781 5.019531 -1.6875 4.972656 -1.6875 C 4.949219 -1.6875 4.925781 -1.683594 4.910156 -1.671875 C 4.925781 -1.683594 4.949219 -1.707031 4.972656 -1.746094 C 5.085938 -1.90625 5.207031 -2.144531 5.34375 -2.457031 L 5.820312 -2.25 L 5.328125 -2.414062 C 5.363281 -2.523438 5.410156 -2.621094 5.472656 -2.703125 C 5.605469 -2.878906 5.78125 -2.964844 6 -2.964844 C 6.105469 -2.964844 6.207031 -2.941406 6.296875 -2.894531 C 6.394531 -2.84375 6.472656 -2.773438 6.535156 -2.679688 C 6.609375 -2.558594 6.648438 -2.417969 6.648438 -2.25 C 6.648438 -2.144531 6.636719 -2.050781 6.617188 -1.972656 L 6.113281 -2.097656 L 6.628906 -2.03125 C 6.574219 -1.613281 6.433594 -1.199219 6.207031 -0.792969 C 5.976562 -0.386719 5.695312 -0.0507812 5.359375 0.214844 C 4.980469 0.511719 4.585938 0.660156 4.167969 0.660156 C 3.753906 0.660156 3.429688 0.503906 3.191406 0.191406 C 2.984375 -0.078125 2.882812 -0.417969 2.882812 -0.832031 C 2.882812 -0.929688 2.894531 -1.0625 2.914062 -1.230469 L 2.984375 -1.714844 L 3.5 -1.640625 L 3.5 -1.117188 L 3.472656 -1.117188 L 3.472656 -1.640625 L 3.90625 -1.351562 C 3.53125 -0.785156 3.101562 -0.316406 2.613281 0.0546875 C 2.082031 0.457031 1.59375 0.660156 1.152344 0.660156 Z M 1.152344 -0.382812 C 1.359375 -0.382812 1.636719 -0.511719 1.984375 -0.777344 C 2.378906 -1.074219 2.726562 -1.457031 3.039062 -1.925781 L 3.191406 -2.160156 L 4.105469 -2.160156 L 3.949219 -1.101562 C 3.933594 -0.976562 3.925781 -0.886719 3.925781 -0.832031 C 3.925781 -0.65625 3.957031 -0.523438 4.019531 -0.441406 C 4.050781 -0.402344 4.097656 -0.382812 4.167969 -0.382812 C 4.34375 -0.382812 4.527344 -0.457031 4.714844 -0.605469 C 4.941406 -0.785156 5.136719 -1.015625 5.296875 -1.304688 C 5.457031 -1.59375 5.558594 -1.878906 5.597656 -2.164062 L 5.601562 -2.195312 L 5.605469 -2.222656 C 5.605469 -2.21875 5.605469 -2.214844 5.605469 -2.210938 C 5.605469 -2.21875 5.605469 -2.234375 5.605469 -2.25 C 5.605469 -2.246094 5.605469 -2.238281 5.609375 -2.226562 C 5.617188 -2.1875 5.632812 -2.152344 5.65625 -2.113281 C 5.695312 -2.054688 5.75 -2.003906 5.816406 -1.96875 C 5.875 -1.9375 5.9375 -1.925781 6 -1.925781 C 6.128906 -1.925781 6.230469 -1.976562 6.308594 -2.078125 C 6.3125 -2.082031 6.316406 -2.089844 6.316406 -2.09375 C 6.316406 -2.09375 6.316406 -2.089844 6.316406 -2.085938 L 6.308594 -2.0625 L 6.300781 -2.042969 C 6.136719 -1.671875 5.984375 -1.375 5.835938 -1.15625 C 5.601562 -0.816406 5.3125 -0.644531 4.972656 -0.644531 C 4.863281 -0.644531 4.757812 -0.667969 4.664062 -0.714844 C 4.558594 -0.765625 4.46875 -0.839844 4.402344 -0.9375 C 4.304688 -1.074219 4.257812 -1.246094 4.257812 -1.457031 C 4.257812 -1.640625 4.289062 -1.886719 4.347656 -2.191406 L 4.703125 -4.144531 C 4.828125 -4.824219 4.925781 -5.335938 4.988281 -5.671875 L 4.996094 -5.695312 C 5.003906 -5.726562 5.019531 -5.804688 5.046875 -5.929688 C 5.082031 -6.089844 5.144531 -6.285156 5.242188 -6.519531 L 5.722656 -6.320312 L 5.46875 -5.867188 C 5.363281 -5.925781 5.214844 -5.976562 5.027344 -6.023438 C 4.832031 -6.066406 4.632812 -6.089844 4.429688 -6.089844 C 3.804688 -6.089844 3.21875 -5.863281 2.664062 -5.410156 C 2.078125 -4.929688 1.613281 -4.320312 1.269531 -3.585938 C 0.929688 -2.851562 0.757812 -2.136719 0.757812 -1.445312 C 0.757812 -1.054688 0.816406 -0.753906 0.933594 -0.546875 C 0.972656 -0.480469 1.011719 -0.433594 1.050781 -0.40625 C 1.078125 -0.390625 1.109375 -0.382812 1.152344 -0.382812 Z M 1.945312 -1.757812 C 1.933594 -1.757812 1.925781 -1.757812 1.917969 -1.753906 L 1.921875 -1.757812 C 1.941406 -1.765625 1.964844 -1.777344 1.996094 -1.800781 C 2.09375 -1.867188 2.207031 -1.972656 2.339844 -2.125 C 2.628906 -2.449219 2.902344 -2.871094 3.160156 -3.382812 C 3.414062 -3.886719 3.582031 -4.386719 3.667969 -4.878906 L 3.765625 -5.425781 L 4.277344 -5.335938 L 4.011719 -4.886719 C 3.863281 -4.976562 3.738281 -5.023438 3.640625 -5.023438 C 3.507812 -5.023438 3.34375 -4.902344 3.144531 -4.664062 C 2.886719 -4.347656 2.671875 -3.929688 2.503906 -3.414062 C 2.328125 -2.890625 2.242188 -2.351562 2.242188 -1.804688 C 2.242188 -1.714844 2.246094 -1.640625 2.253906 -1.582031 C 2.253906 -1.5625 2.257812 -1.546875 2.257812 -1.535156 L 2.261719 -1.535156 C 2.257812 -1.539062 2.257812 -1.546875 2.253906 -1.554688 C 2.230469 -1.609375 2.1875 -1.65625 2.132812 -1.695312 C 2.074219 -1.738281 2.011719 -1.757812 1.945312 -1.757812 Z M 1.945312 -0.714844 C 1.796875 -0.714844 1.664062 -0.753906 1.546875 -0.835938 C 1.429688 -0.914062 1.34375 -1.019531 1.289062 -1.15625 C 1.230469 -1.296875 1.203125 -1.515625 1.203125 -1.804688 C 1.203125 -2.464844 1.304688 -3.109375 1.511719 -3.738281 C 1.722656 -4.378906 2 -4.910156 2.339844 -5.324219 C 2.746094 -5.816406 3.179688 -6.0625 3.640625 -6.0625 C 3.929688 -6.0625 4.234375 -5.96875 4.546875 -5.78125 L 4.855469 -5.597656 L 4.695312 -4.707031 C 4.59375 -4.109375 4.394531 -3.507812 4.089844 -2.910156 C 3.792969 -2.320312 3.46875 -1.828125 3.121094 -1.433594 C 2.933594 -1.21875 2.753906 -1.058594 2.589844 -0.941406 C 2.371094 -0.792969 2.15625 -0.714844 1.945312 -0.714844 Z M 2.320312 3.1875 C 1.988281 3.1875 1.710938 3.085938 1.488281 2.875 C 1.25 2.65625 1.132812 2.375 1.132812 2.027344 C 1.132812 1.75 1.21875 1.476562 1.386719 1.210938 C 1.542969 0.96875 1.742188 0.769531 1.980469 0.609375 C 2.25 0.429688 2.523438 0.339844 2.804688 0.339844 C 3.125 0.339844 3.398438 0.453125 3.621094 0.671875 C 3.839844 0.894531 3.953125 1.171875 3.953125 1.5 C 3.953125 1.769531 3.875 2.039062 3.71875 2.300781 C 3.574219 2.546875 3.382812 2.753906 3.140625 2.917969 C 2.878906 3.097656 2.601562 3.1875 2.320312 3.1875 Z M 2.320312 2.144531 C 2.386719 2.144531 2.464844 2.117188 2.554688 2.054688 C 2.664062 1.980469 2.753906 1.882812 2.824219 1.769531 C 2.882812 1.671875 2.910156 1.582031 2.910156 1.5 C 2.910156 1.460938 2.902344 1.429688 2.882812 1.410156 C 2.863281 1.390625 2.839844 1.382812 2.804688 1.382812 C 2.734375 1.382812 2.652344 1.414062 2.558594 1.476562 C 2.441406 1.554688 2.34375 1.65625 2.265625 1.773438 C 2.203125 1.871094 2.175781 1.953125 2.175781 2.027344 C 2.175781 2.070312 2.179688 2.097656 2.195312 2.109375 C 2.21875 2.132812 2.261719 2.144531 2.320312 2.144531 Z M 4.347656 -6.730469 C 3.75 -6.730469 3.246094 -6.871094 2.839844 -7.148438 C 2.617188 -7.300781 2.445312 -7.472656 2.328125 -7.671875 C 2.195312 -7.886719 2.132812 -8.125 2.132812 -8.375 C 2.132812 -8.679688 2.230469 -8.957031 2.425781 -9.21875 C 2.59375 -9.441406 2.800781 -9.625 3.042969 -9.761719 C 3.304688 -9.910156 3.558594 -9.980469 3.804688 -9.980469 C 4.070312 -9.980469 4.261719 -9.894531 4.390625 -9.714844 C 4.496094 -9.570312 4.53125 -9.394531 4.503906 -9.191406 C 4.488281 -9.070312 4.480469 -8.980469 4.480469 -8.917969 C 4.480469 -8.746094 4.507812 -8.628906 4.558594 -8.574219 C 4.597656 -8.53125 4.683594 -8.507812 4.820312 -8.507812 C 5.042969 -8.507812 5.191406 -8.554688 5.265625 -8.640625 C 5.402344 -8.796875 5.511719 -9.011719 5.601562 -9.289062 L 6.097656 -9.128906 L 5.597656 -9.265625 C 5.644531 -9.433594 5.714844 -9.566406 5.8125 -9.671875 C 5.957031 -9.824219 6.128906 -9.898438 6.335938 -9.898438 C 6.472656 -9.898438 6.597656 -9.859375 6.710938 -9.78125 C 6.808594 -9.710938 6.882812 -9.617188 6.933594 -9.5 C 6.992188 -9.367188 7.015625 -9.203125 7.007812 -9.007812 L 7.007812 -8.988281 L 7.003906 -8.964844 C 6.921875 -8.304688 6.640625 -7.765625 6.152344 -7.347656 C 5.671875 -6.9375 5.070312 -6.730469 4.347656 -6.730469 Z M 4.347656 -7.773438 C 4.8125 -7.773438 5.1875 -7.894531 5.476562 -8.140625 C 5.757812 -8.382812 5.921875 -8.699219 5.96875 -9.09375 L 6.488281 -9.03125 L 5.96875 -9.050781 C 5.96875 -9.082031 5.96875 -9.105469 5.964844 -9.121094 C 5.964844 -9.113281 5.972656 -9.097656 5.980469 -9.082031 C 6.003906 -9.023438 6.046875 -8.972656 6.105469 -8.929688 C 6.175781 -8.882812 6.25 -8.855469 6.335938 -8.855469 C 6.429688 -8.855469 6.507812 -8.890625 6.570312 -8.957031 C 6.585938 -8.972656 6.597656 -8.988281 6.605469 -9.003906 C 6.605469 -9 6.601562 -8.992188 6.601562 -8.988281 L 6.59375 -8.964844 C 6.460938 -8.554688 6.28125 -8.222656 6.054688 -7.960938 C 5.769531 -7.632812 5.359375 -7.46875 4.820312 -7.46875 C 4.382812 -7.46875 4.039062 -7.601562 3.792969 -7.867188 C 3.554688 -8.121094 3.4375 -8.472656 3.4375 -8.917969 C 3.4375 -9.023438 3.449219 -9.164062 3.472656 -9.339844 C 3.46875 -9.324219 3.46875 -9.300781 3.472656 -9.277344 C 3.480469 -9.21875 3.503906 -9.160156 3.542969 -9.109375 C 3.597656 -9.027344 3.671875 -8.976562 3.757812 -8.949219 C 3.78125 -8.941406 3.796875 -8.9375 3.804688 -8.9375 C 3.738281 -8.9375 3.65625 -8.910156 3.554688 -8.855469 C 3.4375 -8.789062 3.339844 -8.699219 3.257812 -8.59375 C 3.203125 -8.519531 3.175781 -8.445312 3.175781 -8.375 C 3.175781 -8.246094 3.257812 -8.125 3.425781 -8.007812 C 3.65625 -7.851562 3.964844 -7.773438 4.347656 -7.773438 Z M 4.347656 -7.773438 "/></g></g></g><g fill="#f65455" fill-opacity="1"><g transform="translate(90.719876, 20.473343)"><g><path d="M 1.929688 0.660156 C 1.453125 0.660156 1.089844 0.496094 0.835938 0.164062 C 0.617188 -0.125 0.507812 -0.539062 0.507812 -1.082031 C 0.507812 -1.382812 0.546875 -1.765625 0.625 -2.238281 L 1.195312 -5.492188 L 1.707031 -5.402344 L 1.707031 -4.882812 L 0.582031 -4.882812 C 0.390625 -4.882812 0.234375 -4.917969 0.113281 -4.984375 C 0.0117188 -5.039062 -0.0664062 -5.117188 -0.125 -5.214844 C -0.183594 -5.3125 -0.214844 -5.421875 -0.214844 -5.542969 C -0.214844 -5.75 -0.117188 -5.976562 0.0820312 -6.21875 C 0.226562 -6.398438 0.390625 -6.558594 0.574219 -6.703125 C 0.820312 -6.898438 1.054688 -6.996094 1.277344 -6.996094 L 1.917969 -6.996094 L 1.917969 -6.472656 L 1.402344 -6.554688 L 1.515625 -7.285156 L 1.515625 -7.292969 C 1.605469 -7.757812 1.855469 -8.164062 2.269531 -8.511719 C 2.6875 -8.863281 3.109375 -9.035156 3.542969 -9.035156 C 3.710938 -9.035156 3.863281 -9 3.992188 -8.921875 C 4.09375 -8.859375 4.175781 -8.777344 4.230469 -8.675781 C 4.285156 -8.574219 4.3125 -8.46875 4.3125 -8.347656 C 4.3125 -8.253906 4.285156 -8.144531 4.230469 -8.027344 C 4.199219 -7.964844 4.160156 -7.886719 4.105469 -7.792969 C 4.042969 -7.683594 3.996094 -7.519531 3.960938 -7.292969 L 3.804688 -6.386719 L 3.292969 -6.472656 L 3.292969 -6.996094 L 4.472656 -6.996094 C 4.648438 -6.996094 4.78125 -6.976562 4.878906 -6.941406 C 5.007812 -6.890625 5.109375 -6.808594 5.179688 -6.691406 C 5.242188 -6.59375 5.273438 -6.484375 5.273438 -6.363281 C 5.273438 -6.140625 5.167969 -5.90625 4.953125 -5.65625 C 4.796875 -5.472656 4.617188 -5.308594 4.417969 -5.164062 C 4.160156 -4.976562 3.933594 -4.882812 3.738281 -4.882812 L 3.113281 -4.882812 L 3.113281 -5.402344 L 3.625 -5.316406 L 3.070312 -2.003906 L 3.066406 -1.996094 C 3.007812 -1.707031 2.980469 -1.488281 2.980469 -1.347656 C 2.980469 -1.324219 2.980469 -1.304688 2.980469 -1.300781 C 2.972656 -1.332031 2.957031 -1.371094 2.925781 -1.40625 C 2.890625 -1.449219 2.847656 -1.480469 2.796875 -1.5 C 2.765625 -1.515625 2.734375 -1.519531 2.707031 -1.519531 C 2.730469 -1.519531 2.765625 -1.542969 2.8125 -1.582031 C 2.90625 -1.664062 3.007812 -1.804688 3.109375 -1.996094 L 3.570312 -1.75 L 3.089844 -1.957031 C 3.140625 -2.070312 3.195312 -2.164062 3.257812 -2.234375 C 3.390625 -2.390625 3.554688 -2.464844 3.75 -2.464844 C 3.867188 -2.464844 3.972656 -2.4375 4.070312 -2.382812 C 4.167969 -2.328125 4.246094 -2.25 4.304688 -2.148438 C 4.375 -2.027344 4.410156 -1.882812 4.410156 -1.707031 C 4.410156 -1.367188 4.292969 -1.007812 4.050781 -0.628906 C 3.828125 -0.277344 3.535156 0.0195312 3.175781 0.265625 C 2.785156 0.527344 2.371094 0.660156 1.929688 0.660156 Z M 1.929688 -0.382812 C 2.15625 -0.382812 2.378906 -0.453125 2.589844 -0.597656 C 2.832031 -0.761719 3.027344 -0.957031 3.171875 -1.1875 C 3.304688 -1.394531 3.367188 -1.570312 3.367188 -1.707031 L 3.371094 -1.710938 C 3.375 -1.683594 3.386719 -1.652344 3.40625 -1.621094 C 3.441406 -1.5625 3.492188 -1.511719 3.554688 -1.476562 C 3.617188 -1.441406 3.683594 -1.421875 3.75 -1.421875 C 3.875 -1.421875 3.972656 -1.46875 4.050781 -1.558594 C 4.058594 -1.566406 4.0625 -1.574219 4.0625 -1.578125 C 4.058594 -1.570312 4.054688 -1.558594 4.050781 -1.546875 L 4.039062 -1.523438 L 4.03125 -1.503906 C 3.664062 -0.820312 3.222656 -0.480469 2.707031 -0.480469 C 2.460938 -0.480469 2.265625 -0.566406 2.117188 -0.746094 C 1.996094 -0.894531 1.9375 -1.09375 1.9375 -1.347656 C 1.9375 -1.558594 1.972656 -1.84375 2.046875 -2.199219 L 2.554688 -2.097656 L 2.042969 -2.183594 L 2.671875 -5.925781 L 3.738281 -5.925781 C 3.707031 -5.925781 3.683594 -5.921875 3.664062 -5.914062 C 3.660156 -5.914062 3.660156 -5.914062 3.65625 -5.914062 C 3.660156 -5.914062 3.664062 -5.917969 3.667969 -5.917969 C 3.703125 -5.933594 3.75 -5.964844 3.808594 -6.007812 C 3.9375 -6.101562 4.058594 -6.210938 4.160156 -6.332031 C 4.199219 -6.378906 4.226562 -6.417969 4.242188 -6.445312 C 4.242188 -6.445312 4.242188 -6.449219 4.242188 -6.449219 C 4.242188 -6.445312 4.242188 -6.441406 4.238281 -6.4375 C 4.234375 -6.414062 4.230469 -6.390625 4.230469 -6.363281 C 4.230469 -6.289062 4.25 -6.214844 4.292969 -6.148438 C 4.347656 -6.058594 4.417969 -6 4.511719 -5.964844 C 4.53125 -5.957031 4.550781 -5.953125 4.566406 -5.949219 L 4.5625 -5.949219 C 4.542969 -5.953125 4.511719 -5.953125 4.472656 -5.953125 L 2.675781 -5.953125 L 2.929688 -7.460938 C 2.988281 -7.808594 3.078125 -8.09375 3.199219 -8.308594 C 3.238281 -8.378906 3.269531 -8.429688 3.285156 -8.464844 C 3.289062 -8.472656 3.289062 -8.476562 3.292969 -8.480469 C 3.292969 -8.480469 3.292969 -8.480469 3.289062 -8.476562 C 3.277344 -8.441406 3.269531 -8.398438 3.269531 -8.347656 C 3.269531 -8.285156 3.289062 -8.226562 3.320312 -8.167969 C 3.351562 -8.109375 3.398438 -8.0625 3.453125 -8.027344 C 3.492188 -8.003906 3.519531 -7.996094 3.542969 -7.996094 C 3.363281 -7.996094 3.164062 -7.902344 2.941406 -7.714844 C 2.714844 -7.523438 2.582031 -7.320312 2.539062 -7.097656 L 2.027344 -7.195312 L 2.542969 -7.117188 L 2.363281 -5.953125 L 1.277344 -5.953125 C 1.296875 -5.953125 1.316406 -5.953125 1.328125 -5.957031 C 1.300781 -5.945312 1.265625 -5.917969 1.21875 -5.882812 C 1.097656 -5.789062 0.988281 -5.679688 0.890625 -5.5625 C 0.851562 -5.515625 0.828125 -5.476562 0.8125 -5.453125 C 0.8125 -5.449219 0.8125 -5.449219 0.8125 -5.449219 C 0.8125 -5.453125 0.8125 -5.457031 0.816406 -5.460938 C 0.824219 -5.484375 0.828125 -5.511719 0.828125 -5.542969 C 0.828125 -5.617188 0.808594 -5.683594 0.769531 -5.75 C 0.730469 -5.8125 0.683594 -5.859375 0.621094 -5.894531 C 0.589844 -5.914062 0.558594 -5.921875 0.535156 -5.925781 C 0.542969 -5.925781 0.558594 -5.925781 0.582031 -5.925781 L 2.328125 -5.925781 L 1.652344 -2.066406 C 1.582031 -1.652344 1.550781 -1.324219 1.550781 -1.082031 C 1.550781 -0.773438 1.585938 -0.570312 1.664062 -0.46875 C 1.707031 -0.410156 1.796875 -0.382812 1.929688 -0.382812 Z M 1.929688 -0.382812 "/></g></g></g><g fill="#000000" fill-opacity="1"><g transform="translate(53.62171, 20.473343)"><g><path d="M 3.46875 0.140625 C 2.59375 0.140625 1.914062 -0.15625 1.4375 -0.75 C 0.957031 -1.351562 0.71875 -2.242188 0.71875 -3.421875 C 0.71875 -4.609375 0.960938 -5.6875 1.453125 -6.65625 C 1.941406 -7.632812 2.582031 -8.398438 3.375 -8.953125 C 4.175781 -9.503906 5.035156 -9.78125 5.953125 -9.78125 C 6.535156 -9.78125 7.003906 -9.671875 7.359375 -9.453125 C 7.710938 -9.234375 7.890625 -8.9375 7.890625 -8.5625 C 7.890625 -8.320312 7.796875 -8.03125 7.609375 -7.6875 C 7.523438 -7.550781 7.445312 -7.441406 7.375 -7.359375 C 7.300781 -7.285156 7.21875 -7.25 7.125 -7.25 C 7.039062 -7.25 6.984375 -7.28125 6.953125 -7.34375 C 6.929688 -7.414062 6.910156 -7.507812 6.890625 -7.625 C 6.867188 -7.738281 6.847656 -7.828125 6.828125 -7.890625 C 6.691406 -8.453125 6.265625 -8.734375 5.546875 -8.734375 C 4.910156 -8.734375 4.351562 -8.519531 3.875 -8.09375 C 3.394531 -7.675781 3.023438 -7.09375 2.765625 -6.34375 C 2.503906 -5.601562 2.375 -4.757812 2.375 -3.8125 C 2.375 -2.894531 2.515625 -2.21875 2.796875 -1.78125 C 3.078125 -1.351562 3.523438 -1.140625 4.140625 -1.140625 C 4.742188 -1.140625 5.222656 -1.300781 5.578125 -1.625 C 5.941406 -1.945312 6.265625 -2.351562 6.546875 -2.84375 C 6.628906 -3 6.722656 -3.078125 6.828125 -3.078125 C 6.921875 -3.078125 6.96875 -3.019531 6.96875 -2.90625 C 6.96875 -2.820312 6.941406 -2.6875 6.890625 -2.5 C 6.648438 -1.6875 6.222656 -1.039062 5.609375 -0.5625 C 4.992188 -0.09375 4.28125 0.140625 3.46875 0.140625 Z M 3.46875 0.140625 "/></g></g></g><g fill="#000000" fill-opacity="1"><g transform="translate(61.052419, 20.473343)"><g><path d="M 1.15625 0.140625 C 0.863281 0.140625 0.632812 0 0.46875 -0.28125 C 0.3125 -0.570312 0.234375 -0.957031 0.234375 -1.4375 C 0.234375 -2.207031 0.421875 -2.992188 0.796875 -3.796875 C 1.171875 -4.609375 1.679688 -5.28125 2.328125 -5.8125 C 2.984375 -6.34375 3.6875 -6.609375 4.4375 -6.609375 C 4.675781 -6.609375 4.910156 -6.578125 5.140625 -6.515625 C 5.378906 -6.460938 5.570312 -6.394531 5.71875 -6.3125 C 5.632812 -6.113281 5.578125 -5.945312 5.546875 -5.8125 C 5.523438 -5.6875 5.507812 -5.601562 5.5 -5.5625 C 5.4375 -5.226562 5.34375 -4.722656 5.21875 -4.046875 C 5.09375 -3.367188 4.972656 -2.71875 4.859375 -2.09375 C 4.804688 -1.820312 4.78125 -1.609375 4.78125 -1.453125 C 4.78125 -1.359375 4.796875 -1.285156 4.828125 -1.234375 C 4.859375 -1.191406 4.90625 -1.171875 4.96875 -1.171875 C 5.125 -1.171875 5.265625 -1.265625 5.390625 -1.453125 C 5.523438 -1.640625 5.664062 -1.90625 5.8125 -2.25 C 5.832031 -2.300781 5.859375 -2.34375 5.890625 -2.375 C 5.921875 -2.414062 5.957031 -2.4375 6 -2.4375 C 6.082031 -2.4375 6.125 -2.375 6.125 -2.25 C 6.125 -2.1875 6.117188 -2.132812 6.109375 -2.09375 C 6.066406 -1.738281 5.945312 -1.390625 5.75 -1.046875 C 5.550781 -0.703125 5.3125 -0.414062 5.03125 -0.1875 C 4.75 0.03125 4.460938 0.140625 4.171875 0.140625 C 3.929688 0.140625 3.742188 0.0507812 3.609375 -0.125 C 3.472656 -0.300781 3.40625 -0.535156 3.40625 -0.828125 C 3.40625 -0.898438 3.414062 -1.015625 3.4375 -1.171875 L 3.5 -1.640625 L 3.46875 -1.640625 C 3.125 -1.117188 2.734375 -0.691406 2.296875 -0.359375 C 1.859375 -0.0234375 1.476562 0.140625 1.15625 0.140625 Z M 1.9375 -1.234375 C 2.144531 -1.234375 2.40625 -1.410156 2.71875 -1.765625 C 3.039062 -2.128906 3.34375 -2.585938 3.625 -3.140625 C 3.90625 -3.691406 4.09375 -4.242188 4.1875 -4.796875 L 4.28125 -5.328125 C 4.050781 -5.472656 3.835938 -5.546875 3.640625 -5.546875 C 3.335938 -5.546875 3.035156 -5.359375 2.734375 -4.984375 C 2.441406 -4.617188 2.195312 -4.144531 2 -3.5625 C 1.8125 -2.988281 1.71875 -2.40625 1.71875 -1.8125 C 1.71875 -1.582031 1.734375 -1.425781 1.765625 -1.34375 C 1.796875 -1.269531 1.851562 -1.234375 1.9375 -1.234375 Z M 5.65625 -7.25 C 5.289062 -7.28125 4.914062 -7.410156 4.53125 -7.640625 C 4.15625 -7.867188 3.84375 -8.144531 3.59375 -8.46875 C 3.351562 -8.789062 3.234375 -9.097656 3.234375 -9.390625 C 3.234375 -9.503906 3.253906 -9.582031 3.296875 -9.625 C 3.347656 -9.664062 3.445312 -9.6875 3.59375 -9.6875 C 3.84375 -9.6875 4.035156 -9.660156 4.171875 -9.609375 C 4.304688 -9.554688 4.398438 -9.460938 4.453125 -9.328125 C 4.597656 -8.890625 4.742188 -8.5625 4.890625 -8.34375 C 5.035156 -8.125 5.238281 -7.925781 5.5 -7.75 C 5.582031 -7.695312 5.65625 -7.648438 5.71875 -7.609375 C 5.78125 -7.578125 5.828125 -7.546875 5.859375 -7.515625 C 5.890625 -7.484375 5.90625 -7.445312 5.90625 -7.40625 C 5.90625 -7.351562 5.878906 -7.3125 5.828125 -7.28125 C 5.785156 -7.25 5.726562 -7.238281 5.65625 -7.25 Z M 5.65625 -7.25 "/></g></g></g><g fill="#000000" fill-opacity="1"><g transform="translate(67.399788, 20.473343)"><g><path d="M 2.15625 -7.078125 C 2.09375 -7.078125 2.050781 -7.085938 2.03125 -7.109375 C 2.007812 -7.140625 2.003906 -7.1875 2.015625 -7.25 L 2.203125 -8.34375 C 2.265625 -8.644531 2.394531 -8.882812 2.59375 -9.0625 C 2.800781 -9.238281 3.09375 -9.328125 3.46875 -9.328125 L 3.578125 -9.328125 C 3.679688 -9.328125 3.726562 -9.28125 3.71875 -9.1875 L 3.53125 -8.078125 C 3.414062 -7.410156 2.988281 -7.078125 2.25 -7.078125 Z M 1.5625 0.140625 C 1.113281 0.140625 0.890625 -0.164062 0.890625 -0.78125 C 0.890625 -0.945312 0.910156 -1.164062 0.953125 -1.4375 L 1.625 -4.8125 C 1.644531 -4.976562 1.65625 -5.078125 1.65625 -5.109375 C 1.65625 -5.242188 1.613281 -5.3125 1.53125 -5.3125 C 1.445312 -5.3125 1.347656 -5.242188 1.234375 -5.109375 C 1.117188 -4.972656 0.976562 -4.75 0.8125 -4.4375 C 0.800781 -4.425781 0.773438 -4.390625 0.734375 -4.328125 C 0.703125 -4.265625 0.671875 -4.21875 0.640625 -4.1875 C 0.617188 -4.164062 0.59375 -4.15625 0.5625 -4.15625 C 0.476562 -4.15625 0.4375 -4.226562 0.4375 -4.375 C 0.4375 -4.632812 0.546875 -4.941406 0.765625 -5.296875 C 0.992188 -5.648438 1.273438 -5.957031 1.609375 -6.21875 C 1.941406 -6.476562 2.265625 -6.609375 2.578125 -6.609375 C 2.972656 -6.609375 3.171875 -6.347656 3.171875 -5.828125 C 3.171875 -5.679688 3.132812 -5.425781 3.0625 -5.0625 L 2.375 -1.484375 C 2.351562 -1.410156 2.34375 -1.359375 2.34375 -1.328125 C 2.34375 -1.222656 2.394531 -1.171875 2.5 -1.171875 C 2.625 -1.171875 2.757812 -1.265625 2.90625 -1.453125 C 3.0625 -1.648438 3.207031 -1.914062 3.34375 -2.25 C 3.394531 -2.375 3.453125 -2.4375 3.515625 -2.4375 C 3.597656 -2.4375 3.640625 -2.359375 3.640625 -2.203125 C 3.640625 -1.878906 3.53125 -1.535156 3.3125 -1.171875 C 3.101562 -0.804688 2.835938 -0.492188 2.515625 -0.234375 C 2.203125 0.015625 1.882812 0.140625 1.5625 0.140625 Z M 1.5625 0.140625 "/></g></g></g><g fill="#000000" fill-opacity="1"><g transform="translate(71.566581, 20.473343)"><g/></g></g><g fill="#000000" fill-opacity="1"><g transform="translate(75.455589, 20.473343)"><g><path d="M 4.671875 -9.78125 C 5.921875 -9.78125 6.894531 -9.421875 7.59375 -8.703125 C 8.289062 -7.992188 8.640625 -6.953125 8.640625 -5.578125 C 8.640625 -4.546875 8.4375 -3.601562 8.03125 -2.75 C 7.632812 -1.90625 7.0625 -1.234375 6.3125 -0.734375 C 5.5625 -0.242188 4.6875 0 3.6875 0 C 3.375 0 2.988281 -0.0351562 2.53125 -0.109375 C 2.132812 -0.160156 1.863281 -0.1875 1.71875 -0.1875 C 1.488281 -0.1875 1.28125 -0.15625 1.09375 -0.09375 C 0.914062 -0.03125 0.800781 0 0.75 0 C 0.644531 0 0.59375 -0.0507812 0.59375 -0.15625 C 0.59375 -0.257812 0.628906 -0.390625 0.703125 -0.546875 C 0.773438 -0.710938 0.882812 -0.859375 1.03125 -0.984375 C 1.257812 -1.171875 1.40625 -1.3125 1.46875 -1.40625 C 1.53125 -1.5 1.59375 -1.703125 1.65625 -2.015625 L 2.015625 -4.0625 L 1.265625 -4.0625 C 1.128906 -4.0625 1 -4.050781 0.875 -4.03125 C 0.75 -4.007812 0.65625 -4 0.59375 -4 C 0.539062 -4 0.5 -4.007812 0.46875 -4.03125 C 0.445312 -4.050781 0.4375 -4.097656 0.4375 -4.171875 C 0.4375 -4.285156 0.507812 -4.414062 0.65625 -4.5625 C 0.800781 -4.707031 0.976562 -4.828125 1.1875 -4.921875 C 1.394531 -5.015625 1.59375 -5.0625 1.78125 -5.0625 L 2.1875 -5.0625 L 2.53125 -6.984375 C 2.550781 -7.160156 2.640625 -7.34375 2.796875 -7.53125 C 2.960938 -7.71875 3.160156 -7.867188 3.390625 -7.984375 C 3.617188 -8.109375 3.84375 -8.171875 4.0625 -8.171875 C 4.144531 -8.171875 4.195312 -8.15625 4.21875 -8.125 C 4.25 -8.101562 4.265625 -8.070312 4.265625 -8.03125 C 4.265625 -7.976562 4.226562 -7.859375 4.15625 -7.671875 C 4.082031 -7.484375 4.007812 -7.222656 3.9375 -6.890625 L 3.609375 -5.0625 L 4.671875 -5.0625 C 4.804688 -5.0625 4.929688 -5.070312 5.046875 -5.09375 C 5.171875 -5.125 5.257812 -5.140625 5.3125 -5.140625 C 5.414062 -5.140625 5.46875 -5.078125 5.46875 -4.953125 C 5.46875 -4.835938 5.398438 -4.707031 5.265625 -4.5625 C 5.128906 -4.425781 4.957031 -4.304688 4.75 -4.203125 C 4.539062 -4.109375 4.34375 -4.0625 4.15625 -4.0625 L 3.4375 -4.0625 L 3.03125 -1.796875 C 3 -1.578125 2.925781 -1.382812 2.8125 -1.21875 L 2.8125 -1.203125 C 3.050781 -1.160156 3.378906 -1.140625 3.796875 -1.140625 C 4.460938 -1.140625 5.035156 -1.320312 5.515625 -1.6875 C 5.992188 -2.050781 6.359375 -2.554688 6.609375 -3.203125 C 6.859375 -3.859375 6.984375 -4.613281 6.984375 -5.46875 C 6.984375 -6.613281 6.753906 -7.453125 6.296875 -7.984375 C 5.835938 -8.515625 5.128906 -8.78125 4.171875 -8.78125 C 3.566406 -8.78125 3.035156 -8.679688 2.578125 -8.484375 C 2.128906 -8.285156 1.726562 -7.976562 1.375 -7.5625 C 1.257812 -7.4375 1.175781 -7.347656 1.125 -7.296875 C 1.070312 -7.253906 1.003906 -7.234375 0.921875 -7.234375 C 0.804688 -7.234375 0.75 -7.296875 0.75 -7.421875 C 0.75 -7.484375 0.769531 -7.582031 0.8125 -7.71875 C 1.09375 -8.351562 1.566406 -8.851562 2.234375 -9.21875 C 2.910156 -9.59375 3.722656 -9.78125 4.671875 -9.78125 Z M 4.671875 -9.78125 "/></g></g></g><g fill="#000000" fill-opacity="1"><g transform="translate(84.372508, 20.473343)"><g><path d="M 1.15625 0.140625 C 0.863281 0.140625 0.632812 0 0.46875 -0.28125 C 0.3125 -0.570312 0.234375 -0.957031 0.234375 -1.4375 C 0.234375 -2.207031 0.421875 -2.992188 0.796875 -3.796875 C 1.171875 -4.609375 1.679688 -5.28125 2.328125 -5.8125 C 2.984375 -6.34375 3.6875 -6.609375 4.4375 -6.609375 C 4.675781 -6.609375 4.910156 -6.578125 5.140625 -6.515625 C 5.378906 -6.460938 5.570312 -6.394531 5.71875 -6.3125 C 5.632812 -6.113281 5.578125 -5.945312 5.546875 -5.8125 C 5.523438 -5.6875 5.507812 -5.601562 5.5 -5.5625 C 5.4375 -5.226562 5.34375 -4.722656 5.21875 -4.046875 C 5.09375 -3.367188 4.972656 -2.71875 4.859375 -2.09375 C 4.804688 -1.820312 4.78125 -1.609375 4.78125 -1.453125 C 4.78125 -1.359375 4.796875 -1.285156 4.828125 -1.234375 C 4.859375 -1.191406 4.90625 -1.171875 4.96875 -1.171875 C 5.125 -1.171875 5.265625 -1.265625 5.390625 -1.453125 C 5.523438 -1.640625 5.664062 -1.90625 5.8125 -2.25 C 5.832031 -2.300781 5.859375 -2.34375 5.890625 -2.375 C 5.921875 -2.414062 5.957031 -2.4375 6 -2.4375 C 6.082031 -2.4375 6.125 -2.375 6.125 -2.25 C 6.125 -2.1875 6.117188 -2.132812 6.109375 -2.09375 C 6.066406 -1.738281 5.945312 -1.390625 5.75 -1.046875 C 5.550781 -0.703125 5.3125 -0.414062 5.03125 -0.1875 C 4.75 0.03125 4.460938 0.140625 4.171875 0.140625 C 3.929688 0.140625 3.742188 0.0507812 3.609375 -0.125 C 3.472656 -0.300781 3.40625 -0.535156 3.40625 -0.828125 C 3.40625 -0.898438 3.414062 -1.015625 3.4375 -1.171875 L 3.5 -1.640625 L 3.46875 -1.640625 C 3.125 -1.117188 2.734375 -0.691406 2.296875 -0.359375 C 1.859375 -0.0234375 1.476562 0.140625 1.15625 0.140625 Z M 1.9375 -1.234375 C 2.144531 -1.234375 2.40625 -1.410156 2.71875 -1.765625 C 3.039062 -2.128906 3.34375 -2.585938 3.625 -3.140625 C 3.90625 -3.691406 4.09375 -4.242188 4.1875 -4.796875 L 4.28125 -5.328125 C 4.050781 -5.472656 3.835938 -5.546875 3.640625 -5.546875 C 3.335938 -5.546875 3.035156 -5.359375 2.734375 -4.984375 C 2.441406 -4.617188 2.195312 -4.144531 2 -3.5625 C 1.8125 -2.988281 1.71875 -2.40625 1.71875 -1.8125 C 1.71875 -1.582031 1.734375 -1.425781 1.765625 -1.34375 C 1.796875 -1.269531 1.851562 -1.234375 1.9375 -1.234375 Z M 2.328125 2.671875 C 2.128906 2.671875 1.96875 2.609375 1.84375 2.484375 C 1.71875 2.367188 1.65625 2.21875 1.65625 2.03125 C 1.65625 1.851562 1.710938 1.671875 1.828125 1.484375 C 1.941406 1.304688 2.085938 1.15625 2.265625 1.03125 C 2.453125 0.914062 2.632812 0.859375 2.8125 0.859375 C 2.988281 0.859375 3.132812 0.914062 3.25 1.03125 C 3.375 1.15625 3.4375 1.3125 3.4375 1.5 C 3.4375 1.675781 3.378906 1.851562 3.265625 2.03125 C 3.160156 2.21875 3.019531 2.367188 2.84375 2.484375 C 2.675781 2.609375 2.503906 2.671875 2.328125 2.671875 Z M 4.34375 -7.25 C 3.851562 -7.25 3.445312 -7.359375 3.125 -7.578125 C 2.8125 -7.796875 2.65625 -8.0625 2.65625 -8.375 C 2.65625 -8.5625 2.71875 -8.738281 2.84375 -8.90625 C 2.96875 -9.070312 3.117188 -9.203125 3.296875 -9.296875 C 3.484375 -9.398438 3.65625 -9.453125 3.8125 -9.453125 C 3.894531 -9.453125 3.945312 -9.4375 3.96875 -9.40625 C 3.988281 -9.375 3.992188 -9.328125 3.984375 -9.265625 C 3.972656 -9.117188 3.96875 -9.003906 3.96875 -8.921875 C 3.96875 -8.296875 4.253906 -7.984375 4.828125 -7.984375 C 5.203125 -7.984375 5.476562 -8.085938 5.65625 -8.296875 C 5.84375 -8.503906 5.988281 -8.78125 6.09375 -9.125 C 6.144531 -9.289062 6.226562 -9.375 6.34375 -9.375 C 6.445312 -9.375 6.492188 -9.257812 6.484375 -9.03125 C 6.421875 -8.5 6.195312 -8.066406 5.8125 -7.734375 C 5.425781 -7.410156 4.9375 -7.25 4.34375 -7.25 Z M 4.34375 -7.25 "/></g></g></g><g fill="#000000" fill-opacity="1"><g transform="translate(90.719876, 20.473343)"><g><path d="M 1.9375 0.140625 C 1.625 0.140625 1.394531 0.046875 1.25 -0.140625 C 1.101562 -0.335938 1.03125 -0.648438 1.03125 -1.078125 C 1.03125 -1.347656 1.066406 -1.707031 1.140625 -2.15625 L 1.703125 -5.40625 L 0.578125 -5.40625 C 0.484375 -5.40625 0.414062 -5.414062 0.375 -5.4375 C 0.332031 -5.457031 0.3125 -5.492188 0.3125 -5.546875 C 0.3125 -5.628906 0.367188 -5.742188 0.484375 -5.890625 C 0.609375 -6.035156 0.742188 -6.164062 0.890625 -6.28125 C 1.046875 -6.40625 1.175781 -6.46875 1.28125 -6.46875 L 1.921875 -6.46875 L 2.03125 -7.203125 C 2.09375 -7.535156 2.28125 -7.835938 2.59375 -8.109375 C 2.914062 -8.378906 3.234375 -8.515625 3.546875 -8.515625 C 3.617188 -8.515625 3.675781 -8.5 3.71875 -8.46875 C 3.769531 -8.445312 3.796875 -8.40625 3.796875 -8.34375 C 3.796875 -8.3125 3.75 -8.210938 3.65625 -8.046875 C 3.5625 -7.890625 3.488281 -7.664062 3.4375 -7.375 L 3.296875 -6.46875 L 4.46875 -6.46875 C 4.582031 -6.46875 4.65625 -6.460938 4.6875 -6.453125 C 4.726562 -6.441406 4.75 -6.410156 4.75 -6.359375 C 4.75 -6.265625 4.679688 -6.140625 4.546875 -5.984375 C 4.421875 -5.835938 4.273438 -5.703125 4.109375 -5.578125 C 3.941406 -5.460938 3.816406 -5.40625 3.734375 -5.40625 L 3.109375 -5.40625 L 2.5625 -2.09375 C 2.488281 -1.769531 2.453125 -1.519531 2.453125 -1.34375 C 2.453125 -1.21875 2.472656 -1.128906 2.515625 -1.078125 C 2.554688 -1.023438 2.617188 -1 2.703125 -1 C 3.015625 -1 3.300781 -1.25 3.5625 -1.75 C 3.59375 -1.8125 3.617188 -1.859375 3.640625 -1.890625 C 3.671875 -1.921875 3.707031 -1.9375 3.75 -1.9375 C 3.84375 -1.9375 3.890625 -1.859375 3.890625 -1.703125 C 3.890625 -1.460938 3.796875 -1.195312 3.609375 -0.90625 C 3.421875 -0.613281 3.175781 -0.363281 2.875 -0.15625 C 2.582031 0.0390625 2.269531 0.140625 1.9375 0.140625 Z M 1.9375 0.140625 "/></g></g></g></svg>